<svg width="64" height="56" viewBox="0 0 64 56" fill="none" xmlns="http://www.w3.org/2000/svg">
<path d="M55.125 7.03125H47.7308L44.1406 1.63735C43.8233 1.16177 43.3934 0.771988 42.8891 0.502685C42.3848 0.233383 41.8217 0.0929064 41.25 0.0937538H22.75C22.1783 0.0929064 21.6152 0.233383 21.1109 0.502685C20.6066 0.771988 20.1767 1.16177 19.8594 1.63735L16.2663 7.03125H8.875C6.7284 7.03125 4.66973 7.88399 3.15185 9.40186C1.63398 10.9197 0.78125 12.9784 0.78125 15.125V47.5C0.78125 49.6466 1.63398 51.7053 3.15185 53.2232C4.66973 54.741 6.7284 55.5938 8.875 55.5938H55.125C56.1879 55.5938 57.2404 55.3844 58.2223 54.9777C59.2043 54.5709 60.0966 53.9747 60.8481 53.2232C61.5997 52.4716 62.1959 51.5793 62.6026 50.5973C63.0094 49.6154 63.2188 48.5629 63.2188 47.5V15.125C63.2188 14.0621 63.0094 13.0096 62.6026 12.0277C62.1959 11.0457 61.5997 10.1534 60.8481 9.40186C60.0966 8.65028 59.2043 8.0541 58.2223 7.64735C57.2404 7.24061 56.1879 7.03125 55.125 7.03125ZM56.2812 47.5C56.2812 47.8067 56.1594 48.1008 55.9426 48.3176C55.7258 48.5344 55.4317 48.6563 55.125 48.6563H8.875C8.56834 48.6563 8.27425 48.5344 8.05741 48.3176C7.84057 48.1008 7.71875 47.8067 7.71875 47.5V15.125C7.71875 14.8183 7.84057 14.5242 8.05741 14.3074C8.27425 14.0906 8.56834 13.9688 8.875 13.9688H18.125C18.6967 13.9696 19.2598 13.8291 19.7641 13.5598C20.2684 13.2905 20.6983 12.9007 21.0156 12.4252L24.6058 7.03125H39.3913L42.9844 12.4252C43.3017 12.9007 43.7316 13.2905 44.2359 13.5598C44.7402 13.8291 45.3033 13.9696 45.875 13.9688H55.125C55.4317 13.9688 55.7258 14.0906 55.9426 14.3074C56.1594 14.5242 56.2812 14.8183 56.2812 15.125V47.5ZM32 16.2813C29.2558 16.2813 26.5732 17.095 24.2915 18.6196C22.0097 20.1442 20.2313 22.3112 19.1812 24.8465C18.131 27.3818 17.8562 30.1716 18.3916 32.8631C18.927 35.5546 20.2484 38.0269 22.1889 39.9674C24.1293 41.9078 26.6016 43.2293 29.2931 43.7647C31.9846 44.3 34.7744 44.0252 37.3097 42.9751C39.8451 41.9249 42.012 40.1465 43.5366 37.8648C45.0612 35.5831 45.875 32.9005 45.875 30.1563C45.8712 26.4776 44.4081 22.9506 41.8069 20.3494C39.2056 17.7481 35.6787 16.2851 32 16.2813ZM32 37.0938C30.6279 37.0938 29.2866 36.6869 28.1457 35.9246C27.0049 35.1623 26.1157 34.0788 25.5906 32.8111C25.0655 31.5435 24.9281 30.1486 25.1958 28.8028C25.4635 27.4571 26.1242 26.2209 27.0944 25.2507C28.0647 24.2805 29.3008 23.6197 30.6466 23.3521C31.9923 23.0844 33.3872 23.2218 34.6549 23.7468C35.9225 24.2719 37.006 25.1611 37.7683 26.302C38.5306 27.4429 38.9375 28.7841 38.9375 30.1563C38.9375 31.9962 38.2066 33.7608 36.9056 35.0618C35.6045 36.3628 33.8399 37.0938 32 37.0938Z" fill="black"/>
</svg>
