<svg width="50" height="50" viewBox="0 0 50 50" fill="none" xmlns="http://www.w3.org/2000/svg">
<path d="M34.4917 26.8878L33.5437 27.8315C33.5437 27.8315 31.2875 30.0732 25.1312 23.9524C18.975 17.8315 21.2312 15.5899 21.2312 15.5899L21.8271 14.994C23.3 13.5315 23.4396 11.1815 22.1542 9.46487L19.5292 5.95862C17.9375 3.83362 14.8646 3.55237 13.0417 5.36487L9.77083 8.61487C8.86874 9.51487 8.26458 10.6774 8.33749 11.969C8.52499 15.2753 10.0208 22.3857 18.3625 30.6815C27.2104 39.4774 35.5125 39.8274 38.9062 39.5107C39.9812 39.4107 40.9146 38.8649 41.6667 38.1149L44.625 35.1732C46.625 33.1878 46.0625 29.7815 43.5042 28.392L39.525 26.2274C37.8458 25.3169 35.8042 25.5836 34.4917 26.8878Z" fill="white"/>
</svg>
