<svg width="3155" height="1326" viewBox="0 0 3155 1326" fill="none" xmlns="http://www.w3.org/2000/svg">
<path d="M359.681 180.734L229.42 111.54L16.0211 116.704L3.53978 203.597C1.56039 217.378 10.7851 230.272 24.4662 232.849L25.3214 233.01C30.3404 233.956 35.4777 234.098 40.5414 233.433L61.3692 230.696C73.7489 229.069 85.8015 225.533 97.0978 220.214V220.214C106.184 215.935 115.637 212.481 125.342 209.894L168.875 198.291L231.38 190.029L274.195 185.63C285.833 184.435 297.559 184.364 309.21 185.419L348.715 188.996L359.681 180.734Z" fill="black"/>
<path d="M359.681 180.734L229.42 111.54L16.0211 116.704L3.53978 203.597C1.56039 217.378 10.7851 230.272 24.4662 232.849L25.3214 233.01C30.3404 233.956 35.4777 234.098 40.5414 233.433L61.3692 230.696C73.7489 229.069 85.8015 225.533 97.0978 220.214V220.214C106.184 215.935 115.637 212.481 125.342 209.894L168.875 198.291L231.38 190.029L274.195 185.63C285.833 184.435 297.559 184.364 309.21 185.419L348.715 188.996L359.681 180.734Z" fill="black" fill-opacity="0.2"/>
<rect width="96.4997" height="547.359" transform="matrix(1 0 0 -1 1087.82 582.475)" fill="black"/>
<rect width="96.4997" height="547.359" transform="matrix(1 0 0 -1 1087.82 582.475)" fill="black" fill-opacity="0.2"/>
<path d="M2076.94 647.535L2224.98 549.424V103.275H2076.94V647.535Z" fill="black"/>
<path d="M2076.94 647.535L2224.98 549.424V103.275H2076.94V647.535Z" fill="black" fill-opacity="0.2"/>
<rect width="85.5339" height="353.201" transform="matrix(1 0 0 -1 2013.34 425.498)" fill="black"/>
<rect width="85.5339" height="353.201" transform="matrix(1 0 0 -1 2013.34 425.498)" fill="black" fill-opacity="0.2"/>
<rect width="192.999" height="351.136" transform="matrix(1 0 0 -1 943.066 351.136)" fill="black"/>
<rect width="192.999" height="351.136" transform="matrix(1 0 0 -1 943.066 351.136)" fill="black" fill-opacity="0.2"/>
<path d="M1093.3 528.772L1139.83 316.542H1046.76L1046.76 507.085L1093.3 528.772Z" fill="black"/>
<path d="M1093.3 528.772L1139.83 316.542H1046.76L1046.76 507.085L1093.3 528.772Z" fill="black" fill-opacity="0.2"/>
<rect width="219.318" height="392.446" transform="matrix(1 0 0 -1 1223.79 427.562)" fill="black"/>
<rect width="219.318" height="392.446" transform="matrix(1 0 0 -1 1223.79 427.562)" fill="black" fill-opacity="0.2"/>
<rect width="276.34" height="475.066" transform="matrix(1 0 0 -1 603.124 510.182)" fill="black"/>
<rect width="276.34" height="475.066" transform="matrix(1 0 0 -1 603.124 510.182)" fill="black" fill-opacity="0.2"/>
<path d="M784.06 606.226H830.117L879.464 549.424V510.18H735.811V564.399L784.06 606.226Z" fill="black"/>
<path d="M784.06 606.226H830.117L879.464 549.424V510.18H735.811V564.399L784.06 606.226Z" fill="black" fill-opacity="0.2"/>
<path d="M659.049 571.112H705.106L738.004 531.867L766.515 473H622.862V527.22L659.049 571.112Z" fill="black"/>
<path d="M659.049 571.112H705.106L738.004 531.867L766.515 473H622.862V527.22L659.049 571.112Z" fill="black" fill-opacity="0.2"/>
<path d="M551.994 242.678C553.35 243.174 554.77 242.113 554.678 240.672L547.198 123.933L235.767 105.344L230.284 185.898H348.722C380.635 185.898 412.299 191.514 442.265 202.49L551.994 242.678Z" fill="black"/>
<path d="M551.994 242.678C553.35 243.174 554.77 242.113 554.678 240.672L547.198 123.933L235.767 105.344L230.284 185.898H348.722C380.635 185.898 412.299 191.514 442.265 202.49L551.994 242.678Z" fill="black" fill-opacity="0.2"/>
<rect width="28.5113" height="59.8996" transform="matrix(1 0 0 -1 535.135 183.834)" fill="black"/>
<rect width="28.5113" height="59.8996" transform="matrix(1 0 0 -1 535.135 183.834)" fill="black" fill-opacity="0.2"/>
<rect width="98.6929" height="218.944" transform="matrix(1 0 0 -1 348.715 353.201)" fill="black"/>
<rect width="98.6929" height="218.944" transform="matrix(1 0 0 -1 348.715 353.201)" fill="black" fill-opacity="0.2"/>
<rect width="39.4772" height="303.629" transform="matrix(1 0 0 -1 1175.54 431.693)" fill="black"/>
<rect width="39.4772" height="303.629" transform="matrix(1 0 0 -1 1175.54 431.693)" fill="black" fill-opacity="0.2"/>
<rect width="54.8294" height="76.4237" transform="matrix(1 0 0 -1 901.396 185.9)" fill="black"/>
<rect width="54.8294" height="76.4237" transform="matrix(1 0 0 -1 901.396 185.9)" fill="black" fill-opacity="0.2"/>
<rect width="125.011" height="260.254" transform="matrix(1 0 0 -1 1853.23 380.056)" fill="black"/>
<rect width="125.011" height="260.254" transform="matrix(1 0 0 -1 1853.23 380.056)" fill="black" fill-opacity="0.2"/>
<rect width="92.1134" height="92.9477" transform="matrix(1 0 0 -1 1802.79 221.016)" fill="black"/>
<rect width="92.1134" height="92.9477" transform="matrix(1 0 0 -1 1802.79 221.016)" fill="black" fill-opacity="0.2"/>
<rect width="120.625" height="485.394" transform="matrix(1 0 0 -1 1699.71 605.192)" fill="black"/>
<rect width="120.625" height="485.394" transform="matrix(1 0 0 -1 1699.71 605.192)" fill="black" fill-opacity="0.2"/>
<path d="M1699.71 619.649L1750.15 663.024H1781.96V634.107L1820.34 605.19H1699.71V619.649Z" fill="black"/>
<path d="M1699.71 619.649L1750.15 663.024H1781.96V634.107L1820.34 605.19H1699.71V619.649Z" fill="black" fill-opacity="0.2"/>
<path d="M1855.43 397.095L1905.87 448.216H1937.67V414.135L1976.05 380.054H1855.43V397.095Z" fill="black"/>
<path d="M1855.43 397.095L1905.87 448.216H1937.67V414.135L1976.05 380.054H1855.43V397.095Z" fill="black" fill-opacity="0.2"/>
<rect width="59.2157" height="90.8822" transform="matrix(1 0 0 -1 1478.2 210.682)" fill="black"/>
<rect width="59.2157" height="90.8822" transform="matrix(1 0 0 -1 1478.2 210.682)" fill="black" fill-opacity="0.2"/>
<rect width="41.6703" height="198.288" transform="matrix(1 0 0 -1 1633.92 291.238)" fill="black"/>
<rect width="41.6703" height="198.288" transform="matrix(1 0 0 -1 1633.92 291.238)" fill="black" fill-opacity="0.2"/>
<rect width="149.136" height="598.996" transform="matrix(1 0 0 -1 2237.04 727.061)" fill="black"/>
<rect width="149.136" height="598.996" transform="matrix(1 0 0 -1 2237.04 727.061)" fill="black" fill-opacity="0.2"/>
<rect width="96.4997" height="55.7686" transform="matrix(1 0 0 -1 2289.68 768.371)" fill="black"/>
<rect width="96.4997" height="55.7686" transform="matrix(1 0 0 -1 2289.68 768.371)" fill="black" fill-opacity="0.2"/>
<rect width="111.852" height="439.953" transform="matrix(1 0 0 -1 2449.78 551.489)" fill="black"/>
<rect width="111.852" height="439.953" transform="matrix(1 0 0 -1 2449.78 551.489)" fill="black" fill-opacity="0.2"/>
<rect width="149.136" height="320.153" transform="matrix(1 0 0 -1 2552.86 408.97)" fill="black"/>
<rect width="149.136" height="320.153" transform="matrix(1 0 0 -1 2552.86 408.97)" fill="black" fill-opacity="0.2"/>
<rect width="100.886" height="328.415" transform="matrix(1 0 0 -1 2717.34 448.215)" fill="black"/>
<rect width="100.886" height="328.415" transform="matrix(1 0 0 -1 2717.34 448.215)" fill="black" fill-opacity="0.2"/>
<rect width="43.8635" height="239.599" transform="matrix(1 0 0 -1 2813.84 351.136)" fill="black"/>
<rect width="43.8635" height="239.599" transform="matrix(1 0 0 -1 2813.84 351.136)" fill="black" fill-opacity="0.2"/>
<rect width="61.4089" height="218.944" transform="matrix(1 0 0 -1 2377.4 322.224)" fill="black"/>
<rect width="61.4089" height="218.944" transform="matrix(1 0 0 -1 2377.4 322.224)" fill="black" fill-opacity="0.2"/>
<path d="M2435.52 361.461L2438.37 359.912H2432.67L2435.52 361.461Z" fill="black"/>
<path d="M2435.52 361.461L2438.37 359.912H2432.67L2435.52 361.461Z" fill="black" fill-opacity="0.2"/>
<rect width="103.079" height="187.961" transform="matrix(1 0 0 -1 2897.19 336.682)" fill="black"/>
<rect width="103.079" height="187.961" transform="matrix(1 0 0 -1 2897.19 336.682)" fill="black" fill-opacity="0.2"/>
<rect width="118.431" height="26.8516" transform="matrix(1 0 0 -1 2888.41 338.748)" fill="black"/>
<rect width="118.431" height="26.8516" transform="matrix(1 0 0 -1 2888.41 338.748)" fill="black" fill-opacity="0.2"/>
<path d="M2998.07 221.017H3085.8V144.593H2998.07V221.017Z" fill="black"/>
<path d="M2998.07 221.017H3085.8V144.593H2998.07V221.017Z" fill="black" fill-opacity="0.2"/>
<path d="M2996.98 235.474L3085.8 220.26H2999.17L2996.98 235.474Z" fill="black"/>
<path d="M2996.98 235.474L3085.8 220.26H2999.17L2996.98 235.474Z" fill="black" fill-opacity="0.2"/>
<path d="M3085.8 210.688L3154.88 182.803V172.476H3148.3V142.526H3085.8V210.688Z" fill="black"/>
<path d="M3085.8 210.688L3154.88 182.803V172.476H3148.3V142.526H3085.8V210.688Z" fill="black" fill-opacity="0.2"/>
<path d="M1738.57 641.771L1708.52 630.452C1686.18 622.034 1669.49 603.047 1664 579.806V579.806H1433.72V579.806C1428.94 602.972 1412.68 622.104 1390.59 630.567L1361.35 641.771H1738.57Z" fill="black"/>
<path d="M1738.57 641.771L1708.52 630.452C1686.18 622.034 1669.49 603.047 1664 579.806V579.806H1433.72V579.806C1428.94 602.972 1412.68 622.104 1390.59 630.567L1361.35 641.771H1738.57Z" fill="black" fill-opacity="0.2"/>
<path d="M1767.04 810.104L1738.57 641.766H1361.35L1331.74 810.104H1767.04Z" fill="black"/>
<path d="M1767.04 810.104L1738.57 641.766H1361.35L1331.74 810.104H1767.04Z" fill="black" fill-opacity="0.2"/>
<path d="M1801.95 831.742L1791.12 812.354L1308.3 809.909L1298.34 831.858L1801.95 831.742Z" fill="black"/>
<path d="M1801.95 831.742L1791.12 812.354L1308.3 809.909L1298.34 831.858L1801.95 831.742Z" fill="black" fill-opacity="0.2"/>
<path d="M1548.86 1325.45L1553.61 1000.13H1544.11L1548.86 1325.45Z" fill="black"/>
<path d="M1548.86 1325.45L1553.61 1000.13H1544.11L1548.86 1325.45Z" fill="black" fill-opacity="0.2"/>
<rect width="67.9884" height="12.393" transform="matrix(1 0 0 -1 1514.87 1019.76)" fill="black"/>
<rect width="67.9884" height="12.393" transform="matrix(1 0 0 -1 1514.87 1019.76)" fill="black" fill-opacity="0.2"/>
<ellipse cx="33.9942" cy="4.13101" rx="33.9942" ry="4.13101" transform="matrix(1 0 0 -1 1514.87 1023.89)" fill="black"/>
<ellipse cx="33.9942" cy="4.13101" rx="33.9942" ry="4.13101" transform="matrix(1 0 0 -1 1514.87 1023.89)" fill="black" fill-opacity="0.2"/>
<ellipse cx="33.9942" cy="9.29477" rx="33.9942" ry="9.29477" transform="matrix(1 0 0 -1 1514.87 1015.63)" fill="black"/>
<ellipse cx="33.9942" cy="9.29477" rx="33.9942" ry="9.29477" transform="matrix(1 0 0 -1 1514.87 1015.63)" fill="black" fill-opacity="0.2"/>
<rect width="26.3181" height="49.5721" transform="matrix(1 0 0 -1 1536.8 1001.17)" fill="black"/>
<rect width="26.3181" height="49.5721" transform="matrix(1 0 0 -1 1536.8 1001.17)" fill="black" fill-opacity="0.2"/>
<rect width="153.522" height="47.5066" transform="matrix(1 0 0 -1 1473.2 953.658)" fill="black"/>
<rect width="153.522" height="47.5066" transform="matrix(1 0 0 -1 1473.2 953.658)" fill="black" fill-opacity="0.2"/>
<path d="M1473.2 906.151L1461.8 954.174L1484.59 954.174L1473.2 906.151Z" fill="black"/>
<path d="M1473.2 906.151L1461.8 954.174L1484.59 954.174L1473.2 906.151Z" fill="black" fill-opacity="0.2"/>
<path d="M1626.72 906.151L1615.32 954.174L1638.12 954.174L1626.72 906.151Z" fill="black"/>
<path d="M1626.72 906.151L1615.32 954.174L1638.12 954.174L1626.72 906.151Z" fill="black" fill-opacity="0.2"/>
<ellipse cx="87.727" cy="7.22927" rx="87.727" ry="7.22927" transform="matrix(1 0 0 -1 1462.23 961.922)" fill="black"/>
<ellipse cx="87.727" cy="7.22927" rx="87.727" ry="7.22927" transform="matrix(1 0 0 -1 1462.23 961.922)" fill="black" fill-opacity="0.2"/>
<path d="M1547.77 906.151L1762.39 850.383H1333.14L1547.77 906.151Z" fill="black"/>
<path d="M1547.77 906.151L1762.39 850.383H1333.14L1547.77 906.151Z" fill="black" fill-opacity="0.2"/>
<ellipse cx="218.221" cy="72.2927" rx="218.221" ry="72.2927" transform="matrix(1 0 0 -1 1330.64 912.349)" fill="black"/>
<ellipse cx="218.221" cy="72.2927" rx="218.221" ry="72.2927" transform="matrix(1 0 0 -1 1330.64 912.349)" fill="black" fill-opacity="0.2"/>
<ellipse cx="33.9942" cy="10.3275" rx="33.9942" ry="10.3275" transform="matrix(1 0 0 -1 1297.74 844.188)" fill="black"/>
<ellipse cx="33.9942" cy="10.3275" rx="33.9942" ry="10.3275" transform="matrix(1 0 0 -1 1297.74 844.188)" fill="black" fill-opacity="0.2"/>
<ellipse cx="33.9942" cy="10.3275" rx="33.9942" ry="10.3275" transform="matrix(1 0 0 -1 1734.19 844.188)" fill="black"/>
<ellipse cx="33.9942" cy="10.3275" rx="33.9942" ry="10.3275" transform="matrix(1 0 0 -1 1734.19 844.188)" fill="black" fill-opacity="0.2"/>
<ellipse cx="123.914" cy="10.3275" rx="123.914" ry="10.3275" transform="matrix(1 0 0 -1 1543.38 821.472)" fill="black"/>
<ellipse cx="123.914" cy="10.3275" rx="123.914" ry="10.3275" transform="matrix(1 0 0 -1 1543.38 821.472)" fill="black" fill-opacity="0.2"/>
<ellipse cx="123.914" cy="10.3275" rx="123.914" ry="10.3275" transform="matrix(1 0 0 -1 1310.9 821.472)" fill="black"/>
<ellipse cx="123.914" cy="10.3275" rx="123.914" ry="10.3275" transform="matrix(1 0 0 -1 1310.9 821.472)" fill="black" fill-opacity="0.2"/>
<ellipse cx="115.142" cy="10.3275" rx="115.142" ry="10.3275" transform="matrix(1 0 0 -1 1433.72 590.133)" fill="black"/>
<ellipse cx="115.142" cy="10.3275" rx="115.142" ry="10.3275" transform="matrix(1 0 0 -1 1433.72 590.133)" fill="black" fill-opacity="0.2"/>
<rect width="151.329" height="570.079" transform="matrix(1 0 0 -1 1475.38 693.407)" fill="black"/>
<rect width="151.329" height="570.079" transform="matrix(1 0 0 -1 1475.38 693.407)" fill="black" fill-opacity="0.2"/>
<ellipse cx="5.48294" cy="2.06551" rx="5.48294" ry="2.06551" transform="matrix(1 0 0 -1 1543.38 1261.42)" fill="black"/>
<ellipse cx="5.48294" cy="2.06551" rx="5.48294" ry="2.06551" transform="matrix(1 0 0 -1 1543.38 1261.42)" fill="black" fill-opacity="0.2"/>
</svg>
