<?xml version="1.0" encoding="UTF-8" standalone="no"?>
<svg
   version="1.1"
   viewBox="0.0 0.0 816.0 1056.0"
   fill="none"
   stroke="none"
   stroke-linecap="square"
   stroke-miterlimit="10"
   id="svg26"
   sodipodi:docname="HexLogo.svg"
   inkscape:version="1.3 (0e150ed6c4, 2023-07-21)"
   xmlns:inkscape="http://www.inkscape.org/namespaces/inkscape"
   xmlns:sodipodi="http://sodipodi.sourceforge.net/DTD/sodipodi-0.dtd"
   xmlns="http://www.w3.org/2000/svg"
   xmlns:svg="http://www.w3.org/2000/svg">
  <defs
     id="defs26" />
  <sodipodi:namedview
     id="namedview26"
     pagecolor="#ffffff"
     bordercolor="#666666"
     borderopacity="1.0"
     inkscape:showpageshadow="2"
     inkscape:pageopacity="0.0"
     inkscape:pagecheckerboard="0"
     inkscape:deskcolor="#d1d1d1"
     showgrid="false"
     inkscape:zoom="0.73579545"
     inkscape:cx="407.72201"
     inkscape:cy="528"
     inkscape:window-width="1920"
     inkscape:window-height="991"
     inkscape:window-x="-9"
     inkscape:window-y="-9"
     inkscape:window-maximized="1"
     inkscape:current-layer="svg26" />
  <clipPath
     id="g31f89412baf_0_260.0">
    <path
       d="m0 0l816.0 0l0 1056.0l-816.0 0l0 -1056.0z"
       clip-rule="nonzero"
       id="path1" />
  </clipPath>
  <g
     clip-path="url(#g31f89412baf_0_260.0)"
     id="g26">
    <path
       fill="#ffffff"
       d="m198.3605 279.53018l207.87384 -120.07208l207.8743 120.01834l-0.06311035 240.05371l-207.87381 120.07208l-207.8743 -120.01831z"
       fill-rule="evenodd"
       id="path3" />
    <path
       fill="#171717"
       d="m207.97441 285.06824l198.24828 -114.522934l198.275 114.49486l-0.050842285 228.97296l-198.24826 114.52295l-198.27501 -114.49487z"
       fill-rule="evenodd"
       id="path4" />
    <path
       fill="#e81d2d"
       d="m434.1108 312.94907l-20.134674 28.076721l-20.134674 67.75882l-26.994232 28.638885l-18.084106 0.5612488l9.694672 29.57428l25.16742 0l43.997803 -42.86432l-17.002686 -20.402771l14.914703 -32.194305l55.18219 -20.214783l9.359467 -38.18454z"
       fill-rule="evenodd"
       id="path5" />
    <path
       fill="#e81d2d"
       d="m485.0059 411.05826l-49.679565 19.448792l0.21307373 38.262848l39.743195 -17.968445z"
       fill-rule="evenodd"
       id="path6" />
    <path
       fill="#e81d2d"
       d="m319.6021 476.38217l108.23682 0.21084595l-34.245697 61.096252l-60.248444 3.1693115l-18.816284 -13.316528z"
       fill-rule="evenodd"
       id="path7" />
    <path
       fill="#ffffff"
       d="m506.31406 279.57324l-21.561676 79.69946l-54.076233 19.659637l-12.473145 25.157166l14.586029 17.757599l98.724335 -37.63031z"
       fill-rule="evenodd"
       id="path8" />
    <path
       fill="#ffffff"
       d="m428.77335 433.90076l-36.78473 35.09131l37.63031 -0.4216919z"
       fill-rule="evenodd"
       id="path9" />
    <path
       fill="#ffffff"
       d="m277.87018 293.52716l-43.54727 109.29324l56.65518 17.546753l11.625336 -41.434387l-23.042023 -6.130066z"
       fill-rule="evenodd"
       id="path10" />
    <path
       fill="#e81d2d"
       d="m349.98282 306.04572l142.62985 0.68844604l12.78125 -37.879517l-43.1528 -24.926727z"
       fill-rule="evenodd"
       id="path11" />
    <path
       fill="#e81d2d"
       d="m508.7785 270.20007l9.918579 35.977844l49.712585 -0.86569214z"
       fill-rule="evenodd"
       id="path12" />
    <path
       fill="#ffffff"
       d="m243.72153 305.91803l0 187.56885l-14.552078 8.401337l-0.9174957 -204.7203z"
       fill-rule="evenodd"
       id="path13" />
    <path
       stroke="#ffffff"
       stroke-width="4.0"
       stroke-linejoin="round"
       stroke-linecap="butt"
       d="m243.72153 305.91803l0 187.56885l-14.552078 8.401337l-0.9174957 -204.7203z"
       fill-rule="evenodd"
       id="path14" />
    <path
       fill="#ffffff"
       d="m244.10588 493.98566l162.43874 93.77545l3.9672852E-4 16.802551l-177.2695 -102.53528z"
       fill-rule="evenodd"
       id="path15" />
    <path
       stroke="#ffffff"
       stroke-width="4.0"
       stroke-linejoin="round"
       stroke-linecap="butt"
       d="m244.10588 493.98566l162.43874 93.77545l3.9672852E-4 16.802551l-177.2695 -102.53528z"
       fill-rule="evenodd"
       id="path16" />
    <path
       fill="#ffffff"
       d="m569.6093 492.9939l0 -187.5509l14.550598 -8.400482l-0.17156982 204.77344z"
       fill-rule="evenodd"
       id="path17" />
    <path
       stroke="#ffffff"
       stroke-width="4.0"
       stroke-linejoin="round"
       stroke-linecap="butt"
       d="m569.6093 492.9939l0 -187.5509l14.550598 -8.400482l-0.17156982 204.77344z"
       fill-rule="evenodd"
       id="path18" />
    <path
       fill="#ffffff"
       d="m405.72595 211.42953l-162.43875 93.77545l-14.550995 -8.4021l177.44107 -102.238144z"
       fill-rule="evenodd"
       id="path19" />
    <path
       stroke="#ffffff"
       stroke-width="4.0"
       stroke-linejoin="round"
       stroke-linecap="butt"
       d="m405.72595 211.42953l-162.43875 93.77545l-14.550995 -8.4021l177.44107 -102.238144z"
       fill-rule="evenodd"
       id="path20" />
    <path
       fill="#ffffff"
       d="m568.7916 305.1304l-162.43875 -93.77545l-4.272461E-4 -16.802567l177.2695 102.53529z"
       fill-rule="evenodd"
       id="path21" />
    <path
       stroke="#ffffff"
       stroke-width="4.0"
       stroke-linejoin="round"
       stroke-linecap="butt"
       d="m568.7916 305.1304l-162.43875 -93.77545l-4.272461E-4 -16.802567l177.2695 102.53529z"
       fill-rule="evenodd"
       id="path22" />
    <path
       fill="#e81d2d"
       d="m365.6254 312.94968l59.80487 0l-18.523773 26.3042l-19.226654 66.0119l-22.576202 25.32962l-31.210907 0.7515564l-13.121002 -15.9487915l20.185028 -75.05347z"
       fill-rule="evenodd"
       id="path23" />
    <path
       fill="#e81d2d"
       d="m342.36423 312.9492l14.727417 0l-22.595337 24.520386l-21.252655 78.989136l17.599121 22.274475l11.558899 -0.18707275l8.873535 28.825958l-31.804993 0.18707275l-27.479218 -27.889618l27.964203 -101.450714z"
       fill-rule="evenodd"
       id="path24" />
    <path
       fill="#ffffff"
       d="m407.14838 587.5288l162.35095 -93.68765l14.540222 8.3992l-177.3451 102.142334z"
       fill-rule="evenodd"
       id="path25" />
    <path
       stroke="#ffffff"
       stroke-width="4.0"
       stroke-linejoin="round"
       stroke-linecap="butt"
       d="m407.14838 587.5288l162.35095 -93.68765l14.540222 8.3992l-177.3451 102.142334z"
       fill-rule="evenodd"
       id="path26" />
  </g>
</svg>
