<svg xmlns="http://www.w3.org/2000/svg" 
width="134" 
height="75" 
fill="none">
<g clip-path="url(#a)"><mask id="b" width="134" height="75" x="0" y="0" maskUnits="userSpaceOnUse" style="mask-type:luminance"><path fill="#555" d="M134 0H0v75h134V0Z"/></mask><g mask="url(#b)"><mask id="c" width="134" height="75" x="0" y="0" maskUnits="userSpaceOnUse" style="mask-type:luminance"><path fill="#fff" d="M0 0h134v75H0V0Z"/></mask><g fill="#fff" fill-rule="evenodd" clip-rule="evenodd" mask="url(#c)"><path d="m80.666-.001-36.93 20.36 33.795.174 3.1-10.04 2.996 10.127 33.412-.383L80.666 0ZM42.176 22.143h3.441l-5.278 5.699L35.374 46.2l4.111 5.178 2.7-.044 2.073 6.7-7.43.043-6.419-6.482 6.533-23.58 5.234-5.872Z"/><path d="m63.594 22.186-4.703 6.526-4.703 15.748-6.306 6.657-4.225.13 2.265 6.874H51.8l10.278-9.963-3.972-4.742 3.484-7.483 12.89-4.698 2.187-8.875-13.074-.174ZM63.943 49.264l.087 8.961 9.32-4.107 2.351-9.57-11.758 4.715Z"/><path d="M47.568 22.1h13.936l-4.268 5.829-4.53 15.574-5.26 5.873-7.273.175-3.057-3.698 4.703-17.402 5.749-6.352ZM36.855 59.948h25.433l-8.013 14.357L40.077 75l-4.355-3.132 1.133-11.92ZM62.784 37.265l-2.874 5.982 3.528 4.133 23.15-8.836-5.957-24.797-5.19 18.88-12.657 4.638ZM33.074 37.239l-2.787 9.745-13.326-4.002L27.24 16.966l.435 18.794 5.4 1.479ZM62.61 58.295v-8.553l-8.98 8.553h8.98Z"/>
</g></g></g><defs><clipPath id="a"><path d="M0 0h134v75H0z"/></clipPath></defs></svg>