<svg width="1667" height="78" viewBox="0 0 1667 78" fill="none" xmlns="http://www.w3.org/2000/svg">
<path d="M53.0941 0H1616.25L1667 39L1616.25 78H53.0941L0 39L53.0941 0Z" fill="#E31F2B"/>
<path d="M232.46 18H249.92V24H239.06V35.7H247.58V41.7H239.06V60H232.46V18ZM253.085 18H271.085V24H259.685V35.1H268.745V41.1H259.685V54H271.085V60H253.085V18ZM274.882 18H284.842C288.242 18 290.722 18.8 292.282 20.4C293.842 21.96 294.622 24.38 294.622 27.66V29.34C294.622 31.5 294.262 33.26 293.542 34.62C292.862 35.98 291.802 36.96 290.362 37.56V37.68C293.642 38.8 295.282 41.72 295.282 46.44V50.04C295.282 53.28 294.422 55.76 292.702 57.48C291.022 59.16 288.542 60 285.262 60H274.882V18ZM284.062 35.1C285.382 35.1 286.362 34.76 287.002 34.08C287.682 33.4 288.022 32.26 288.022 30.66V28.32C288.022 26.8 287.742 25.7 287.182 25.02C286.662 24.34 285.822 24 284.662 24H281.482V35.1H284.062ZM285.262 54C286.422 54 287.282 53.7 287.842 53.1C288.402 52.46 288.682 51.38 288.682 49.86V46.2C288.682 44.28 288.342 42.96 287.662 42.24C287.022 41.48 285.942 41.1 284.422 41.1H281.482V54H285.262ZM321.649 24H308.329V18H328.129V23.76L317.809 60H311.089L321.649 24ZM331.813 36H345.013V42H331.813V36ZM358.244 60.6C355.044 60.6 352.604 59.7 350.924 57.9C349.244 56.06 348.404 53.44 348.404 50.04V49.26H354.644V50.46C354.644 53.22 355.784 54.6 358.064 54.6C359.304 54.6 360.224 54.22 360.824 53.46C361.424 52.7 361.724 51.36 361.724 49.44V41.4H361.604C360.444 43.84 358.444 45.06 355.604 45.06C353.204 45.06 351.384 44.24 350.144 42.6C348.904 40.96 348.284 38.58 348.284 35.46V27.96C348.284 24.6 349.144 22 350.864 20.16C352.584 18.32 355.064 17.4 358.304 17.4C361.544 17.4 364.024 18.32 365.744 20.16C367.464 22 368.324 24.6 368.324 27.96V49.68C368.324 56.96 364.964 60.6 358.244 60.6ZM358.304 39.06C360.584 39.06 361.724 37.68 361.724 34.92V27.48C361.724 24.76 360.584 23.4 358.304 23.4C356.024 23.4 354.884 24.76 354.884 27.48V34.92C354.884 37.68 356.024 39.06 358.304 39.06ZM375.128 60H372.968V53.64H379.328V59.34L376.028 67.2H372.968L375.128 60ZM393.766 55.44C393.766 52.44 394.246 49.88 395.206 47.76C396.166 45.6 397.886 43.22 400.366 40.62C402.806 38.02 404.486 35.8 405.406 33.96C406.366 32.12 406.846 30.2 406.846 28.2C406.846 26.4 406.546 25.16 405.946 24.48C405.386 23.76 404.546 23.4 403.426 23.4C401.146 23.4 400.006 24.78 400.006 27.54V32.04H393.766V27.96C393.766 24.56 394.606 21.96 396.286 20.16C397.966 18.32 400.406 17.4 403.606 17.4C406.806 17.4 409.246 18.32 410.926 20.16C412.606 21.96 413.446 24.56 413.446 27.96C413.446 30.52 412.826 33.02 411.586 35.46C410.386 37.9 408.286 40.7 405.286 43.86C403.326 45.94 402.006 47.64 401.326 48.96C400.646 50.24 400.306 51.62 400.306 53.1V54H412.846V60H393.766V55.44ZM427.449 60.6C424.209 60.6 421.729 59.68 420.009 57.84C418.289 56 417.429 53.4 417.429 50.04V27.96C417.429 24.6 418.289 22 420.009 20.16C421.729 18.32 424.209 17.4 427.449 17.4C430.689 17.4 433.169 18.32 434.889 20.16C436.609 22 437.469 24.6 437.469 27.96V50.04C437.469 53.4 436.609 56 434.889 57.84C433.169 59.68 430.689 60.6 427.449 60.6ZM427.449 54.6C429.729 54.6 430.869 53.22 430.869 50.46V27.54C430.869 24.78 429.729 23.4 427.449 23.4C425.169 23.4 424.029 24.78 424.029 27.54V50.46C424.029 53.22 425.169 54.6 427.449 54.6ZM441.813 55.44C441.813 52.44 442.293 49.88 443.253 47.76C444.213 45.6 445.933 43.22 448.413 40.62C450.853 38.02 452.533 35.8 453.453 33.96C454.413 32.12 454.893 30.2 454.893 28.2C454.893 26.4 454.593 25.16 453.993 24.48C453.433 23.76 452.593 23.4 451.473 23.4C449.193 23.4 448.053 24.78 448.053 27.54V32.04H441.813V27.96C441.813 24.56 442.653 21.96 444.333 20.16C446.013 18.32 448.453 17.4 451.653 17.4C454.853 17.4 457.293 18.32 458.973 20.16C460.653 21.96 461.493 24.56 461.493 27.96C461.493 30.52 460.873 33.02 459.633 35.46C458.433 37.9 456.333 40.7 453.333 43.86C451.373 45.94 450.053 47.64 449.373 48.96C448.693 50.24 448.353 51.62 448.353 53.1V54H460.893V60H441.813V55.44ZM475.616 60.6C472.416 60.6 469.976 59.7 468.296 57.9C466.616 56.06 465.776 53.44 465.776 50.04V46.74H472.016V50.52C472.016 53.24 473.156 54.6 475.436 54.6C477.716 54.6 478.856 53.24 478.856 50.52V41.1C478.856 38.34 477.716 36.96 475.436 36.96C473.156 36.96 472.016 38.34 472.016 41.1V41.46H465.776L466.976 18H484.376V24H472.856L472.316 34.02H472.436C473.676 31.98 475.576 30.96 478.136 30.96C480.536 30.96 482.356 31.78 483.596 33.42C484.836 35.06 485.456 37.44 485.456 40.56V50.04C485.456 53.44 484.616 56.06 482.936 57.9C481.256 59.7 478.816 60.6 475.616 60.6Z" fill="white"/>
<path d="M180.583 36.917H184.75V41.0837H180.583V36.917ZM180.583 45.2503H184.75V49.417H180.583V45.2503ZM188.916 36.917H193.083V41.0837H188.916V36.917ZM188.916 45.2503H193.083V49.417H188.916V45.2503ZM197.25 36.917H201.416V41.0837H197.25V36.917ZM197.25 45.2503H201.416V49.417H197.25V45.2503Z" fill="white"/>
<path d="M176.417 59.8337H205.583C207.881 59.8337 209.75 57.9649 209.75 55.667V26.5003C209.75 24.2024 207.881 22.3337 205.583 22.3337H201.417V18.167H197.25V22.3337H184.75V18.167H180.583V22.3337H176.417C174.119 22.3337 172.25 24.2024 172.25 26.5003V55.667C172.25 57.9649 174.119 59.8337 176.417 59.8337ZM205.583 30.667L205.585 55.667H176.417V30.667H205.583Z" fill="white"/>
<path d="M691.46 18H701.42C704.82 18 707.3 18.8 708.86 20.4C710.42 21.96 711.2 24.38 711.2 27.66V29.34C711.2 31.5 710.84 33.26 710.12 34.62C709.44 35.98 708.38 36.96 706.94 37.56V37.68C710.22 38.8 711.86 41.72 711.86 46.44V50.04C711.86 53.28 711 55.76 709.28 57.48C707.6 59.16 705.12 60 701.84 60H691.46V18ZM700.64 35.1C701.96 35.1 702.94 34.76 703.58 34.08C704.26 33.4 704.6 32.26 704.6 30.66V28.32C704.6 26.8 704.32 25.7 703.76 25.02C703.24 24.34 702.4 24 701.24 24H698.06V35.1H700.64ZM701.84 54C703 54 703.86 53.7 704.42 53.1C704.98 52.46 705.26 51.38 705.26 49.86V46.2C705.26 44.28 704.92 42.96 704.24 42.24C703.6 41.48 702.52 41.1 701 41.1H698.06V54H701.84ZM715.718 18H725.138L729.338 48.06H729.458L733.658 18H743.078V60H736.838V28.2H736.718L731.918 60H726.398L721.598 28.2H721.478V60H715.718V18ZM757.543 60.6C754.303 60.6 751.823 59.68 750.103 57.84C748.383 56 747.523 53.4 747.523 50.04V27.96C747.523 24.6 748.383 22 750.103 20.16C751.823 18.32 754.303 17.4 757.543 17.4C760.783 17.4 763.263 18.32 764.983 20.16C766.703 22 767.563 24.6 767.563 27.96V50.04C767.563 53.4 766.703 56 764.983 57.84C763.263 59.68 760.783 60.6 757.543 60.6ZM757.543 54.6C759.823 54.6 760.963 53.22 760.963 50.46V27.54C760.963 24.78 759.823 23.4 757.543 23.4C755.263 23.4 754.123 24.78 754.123 27.54V50.46C754.123 53.22 755.263 54.6 757.543 54.6ZM790.936 60.6C787.776 60.6 785.356 59.7 783.676 57.9C782.036 56.1 781.216 53.56 781.216 50.28V27.72C781.216 24.44 782.036 21.9 783.676 20.1C785.356 18.3 787.776 17.4 790.936 17.4C794.096 17.4 796.496 18.3 798.136 20.1C799.816 21.9 800.656 24.44 800.656 27.72V32.16H794.416V27.3C794.416 24.7 793.316 23.4 791.116 23.4C788.916 23.4 787.816 24.7 787.816 27.3V50.76C787.816 53.32 788.916 54.6 791.116 54.6C793.316 54.6 794.416 53.32 794.416 50.76V44.34H800.656V50.28C800.656 53.56 799.816 56.1 798.136 57.9C796.496 59.7 794.096 60.6 790.936 60.6ZM804.605 18H822.605V24H811.205V35.1H820.265V41.1H811.205V54H822.605V60H804.605V18ZM826.401 18H834.681L841.101 43.14H841.221V18H847.101V60H840.321L832.401 29.34H832.281V60H826.401V18ZM857.167 24H850.267V18H870.667V24H863.767V60H857.167V24ZM873.862 18H883.642C887.042 18 889.522 18.8 891.082 20.4C892.642 21.96 893.422 24.38 893.422 27.66V30.24C893.422 34.6 891.982 37.36 889.102 38.52V38.64C890.702 39.12 891.822 40.1 892.462 41.58C893.142 43.06 893.482 45.04 893.482 47.52V54.9C893.482 56.1 893.522 57.08 893.602 57.84C893.682 58.56 893.882 59.28 894.202 60H887.482C887.242 59.32 887.082 58.68 887.002 58.08C886.922 57.48 886.882 56.4 886.882 54.84V47.16C886.882 45.24 886.562 43.9 885.922 43.14C885.322 42.38 884.262 42 882.742 42H880.462V60H873.862V18ZM882.862 36C884.182 36 885.162 35.66 885.802 34.98C886.482 34.3 886.822 33.16 886.822 31.56V28.32C886.822 26.8 886.542 25.7 885.982 25.02C885.462 24.34 884.622 24 883.462 24H880.462V36H882.862ZM898.062 18H916.062V24H904.662V35.1H913.722V41.1H904.662V54H916.062V60H898.062V18ZM922.311 60H920.151V53.64H926.511V59.34L923.211 67.2H920.151L922.311 60ZM940.949 55.44C940.949 52.44 941.429 49.88 942.389 47.76C943.349 45.6 945.069 43.22 947.549 40.62C949.989 38.02 951.669 35.8 952.589 33.96C953.549 32.12 954.029 30.2 954.029 28.2C954.029 26.4 953.729 25.16 953.129 24.48C952.569 23.76 951.729 23.4 950.609 23.4C948.329 23.4 947.189 24.78 947.189 27.54V32.04H940.949V27.96C940.949 24.56 941.789 21.96 943.469 20.16C945.149 18.32 947.589 17.4 950.789 17.4C953.989 17.4 956.429 18.32 958.109 20.16C959.789 21.96 960.629 24.56 960.629 27.96C960.629 30.52 960.009 33.02 958.769 35.46C957.569 37.9 955.469 40.7 952.469 43.86C950.509 45.94 949.189 47.64 948.509 48.96C947.829 50.24 947.489 51.62 947.489 53.1V54H960.029V60H940.949V55.44ZM974.633 60.6C971.393 60.6 968.913 59.68 967.193 57.84C965.473 56 964.613 53.4 964.613 50.04V27.96C964.613 24.6 965.473 22 967.193 20.16C968.913 18.32 971.393 17.4 974.633 17.4C977.873 17.4 980.353 18.32 982.073 20.16C983.793 22 984.653 24.6 984.653 27.96V50.04C984.653 53.4 983.793 56 982.073 57.84C980.353 59.68 977.873 60.6 974.633 60.6ZM974.633 54.6C976.913 54.6 978.053 53.22 978.053 50.46V27.54C978.053 24.78 976.913 23.4 974.633 23.4C972.353 23.4 971.213 24.78 971.213 27.54V50.46C971.213 53.22 972.353 54.6 974.633 54.6ZM998.726 18H1008.51C1011.91 18 1014.39 18.8 1015.95 20.4C1017.51 21.96 1018.29 24.38 1018.29 27.66V30.24C1018.29 34.6 1016.85 37.36 1013.97 38.52V38.64C1015.57 39.12 1016.69 40.1 1017.33 41.58C1018.01 43.06 1018.35 45.04 1018.35 47.52V54.9C1018.35 56.1 1018.39 57.08 1018.47 57.84C1018.55 58.56 1018.75 59.28 1019.07 60H1012.35C1012.11 59.32 1011.95 58.68 1011.87 58.08C1011.79 57.48 1011.75 56.4 1011.75 54.84V47.16C1011.75 45.24 1011.43 43.9 1010.79 43.14C1010.19 42.38 1009.13 42 1007.61 42H1005.33V60H998.726V18ZM1007.73 36C1009.05 36 1010.03 35.66 1010.67 34.98C1011.35 34.3 1011.69 33.16 1011.69 31.56V28.32C1011.69 26.8 1011.41 25.7 1010.85 25.02C1010.33 24.34 1009.49 24 1008.33 24H1005.33V36H1007.73ZM1032.46 60.6C1029.22 60.6 1026.74 59.68 1025.02 57.84C1023.3 56 1022.44 53.4 1022.44 50.04V27.96C1022.44 24.6 1023.3 22 1025.02 20.16C1026.74 18.32 1029.22 17.4 1032.46 17.4C1035.7 17.4 1038.18 18.32 1039.9 20.16C1041.62 22 1042.48 24.6 1042.48 27.96V50.04C1042.48 53.4 1041.62 56 1039.9 57.84C1038.18 59.68 1035.7 60.6 1032.46 60.6ZM1032.46 54.6C1034.74 54.6 1035.88 53.22 1035.88 50.46V27.54C1035.88 24.78 1034.74 23.4 1032.46 23.4C1030.18 23.4 1029.04 24.78 1029.04 27.54V50.46C1029.04 53.22 1030.18 54.6 1032.46 54.6ZM1056.55 60.6C1053.35 60.6 1050.91 59.7 1049.23 57.9C1047.55 56.06 1046.71 53.44 1046.71 50.04V18H1053.31V50.52C1053.31 51.96 1053.59 53 1054.15 53.64C1054.75 54.28 1055.59 54.6 1056.67 54.6C1057.75 54.6 1058.57 54.28 1059.13 53.64C1059.73 53 1060.03 51.96 1060.03 50.52V18H1066.39V50.04C1066.39 53.44 1065.55 56.06 1063.87 57.9C1062.19 59.7 1059.75 60.6 1056.55 60.6ZM1071.09 18H1079.37L1085.79 43.14H1085.91V18H1091.79V60H1085.01L1077.09 29.34H1076.97V60H1071.09V18ZM1096.69 18H1106.77C1110.05 18 1112.51 18.88 1114.15 20.64C1115.79 22.4 1116.61 24.98 1116.61 28.38V49.62C1116.61 53.02 1115.79 55.6 1114.15 57.36C1112.51 59.12 1110.05 60 1106.77 60H1096.69V18ZM1106.65 54C1107.73 54 1108.55 53.68 1109.11 53.04C1109.71 52.4 1110.01 51.36 1110.01 49.92V28.08C1110.01 26.64 1109.71 25.6 1109.11 24.96C1108.55 24.32 1107.73 24 1106.65 24H1103.29V54H1106.65ZM1130.67 60.6C1127.47 60.6 1125.03 59.7 1123.35 57.9C1121.67 56.06 1120.83 53.44 1120.83 50.04V18H1127.43V50.52C1127.43 51.96 1127.71 53 1128.27 53.64C1128.87 54.28 1129.71 54.6 1130.79 54.6C1131.87 54.6 1132.69 54.28 1133.25 53.64C1133.85 53 1134.15 51.96 1134.15 50.52V18H1140.51V50.04C1140.51 53.44 1139.67 56.06 1137.99 57.9C1136.31 59.7 1133.87 60.6 1130.67 60.6ZM1145.21 18H1154.93C1158.21 18 1160.67 18.88 1162.31 20.64C1163.95 22.4 1164.77 24.98 1164.77 28.38V32.52C1164.77 35.92 1163.95 38.5 1162.31 40.26C1160.67 42.02 1158.21 42.9 1154.93 42.9H1151.81V60H1145.21V18ZM1154.93 36.9C1156.01 36.9 1156.81 36.6 1157.33 36C1157.89 35.4 1158.17 34.38 1158.17 32.94V27.96C1158.17 26.52 1157.89 25.5 1157.33 24.9C1156.81 24.3 1156.01 24 1154.93 24H1151.81V36.9H1154.93ZM1176.4 18H1182.76L1185.7 50.28H1185.82L1188.94 18H1196.14L1199.26 50.28H1199.38L1202.32 18H1208.02L1203.76 60H1195.54L1192.54 31.68H1192.42L1189.42 60H1180.66L1176.4 18ZM1215.64 18H1224.58L1231.42 60H1224.82L1223.62 51.66V51.78H1216.12L1214.92 60H1208.8L1215.64 18ZM1222.84 46.08L1219.9 25.32H1219.78L1216.9 46.08H1222.84ZM1237.93 42.12L1229.95 18H1236.97L1241.47 33.42H1241.59L1246.09 18H1252.51L1244.53 42.12V60H1237.93V42.12ZM1252.08 60H1249.92V53.64H1256.28V59.34L1252.98 67.2H1249.92L1252.08 60ZM1279.42 60.6C1276.22 60.6 1273.8 59.7 1272.16 57.9C1270.52 56.06 1269.7 53.44 1269.7 50.04V47.64H1275.94V50.52C1275.94 53.24 1277.08 54.6 1279.36 54.6C1280.48 54.6 1281.32 54.28 1281.88 53.64C1282.48 52.96 1282.78 51.88 1282.78 50.4C1282.78 48.64 1282.38 47.1 1281.58 45.78C1280.78 44.42 1279.3 42.8 1277.14 40.92C1274.42 38.52 1272.52 36.36 1271.44 34.44C1270.36 32.48 1269.82 30.28 1269.82 27.84C1269.82 24.52 1270.66 21.96 1272.33 20.16C1274.02 18.32 1276.46 17.4 1279.66 17.4C1282.82 17.4 1285.2 18.32 1286.8 20.16C1288.44 21.96 1289.26 24.56 1289.26 27.96V29.7H1283.02V27.54C1283.02 26.1 1282.74 25.06 1282.18 24.42C1281.62 23.74 1280.8 23.4 1279.72 23.4C1277.52 23.4 1276.42 24.74 1276.42 27.42C1276.42 28.94 1276.82 30.36 1277.62 31.68C1278.46 33 1279.96 34.6 1282.12 36.48C1284.88 38.88 1286.78 41.06 1287.82 43.02C1288.86 44.98 1289.38 47.28 1289.38 49.92C1289.38 53.36 1288.52 56 1286.8 57.84C1285.12 59.68 1282.66 60.6 1279.42 60.6ZM1293.16 18H1311.16V24H1299.76V35.1H1308.82V41.1H1299.76V54H1311.16V60H1293.16V18ZM1317.41 60H1315.25V53.64H1321.61V59.34L1318.31 67.2H1315.25L1317.41 60ZM1341.33 24H1334.43V18H1354.83V24H1347.93V60H1341.33V24ZM1357.9 55.44C1357.9 52.44 1358.38 49.88 1359.34 47.76C1360.3 45.6 1362.02 43.22 1364.5 40.62C1366.94 38.02 1368.62 35.8 1369.54 33.96C1370.5 32.12 1370.98 30.2 1370.98 28.2C1370.98 26.4 1370.68 25.16 1370.08 24.48C1369.52 23.76 1368.68 23.4 1367.56 23.4C1365.28 23.4 1364.14 24.78 1364.14 27.54V32.04H1357.9V27.96C1357.9 24.56 1358.74 21.96 1360.42 20.16C1362.1 18.32 1364.54 17.4 1367.74 17.4C1370.94 17.4 1373.38 18.32 1375.06 20.16C1376.74 21.96 1377.58 24.56 1377.58 27.96C1377.58 30.52 1376.96 33.02 1375.72 35.46C1374.52 37.9 1372.42 40.7 1369.42 43.86C1367.46 45.94 1366.14 47.64 1365.46 48.96C1364.78 50.24 1364.44 51.62 1364.44 53.1V54H1376.98V60H1357.9V55.44ZM1391.41 60.6C1388.21 60.6 1385.77 59.7 1384.09 57.9C1382.41 56.06 1381.57 53.44 1381.57 50.04V27.96C1381.57 24.56 1382.41 21.96 1384.09 20.16C1385.77 18.32 1388.21 17.4 1391.41 17.4C1394.61 17.4 1397.05 18.32 1398.73 20.16C1400.41 21.96 1401.25 24.56 1401.25 27.96V31.56H1395.01V27.54C1395.01 24.78 1393.87 23.4 1391.59 23.4C1389.31 23.4 1388.17 24.78 1388.17 27.54V50.52C1388.17 53.24 1389.31 54.6 1391.59 54.6C1393.87 54.6 1395.01 53.24 1395.01 50.52V42.3H1391.71V36.3H1401.25V50.04C1401.25 53.44 1400.41 56.06 1398.73 57.9C1397.05 59.7 1394.61 60.6 1391.41 60.6ZM1414.97 55.44C1414.97 52.44 1415.45 49.88 1416.41 47.76C1417.37 45.6 1419.09 43.22 1421.57 40.62C1424.01 38.02 1425.69 35.8 1426.61 33.96C1427.57 32.12 1428.05 30.2 1428.05 28.2C1428.05 26.4 1427.75 25.16 1427.15 24.48C1426.59 23.76 1425.75 23.4 1424.63 23.4C1422.35 23.4 1421.21 24.78 1421.21 27.54V32.04H1414.97V27.96C1414.97 24.56 1415.81 21.96 1417.49 20.16C1419.17 18.32 1421.61 17.4 1424.81 17.4C1428.01 17.4 1430.45 18.32 1432.13 20.16C1433.81 21.96 1434.65 24.56 1434.65 27.96C1434.65 30.52 1434.03 33.02 1432.79 35.46C1431.59 37.9 1429.49 40.7 1426.49 43.86C1424.53 45.94 1423.21 47.64 1422.53 48.96C1421.85 50.24 1421.51 51.62 1421.51 53.1V54H1434.05V60H1414.97V55.44ZM1437.56 18H1443.92L1446.86 50.28H1446.98L1450.1 18H1457.3L1460.42 50.28H1460.54L1463.48 18H1469.18L1464.92 60H1456.7L1453.7 31.68H1453.58L1450.58 60H1441.82L1437.56 18ZM1481.75 27.96H1474.85V23.28C1476.73 23.28 1478.23 23.12 1479.35 22.8C1480.51 22.48 1481.43 21.96 1482.11 21.24C1482.79 20.48 1483.39 19.4 1483.91 18H1488.35V60H1481.75V27.96Z" fill="white"/>
<path d="M649.5 43.0833C654.555 43.0833 658.666 38.9721 658.666 33.9167C658.666 28.8612 654.555 24.75 649.5 24.75C644.444 24.75 640.333 28.8612 640.333 33.9167C640.333 38.9721 644.444 43.0833 649.5 43.0833ZM649.5 29.3333C652.027 29.3333 654.083 31.389 654.083 33.9167C654.083 36.4444 652.027 38.5 649.5 38.5C646.972 38.5 644.916 36.4444 644.916 33.9167C644.916 31.389 646.972 29.3333 649.5 29.3333Z" fill="white"/>
<path d="M648.17 60.9901C648.559 61.2664 649.023 61.4149 649.5 61.4149C649.976 61.4149 650.441 61.2664 650.829 60.9901C651.525 60.4974 667.899 48.6747 667.833 33.9163C667.833 23.8078 659.608 15.583 649.5 15.583C639.391 15.583 631.166 23.8078 631.166 33.9049C631.1 48.6747 647.474 60.4974 648.17 60.9901ZM649.5 20.1663C657.083 20.1663 663.25 26.3332 663.25 33.9278C663.298 44.0982 653.194 53.2305 649.5 56.2257C645.808 53.2282 635.701 44.0936 635.75 33.9163C635.75 26.3332 641.916 20.1663 649.5 20.1663Z" fill="white"/>
</svg>
