<svg width="69" height="69" viewBox="0 0 69 69" fill="none" xmlns="http://www.w3.org/2000/svg">
<path d="M34.5 40.25C40.8422 40.25 46 35.0922 46 28.75C46 22.4077 40.8422 17.25 34.5 17.25C28.1577 17.25 23 22.4077 23 28.75C23 35.0922 28.1577 40.25 34.5 40.25ZM34.5 23C37.6711 23 40.25 25.5789 40.25 28.75C40.25 31.9211 37.6711 34.5 34.5 34.5C31.3289 34.5 28.75 31.9211 28.75 28.75C28.75 25.5789 31.3289 23 34.5 23Z" fill="#111111"/>
<path d="M32.8328 62.7152C33.3197 63.0619 33.9025 63.2482 34.5003 63.2482C35.098 63.2482 35.6808 63.0619 36.1678 62.7152C37.0418 62.0971 57.5836 47.265 57.5003 28.75C57.5003 16.0684 47.1819 5.75 34.5003 5.75C21.8186 5.75 11.5003 16.0684 11.5003 28.7356C11.4169 47.265 31.9588 62.0971 32.8328 62.7152ZM34.5003 11.5C44.0136 11.5 51.7503 19.2366 51.7503 28.7644C51.8106 41.5236 39.1348 52.9805 34.5003 56.7381C29.8686 52.9776 17.1899 41.5179 17.2503 28.75C17.2503 19.2366 24.9869 11.5 34.5003 11.5Z" fill="#111111"/>
</svg>
