<svg width="68" height="68" viewBox="0 0 68 68" fill="none" xmlns="http://www.w3.org/2000/svg">
<path d="M19.8333 59.5V53.8333H31.1667V45.05C28.8528 44.5306 26.7873 43.5512 24.9702 42.1118C23.1531 40.6725 21.8186 38.8658 20.9667 36.6917C17.425 36.2667 14.4623 34.7206 12.0785 32.0535C9.69472 29.3864 8.50189 26.2574 8.5 22.6667V19.8333C8.5 18.275 9.05533 16.9414 10.166 15.8327C11.2767 14.7239 12.6102 14.1686 14.1667 14.1667H19.8333V8.5H48.1667V14.1667H53.8333C55.3917 14.1667 56.7262 14.722 57.8368 15.8327C58.9475 16.9433 59.5019 18.2769 59.5 19.8333V22.6667C59.5 26.2556 58.3072 29.3845 55.9215 32.0535C53.5358 34.7225 50.5731 36.2686 47.0333 36.6917C46.1833 38.8639 44.8498 40.6706 43.0327 42.1118C41.2156 43.5531 39.1491 44.5324 36.8333 45.05V53.8333H48.1667V59.5H19.8333ZM19.8333 30.6V19.8333H14.1667V22.6667C14.1667 24.4611 14.6861 26.0789 15.725 27.5202C16.7639 28.9614 18.1333 29.988 19.8333 30.6ZM48.1667 30.6C49.8667 29.9861 51.2361 28.9586 52.275 27.5173C53.3139 26.0761 53.8333 24.4592 53.8333 22.6667V19.8333H48.1667V30.6Z" fill="#ffffff"/>
</svg>
