<svg width="39" height="39" viewBox="0 0 39 39" fill="none" xmlns="http://www.w3.org/2000/svg">
<path d="M17.875 9.75C18.306 9.75 18.7193 9.92121 19.024 10.226C19.3288 10.5307 19.5 10.944 19.5 11.375C19.5 11.806 19.3288 12.2193 19.024 12.524C18.7193 12.8288 18.306 13 17.875 13H8.125V30.875H26V21.125C26 20.694 26.1712 20.2807 26.476 19.976C26.7807 19.6712 27.194 19.5 27.625 19.5C28.056 19.5 28.4693 19.6712 28.774 19.976C29.0788 20.2807 29.25 20.694 29.25 21.125V30.875C29.25 31.737 28.9076 32.5636 28.2981 33.1731C27.6886 33.7826 26.862 34.125 26 34.125H8.125C7.26305 34.125 6.4364 33.7826 5.8269 33.1731C5.21741 32.5636 4.875 31.737 4.875 30.875V13C4.875 12.138 5.21741 11.3114 5.8269 10.7019C6.4364 10.0924 7.26305 9.75 8.125 9.75H17.875ZM32.5 4.875C32.931 4.875 33.3443 5.0462 33.649 5.35095C33.9538 5.6557 34.125 6.06902 34.125 6.5V14.625C34.125 15.056 33.9538 15.4693 33.649 15.774C33.3443 16.0788 32.931 16.25 32.5 16.25C32.069 16.25 31.6557 16.0788 31.351 15.774C31.0462 15.4693 30.875 15.056 30.875 14.625V10.4227L17.3989 23.8989C17.0924 24.1949 16.6819 24.3587 16.2558 24.355C15.8298 24.3513 15.4222 24.1804 15.1209 23.8791C14.8196 23.5778 14.6487 23.1702 14.645 22.7442C14.6413 22.3181 14.8051 21.9076 15.1011 21.6011L28.5773 8.125H24.375C23.944 8.125 23.5307 7.95379 23.226 7.64905C22.9212 7.3443 22.75 6.93098 22.75 6.5C22.75 6.06902 22.9212 5.6557 23.226 5.35095C23.5307 5.0462 23.944 4.875 24.375 4.875H32.5Z" fill="#ffffff"/>
</svg>
