<svg width="59" height="59" viewBox="0 0 59 59" fill="none" xmlns="http://www.w3.org/2000/svg">
<path d="M27.0416 41.7917H31.9583V27.0417H27.0416V41.7917ZM29.5 22.125C30.1965 22.125 30.7808 21.889 31.2528 21.417C31.7248 20.945 31.9599 20.3615 31.9583 19.6667C31.9567 18.9718 31.7207 18.3883 31.2503 17.9163C30.7799 17.4443 30.1965 17.2083 29.5 17.2083C28.8034 17.2083 28.22 17.4443 27.7496 17.9163C27.2793 18.3883 27.0433 18.9718 27.0416 19.6667C27.04 20.3615 27.276 20.9458 27.7496 21.4195C28.2233 21.8931 28.8067 22.1283 29.5 22.125ZM29.5 54.0833C26.0993 54.0833 22.9034 53.4376 19.9125 52.1462C16.9215 50.8547 14.3198 49.1036 12.1073 46.8927C9.89475 44.6818 8.1436 42.0801 6.8538 39.0875C5.56399 36.0949 4.91827 32.899 4.91663 29.5C4.91499 26.1009 5.56071 22.9051 6.8538 19.9125C8.14688 16.9199 9.89803 14.3181 12.1073 12.1073C14.3165 9.89642 16.9182 8.14527 19.9125 6.85382C22.9067 5.56238 26.1025 4.91666 29.5 4.91666C32.8974 4.91666 36.0932 5.56238 39.0875 6.85382C42.0817 8.14527 44.6834 9.89642 46.8927 12.1073C49.1019 14.3181 50.8539 16.9199 52.1486 19.9125C53.4433 22.9051 54.0882 26.1009 54.0833 29.5C54.0784 32.899 53.4327 36.0949 52.1461 39.0875C50.8596 42.0801 49.1085 44.6818 46.8927 46.8927C44.6769 49.1036 42.0752 50.8555 39.0875 52.1486C36.0998 53.4417 32.9039 54.0866 29.5 54.0833ZM29.5 49.1667C34.9902 49.1667 39.6406 47.2614 43.451 43.451C47.2614 39.6406 49.1666 34.9903 49.1666 29.5C49.1666 24.0097 47.2614 19.3594 43.451 15.5489C39.6406 11.7385 34.9902 9.83332 29.5 9.83332C24.0097 9.83332 19.3593 11.7385 15.5489 15.5489C11.7385 19.3594 9.8333 24.0097 9.8333 29.5C9.8333 34.9903 11.7385 39.6406 15.5489 43.451C19.3593 47.2614 24.0097 49.1667 29.5 49.1667Z" fill="#ffffff"/>
</svg>
