<svg width="58" height="58" viewBox="0 0 58 58" fill="none" xmlns="http://www.w3.org/2000/svg">
<path d="M51.3252 41.0833L47.1395 48.3333C46.7486 49.0101 46.1994 49.582 45.539 49.9999C44.8786 50.4179 44.1267 50.6694 43.3478 50.7331L42.9515 50.75H15.0462C14.442 50.7484 13.8653 50.6413 13.3159 50.4286L12.9171 50.2546L18.2096 41.0833H51.3252ZM20.7278 8.06925L26.2088 17.5643L9.65462 46.2405L5.27804 38.6667C4.85382 37.9319 4.63049 37.0984 4.63049 36.25C4.63049 35.4016 4.85382 34.5681 5.27804 33.8333L19.2319 9.66667C19.6089 9.01417 20.1236 8.47283 20.7278 8.06925ZM34.5801 7.25C35.3616 7.2496 36.1315 7.43871 36.8239 7.8011C37.5163 8.1635 38.1105 8.68838 38.5555 9.33075L38.7634 9.66667L52.7172 33.8333C53.0773 34.4568 53.2875 35.1383 53.3455 35.8343L53.3649 36.25H42.5769L25.8342 7.25H34.5801ZM29 22.3977L36.9992 36.25H21.0009L29 22.3977Z" fill="#ffffff"/>
</svg>
