<svg width="50" height="50" viewBox="0 0 50 50" fill="none" xmlns="http://www.w3.org/2000/svg">
<path d="M24.9999 32.292C23.066 32.292 21.2114 31.5238 19.8439 30.1563C18.4765 28.7889 17.7082 26.9342 17.7082 25.0003C17.7082 23.0665 18.4765 21.2118 19.8439 19.8443C21.2114 18.4769 23.066 17.7087 24.9999 17.7087C26.9338 17.7087 28.7884 18.4769 30.1559 19.8443C31.5233 21.2118 32.2916 23.0665 32.2916 25.0003C32.2916 26.9342 31.5233 28.7889 30.1559 30.1563C28.7884 31.5238 26.9338 32.292 24.9999 32.292ZM40.4791 27.0212C40.5624 26.3545 40.6249 25.6878 40.6249 25.0003C40.6249 24.3128 40.5624 23.6253 40.4791 22.917L44.8749 19.5212C45.2707 19.2087 45.3749 18.6462 45.1249 18.1878L40.9582 10.9795C40.7082 10.5212 40.1457 10.3337 39.6874 10.5212L34.4999 12.6045C33.4166 11.792 32.2916 11.0837 30.9791 10.5628L30.2082 5.042C30.1659 4.79662 30.0381 4.57414 29.8474 4.41398C29.6568 4.25382 29.4156 4.16633 29.1666 4.167H20.8332C20.3124 4.167 19.8749 4.542 19.7916 5.042L19.0207 10.5628C17.7082 11.0837 16.5832 11.792 15.4999 12.6045L10.3124 10.5212C9.85408 10.3337 9.29158 10.5212 9.04158 10.9795L4.87491 18.1878C4.60408 18.6462 4.72908 19.2087 5.12491 19.5212L9.52074 22.917C9.43741 23.6253 9.37491 24.3128 9.37491 25.0003C9.37491 25.6878 9.43741 26.3545 9.52074 27.0212L5.12491 30.4795C4.72908 30.792 4.60408 31.3545 4.87491 31.8128L9.04158 39.0212C9.29158 39.4795 9.85408 39.6462 10.3124 39.4795L15.4999 37.3753C16.5832 38.2087 17.7082 38.917 19.0207 39.4378L19.7916 44.9587C19.8749 45.4587 20.3124 45.8337 20.8332 45.8337H29.1666C29.6874 45.8337 30.1249 45.4587 30.2082 44.9587L30.9791 39.4378C32.2916 38.8962 33.4166 38.2087 34.4999 37.3753L39.6874 39.4795C40.1457 39.6462 40.7082 39.4795 40.9582 39.0212L45.1249 31.8128C45.3749 31.3545 45.2707 30.792 44.8749 30.4795L40.4791 27.0212Z" fill="black"/>
</svg>
