<svg width="4433" height="280" viewBox="0 0 4433 280" fill="none" xmlns="http://www.w3.org/2000/svg">
<path d="M111 -1.90735e-05H149L38.6 280H0.6L111 -1.90735e-05ZM210.609 -1.90735e-05H248.609L138.209 280H100.209L210.609 -1.90735e-05ZM310.219 -1.90735e-05H348.219L237.819 280H199.819L310.219 -1.90735e-05ZM409.828 -1.90735e-05H447.828L337.428 280H299.428L409.828 -1.90735e-05ZM509.438 -1.90735e-05H547.438L437.038 280H399.038L509.438 -1.90735e-05ZM609.047 -1.90735e-05H647.047L536.647 280H498.647L609.047 -1.90735e-05ZM708.656 -1.90735e-05H746.656L636.256 280H598.256L708.656 -1.90735e-05ZM808.266 -1.90735e-05H846.266L735.866 280H697.866L808.266 -1.90735e-05ZM907.875 -1.90735e-05H945.875L835.475 280H797.475L907.875 -1.90735e-05ZM1007.48 -1.90735e-05H1045.48L935.084 280H897.084L1007.48 -1.90735e-05ZM1107.09 -1.90735e-05H1145.09L1034.69 280H996.694L1107.09 -1.90735e-05ZM1206.7 -1.90735e-05H1244.7L1134.3 280H1096.3L1206.7 -1.90735e-05ZM1306.31 -1.90735e-05H1344.31L1233.91 280H1195.91L1306.31 -1.90735e-05ZM1405.92 -1.90735e-05H1443.92L1333.52 280H1295.52L1405.92 -1.90735e-05ZM1505.53 -1.90735e-05H1543.53L1433.13 280H1395.13L1505.53 -1.90735e-05ZM1605.14 -1.90735e-05H1643.14L1532.74 280H1494.74L1605.14 -1.90735e-05ZM1704.75 -1.90735e-05H1742.75L1632.35 280H1594.35L1704.75 -1.90735e-05ZM1804.36 -1.90735e-05H1842.36L1731.96 280H1693.96L1804.36 -1.90735e-05ZM1903.97 -1.90735e-05H1941.97L1831.57 280H1793.57L1903.97 -1.90735e-05ZM2003.58 -1.90735e-05H2041.58L1931.18 280H1893.18L2003.58 -1.90735e-05ZM2103.19 -1.90735e-05H2141.19L2030.79 280H1992.79L2103.19 -1.90735e-05ZM2202.8 -1.90735e-05H2240.8L2130.4 280H2092.4L2202.8 -1.90735e-05ZM2302.41 -1.90735e-05H2340.41L2230.01 280H2192.01L2302.41 -1.90735e-05ZM2402.02 -1.90735e-05H2440.02L2329.62 280H2291.62L2402.02 -1.90735e-05ZM2501.63 -1.90735e-05H2539.63L2429.23 280H2391.23L2501.63 -1.90735e-05ZM2601.23 -1.90735e-05H2639.23L2528.83 280H2490.83L2601.23 -1.90735e-05ZM2700.84 -1.90735e-05H2738.84L2628.44 280H2590.44L2700.84 -1.90735e-05ZM2800.45 -1.90735e-05H2838.45L2728.05 280H2690.05L2800.45 -1.90735e-05ZM2900.06 -1.90735e-05H2938.06L2827.66 280H2789.66L2900.06 -1.90735e-05ZM2999.67 -1.90735e-05H3037.67L2927.27 280H2889.27L2999.67 -1.90735e-05ZM3099.28 -1.90735e-05H3137.28L3026.88 280H2988.88L3099.28 -1.90735e-05ZM3198.89 -1.90735e-05H3236.89L3126.49 280H3088.49L3198.89 -1.90735e-05ZM3298.5 -1.90735e-05H3336.5L3226.1 280H3188.1L3298.5 -1.90735e-05ZM3398.11 -1.90735e-05H3436.11L3325.71 280H3287.71L3398.11 -1.90735e-05ZM3497.72 -1.90735e-05H3535.72L3425.32 280H3387.32L3497.72 -1.90735e-05ZM3597.33 -1.90735e-05H3635.33L3524.93 280H3486.93L3597.33 -1.90735e-05ZM3696.94 -1.90735e-05H3734.94L3624.54 280H3586.54L3696.94 -1.90735e-05ZM3796.55 -1.90735e-05H3834.55L3724.15 280H3686.15L3796.55 -1.90735e-05ZM3896.16 -1.90735e-05H3934.16L3823.76 280H3785.76L3896.16 -1.90735e-05ZM3995.77 -1.90735e-05H4033.77L3923.37 280H3885.37L3995.77 -1.90735e-05ZM4095.38 -1.90735e-05H4133.38L4022.98 280H3984.98L4095.38 -1.90735e-05ZM4194.98 -1.90735e-05H4232.98L4122.58 280H4084.58L4194.98 -1.90735e-05ZM4294.59 -1.90735e-05H4332.59L4222.19 280H4184.19L4294.59 -1.90735e-05ZM4394.2 -1.90735e-05H4432.2L4321.8 280H4283.8L4394.2 -1.90735e-05Z" fill="#262626"/>
</svg>
