<svg width="786" height="185" viewBox="0 0 786 185" fill="none" xmlns="http://www.w3.org/2000/svg">
<g clip-path="url(#clip0_239_265)">
<mask id="mask0_239_265" style="mask-type:luminance" maskUnits="userSpaceOnUse" x="248" y="1" width="538" height="184">
<path d="M248 1.00002L248 185L786 185L786 0.999992L248 1.00002Z" fill="white"/>
</mask>
<g mask="url(#mask0_239_265)">
<g filter="url(#filter0_d_239_265)">
<path fill-rule="evenodd" clip-rule="evenodd" d="M640.74 149.657L692.029 92.9429L640.74 36.2293L640.74 15.6058L710.68 92.9429L640.74 170.28L640.74 149.657Z" fill="white"/>
</g>
<g filter="url(#filter1_d_239_265)">
<path fill-rule="evenodd" clip-rule="evenodd" d="M689.16 149.657L740.449 92.9429L689.16 36.2293L689.16 15.6058L759.1 92.9429L689.16 170.28L689.16 149.657Z" fill="white"/>
</g>
</g>
</g>
<g clip-path="url(#clip1_239_265)">
<mask id="mask1_239_265" style="mask-type:luminance" maskUnits="userSpaceOnUse" x="0" y="0" width="538" height="184">
<path d="M538 184L538 0L0 -1.61133e-05L-1.17383e-05 184L538 184Z" fill="white"/>
</mask>
<g mask="url(#mask1_239_265)">
<g filter="url(#filter2_d_239_265)">
<path fill-rule="evenodd" clip-rule="evenodd" d="M145.26 35.343L93.9706 92.0571L145.26 148.771L145.26 169.394L75.3198 92.0571L145.26 14.7197L145.26 35.343Z" fill="white"/>
</g>
<g filter="url(#filter3_d_239_265)">
<path fill-rule="evenodd" clip-rule="evenodd" d="M96.8398 35.343L45.5507 92.0571L96.8398 148.771L96.8398 169.394L26.8998 92.0571L96.8398 14.7197L96.8398 35.343Z" fill="white"/>
</g>
</g>
</g>
<path d="M257.052 79.36C255.78 79.36 254.58 79.18 253.452 78.82C252.324 78.46 251.292 77.92 250.356 77.2C249.42 76.48 248.592 75.592 247.872 74.536L249.816 72.376C250.944 73.984 252.096 75.112 253.272 75.76C254.472 76.408 255.816 76.732 257.304 76.732C258.384 76.732 259.368 76.552 260.256 76.192C261.144 75.832 261.84 75.328 262.344 74.68C262.848 74.032 263.1 73.288 263.1 72.448C263.1 71.896 263.004 71.404 262.812 70.972C262.644 70.54 262.38 70.156 262.02 69.82C261.66 69.484 261.216 69.184 260.688 68.92C260.16 68.656 259.548 68.416 258.852 68.2C258.18 67.984 257.424 67.768 256.584 67.552C255.36 67.264 254.28 66.928 253.344 66.544C252.432 66.136 251.652 65.644 251.004 65.068C250.38 64.492 249.9 63.832 249.564 63.088C249.252 62.32 249.096 61.42 249.096 60.388C249.096 59.404 249.3 58.492 249.708 57.652C250.14 56.812 250.728 56.092 251.472 55.492C252.216 54.868 253.092 54.388 254.1 54.052C255.108 53.716 256.188 53.548 257.34 53.548C258.636 53.548 259.788 53.728 260.796 54.088C261.828 54.424 262.74 54.928 263.532 55.6C264.324 56.272 265.008 57.076 265.584 58.012L263.604 59.956C263.1 59.164 262.524 58.48 261.876 57.904C261.252 57.328 260.556 56.896 259.788 56.608C259.044 56.296 258.216 56.14 257.304 56.14C256.248 56.14 255.312 56.32 254.496 56.68C253.704 57.04 253.08 57.544 252.624 58.192C252.168 58.816 251.94 59.536 251.94 60.352C251.94 60.952 252.048 61.492 252.264 61.972C252.48 62.428 252.816 62.836 253.272 63.196C253.752 63.532 254.364 63.844 255.108 64.132C255.876 64.396 256.788 64.648 257.844 64.888C259.092 65.176 260.208 65.524 261.192 65.932C262.2 66.34 263.052 66.832 263.748 67.408C264.468 67.96 265.008 68.608 265.368 69.352C265.752 70.096 265.944 70.948 265.944 71.908C265.944 73.396 265.572 74.704 264.828 75.832C264.084 76.936 263.04 77.8 261.696 78.424C260.376 79.048 258.828 79.36 257.052 79.36ZM282.05 79.36C280.25 79.36 278.594 79.048 277.082 78.424C275.57 77.776 274.262 76.876 273.158 75.724C272.054 74.548 271.19 73.168 270.566 71.584C269.966 70 269.666 68.272 269.666 66.4C269.666 64.552 269.966 62.86 270.566 61.324C271.19 59.764 272.066 58.408 273.194 57.256C274.322 56.08 275.63 55.18 277.118 54.556C278.606 53.932 280.238 53.62 282.014 53.62C283.19 53.62 284.354 53.812 285.506 54.196C286.658 54.556 287.714 55.06 288.674 55.708C289.658 56.356 290.462 57.1 291.086 57.94L289.142 59.956C288.542 59.236 287.846 58.612 287.054 58.084C286.286 57.556 285.47 57.148 284.606 56.86C283.742 56.572 282.878 56.428 282.014 56.428C280.67 56.428 279.41 56.68 278.234 57.184C277.082 57.664 276.086 58.348 275.246 59.236C274.406 60.124 273.746 61.18 273.266 62.404C272.81 63.628 272.582 64.96 272.582 66.4C272.582 67.888 272.81 69.256 273.266 70.504C273.746 71.752 274.418 72.832 275.282 73.744C276.17 74.632 277.202 75.328 278.378 75.832C279.578 76.312 280.91 76.552 282.374 76.552C283.238 76.552 284.102 76.432 284.966 76.192C285.83 75.928 286.622 75.568 287.342 75.112C288.062 74.656 288.674 74.14 289.178 73.564L290.618 75.904C290.066 76.576 289.322 77.176 288.386 77.704C287.474 78.208 286.466 78.616 285.362 78.928C284.258 79.216 283.154 79.36 282.05 79.36ZM295.938 79L295.938 53.8L305.802 53.8C307.266 53.8 308.586 54.148 309.762 54.844C310.962 55.516 311.91 56.44 312.606 57.616C313.302 58.792 313.65 60.124 313.65 61.612C313.65 63.004 313.314 64.264 312.642 65.392C311.97 66.52 311.058 67.42 309.906 68.092C308.754 68.74 307.458 69.064 306.018 69.064L298.746 69.064L298.746 79L295.938 79ZM311.31 79L304.974 67.912L307.674 66.976L314.658 79L311.31 79ZM298.746 66.328L306.27 66.328C307.158 66.328 307.938 66.124 308.61 65.716C309.282 65.308 309.81 64.756 310.194 64.06C310.578 63.34 310.77 62.524 310.77 61.612C310.77 60.628 310.542 59.752 310.086 58.984C309.63 58.216 308.994 57.616 308.178 57.184C307.386 56.752 306.474 56.536 305.442 56.536L298.746 56.536L298.746 66.328ZM329.757 79.36C327.981 79.36 326.337 79.048 324.825 78.424C323.337 77.776 322.029 76.876 320.901 75.724C319.797 74.572 318.933 73.216 318.309 71.656C317.709 70.072 317.409 68.344 317.409 66.472C317.409 64.6 317.709 62.884 318.309 61.324C318.933 59.74 319.797 58.372 320.901 57.22C322.029 56.044 323.337 55.144 324.825 54.52C326.337 53.872 327.981 53.548 329.757 53.548C331.557 53.548 333.201 53.872 334.689 54.52C336.201 55.144 337.509 56.044 338.613 57.22C339.741 58.372 340.605 59.74 341.205 61.324C341.829 62.884 342.141 64.6 342.141 66.472C342.141 68.32 341.829 70.036 341.205 71.62C340.605 73.18 339.741 74.548 338.613 75.724C337.509 76.876 336.201 77.776 334.689 78.424C333.201 79.048 331.557 79.36 329.757 79.36ZM329.757 76.588C331.125 76.588 332.385 76.348 333.537 75.868C334.713 75.364 335.721 74.656 336.561 73.744C337.401 72.832 338.049 71.764 338.505 70.54C338.985 69.292 339.225 67.936 339.225 66.472C339.225 64.984 338.985 63.628 338.505 62.404C338.049 61.156 337.401 60.076 336.561 59.164C335.721 58.252 334.713 57.544 333.537 57.04C332.385 56.536 331.125 56.284 329.757 56.284C328.389 56.284 327.117 56.536 325.941 57.04C324.789 57.544 323.793 58.252 322.953 59.164C322.113 60.076 321.465 61.156 321.009 62.404C320.553 63.628 320.325 64.984 320.325 66.472C320.325 67.936 320.553 69.292 321.009 70.54C321.465 71.764 322.113 72.832 322.953 73.744C323.793 74.656 324.789 75.364 325.941 75.868C327.117 76.348 328.389 76.588 329.757 76.588ZM347.618 79L347.618 53.8L350.426 53.8L350.426 76.264L362.522 76.264L362.522 79L347.618 79ZM368.009 79L368.009 53.8L370.817 53.8L370.817 76.264L382.913 76.264L382.913 79L368.009 79ZM398.489 79L398.489 53.8L407.993 53.8C409.721 53.8 411.293 54.112 412.709 54.736C414.149 55.336 415.397 56.2 416.453 57.328C417.509 58.456 418.325 59.788 418.901 61.324C419.477 62.86 419.765 64.552 419.765 66.4C419.765 68.248 419.477 69.952 418.901 71.512C418.325 73.048 417.509 74.38 416.453 75.508C415.421 76.612 414.185 77.476 412.745 78.1C411.305 78.7 409.721 79 407.993 79L398.489 79ZM401.297 76.768L400.973 76.264L407.813 76.264C409.133 76.264 410.345 76.036 411.449 75.58C412.577 75.1 413.537 74.428 414.329 73.564C415.145 72.676 415.769 71.632 416.201 70.432C416.657 69.232 416.885 67.888 416.885 66.4C416.885 64.912 416.657 63.568 416.201 62.368C415.769 61.168 415.145 60.136 414.329 59.272C413.513 58.384 412.553 57.712 411.449 57.256C410.345 56.776 409.133 56.536 407.813 56.536L400.865 56.536L401.297 56.104L401.297 76.768ZM435.647 79.36C433.871 79.36 432.227 79.048 430.715 78.424C429.227 77.776 427.919 76.876 426.791 75.724C425.687 74.572 424.823 73.216 424.199 71.656C423.599 70.072 423.299 68.344 423.299 66.472C423.299 64.6 423.599 62.884 424.199 61.324C424.823 59.74 425.687 58.372 426.791 57.22C427.919 56.044 429.227 55.144 430.715 54.52C432.227 53.872 433.871 53.548 435.647 53.548C437.447 53.548 439.091 53.872 440.579 54.52C442.091 55.144 443.399 56.044 444.503 57.22C445.631 58.372 446.495 59.74 447.095 61.324C447.719 62.884 448.031 64.6 448.031 66.472C448.031 68.32 447.719 70.036 447.095 71.62C446.495 73.18 445.631 74.548 444.503 75.724C443.399 76.876 442.091 77.776 440.579 78.424C439.091 79.048 437.447 79.36 435.647 79.36ZM435.647 76.588C437.015 76.588 438.275 76.348 439.427 75.868C440.603 75.364 441.611 74.656 442.451 73.744C443.291 72.832 443.939 71.764 444.395 70.54C444.875 69.292 445.115 67.936 445.115 66.472C445.115 64.984 444.875 63.628 444.395 62.404C443.939 61.156 443.291 60.076 442.451 59.164C441.611 58.252 440.603 57.544 439.427 57.04C438.275 56.536 437.015 56.284 435.647 56.284C434.279 56.284 433.007 56.536 431.831 57.04C430.679 57.544 429.683 58.252 428.843 59.164C428.003 60.076 427.355 61.156 426.899 62.404C426.443 63.628 426.215 64.984 426.215 66.472C426.215 67.936 426.443 69.292 426.899 70.54C427.355 71.764 428.003 72.832 428.843 73.744C429.683 74.656 430.679 75.364 431.831 75.868C433.007 76.348 434.279 76.588 435.647 76.588ZM458.121 79L450.525 53.8L453.549 53.8L458.409 70.432C458.601 71.008 458.757 71.56 458.877 72.088C459.021 72.592 459.141 73.084 459.237 73.564C459.333 74.02 459.429 74.488 459.525 74.968C459.621 75.424 459.717 75.904 459.813 76.408L459.201 76.372C459.513 75.268 459.765 74.392 459.957 73.744C460.173 73.096 460.377 72.52 460.569 72.016C460.761 71.512 460.977 70.936 461.217 70.288L465.465 59.596L468.093 59.596L472.377 70.396C472.665 71.068 472.917 71.704 473.133 72.304C473.349 72.904 473.553 73.516 473.745 74.14C473.961 74.764 474.165 75.46 474.357 76.228L473.781 76.336C473.901 75.736 473.997 75.244 474.069 74.86C474.141 74.476 474.213 74.14 474.285 73.852C474.357 73.54 474.429 73.24 474.501 72.952C474.573 72.64 474.669 72.28 474.789 71.872C474.909 71.44 475.065 70.9 475.257 70.252L480.117 53.8L483.141 53.8L475.473 79L473.133 79L466.329 62.8L466.977 62.908L460.425 79L458.121 79ZM487.716 79L487.716 53.8L490.272 53.8L506.76 75.616L506.256 76.264C506.184 75.88 506.124 75.304 506.076 74.536C506.052 73.768 506.016 72.904 505.968 71.944C505.944 70.96 505.92 69.94 505.896 68.884C505.872 67.828 505.848 66.796 505.824 65.788C505.824 64.78 505.824 63.868 505.824 63.052L505.824 53.8L508.632 53.8L508.632 79L506.004 79L489.588 57.472L490.02 56.716C490.092 57.676 490.152 58.624 490.2 59.56C490.272 60.496 490.32 61.396 490.344 62.26C490.392 63.124 490.428 63.916 490.452 64.636C490.476 65.356 490.488 65.968 490.488 66.472C490.512 66.976 490.524 67.336 490.524 67.552L490.524 79L487.716 79ZM530.714 79L530.714 56.536L523.514 56.536L523.514 53.8L541.01 53.8L541.01 56.536L533.522 56.536L533.522 79L530.714 79ZM555.073 79.36C553.297 79.36 551.653 79.048 550.141 78.424C548.653 77.776 547.345 76.876 546.217 75.724C545.113 74.572 544.249 73.216 543.625 71.656C543.025 70.072 542.725 68.344 542.725 66.472C542.725 64.6 543.025 62.884 543.625 61.324C544.249 59.74 545.113 58.372 546.217 57.22C547.345 56.044 548.653 55.144 550.141 54.52C551.653 53.872 553.297 53.548 555.073 53.548C556.873 53.548 558.517 53.872 560.005 54.52C561.517 55.144 562.825 56.044 563.929 57.22C565.057 58.372 565.921 59.74 566.521 61.324C567.145 62.884 567.457 64.6 567.457 66.472C567.457 68.32 567.145 70.036 566.521 71.62C565.921 73.18 565.057 74.548 563.929 75.724C562.825 76.876 561.517 77.776 560.005 78.424C558.517 79.048 556.873 79.36 555.073 79.36ZM555.073 76.588C556.441 76.588 557.701 76.348 558.853 75.868C560.029 75.364 561.037 74.656 561.877 73.744C562.717 72.832 563.365 71.764 563.821 70.54C564.301 69.292 564.541 67.936 564.541 66.472C564.541 64.984 564.301 63.628 563.821 62.404C563.365 61.156 562.717 60.076 561.877 59.164C561.037 58.252 560.029 57.544 558.853 57.04C557.701 56.536 556.441 56.284 555.073 56.284C553.705 56.284 552.433 56.536 551.257 57.04C550.105 57.544 549.109 58.252 548.269 59.164C547.429 60.076 546.781 61.156 546.325 62.404C545.869 63.628 545.641 64.984 545.641 66.472C545.641 67.936 545.869 69.292 546.325 70.54C546.781 71.764 547.429 72.832 548.269 73.744C549.109 74.656 550.105 75.364 551.257 75.868C552.433 76.348 553.705 76.588 555.073 76.588Z" fill="white"/>
<path d="M173.05 124L160.495 92.5H167.65L174.22 109.555C174.58 110.485 174.88 111.31 175.12 112.03C175.39 112.72 175.615 113.38 175.795 114.01C176.005 114.61 176.2 115.21 176.38 115.81C176.56 116.38 176.74 117.01 176.92 117.7L175.615 117.745C175.855 116.815 176.095 115.96 176.335 115.18C176.575 114.37 176.845 113.53 177.145 112.66C177.445 111.79 177.82 110.755 178.27 109.555L184.48 92.5H191.59L178.945 124H173.05ZM195.365 124V118.195H200.63V98.305H195.365V92.5H212.645V98.305H207.38V118.195H212.645V124H195.365ZM220.037 124V92.5H241.322V98.44H226.607V118.06H241.637V124H220.037ZM223.187 110.815V105.055H239.162V110.815H223.187ZM254.587 124L245.002 92.5H251.932L257.062 110.095C257.272 110.725 257.452 111.415 257.602 112.165C257.782 112.885 257.917 113.59 258.007 114.28C258.127 114.94 258.217 115.57 258.277 116.17C258.367 116.74 258.442 117.22 258.502 117.61L257.422 117.565C257.692 116.305 257.917 115.255 258.097 114.415C258.277 113.545 258.442 112.78 258.592 112.12C258.772 111.43 258.982 110.74 259.222 110.05L264.172 97.045H269.752L274.612 110.05C274.972 110.95 275.257 111.82 275.467 112.66C275.707 113.47 275.902 114.265 276.052 115.045C276.202 115.795 276.352 116.56 276.502 117.34L275.512 117.52C275.602 116.89 275.662 116.35 275.692 115.9C275.752 115.42 275.797 114.985 275.827 114.595C275.887 114.205 275.947 113.815 276.007 113.425C276.067 113.005 276.157 112.525 276.277 111.985C276.397 111.415 276.577 110.755 276.817 110.005L281.902 92.5H288.742L279.067 124H274.072L266.287 105.37L267.007 105.46L259.762 124H254.587ZM313.707 124V98.575H304.527V92.5H329.907V98.575H320.457V124H313.707ZM335.482 124V92.5H356.767V98.44H342.052V118.06H357.082V124H335.482ZM338.632 110.815V105.055H354.607V110.815H338.632ZM360.311 124L372.641 92.5H378.671L390.956 124H384.026L377.681 107.035C377.501 106.555 377.276 105.94 377.006 105.19C376.766 104.44 376.511 103.645 376.241 102.805C375.971 101.965 375.716 101.17 375.476 100.42C375.236 99.64 375.056 98.995 374.936 98.485L376.151 98.44C375.971 99.13 375.761 99.85 375.521 100.6C375.311 101.32 375.086 102.07 374.846 102.85C374.606 103.6 374.351 104.335 374.081 105.055C373.811 105.775 373.556 106.48 373.316 107.17L366.971 124H360.311ZM366.026 117.385L368.231 111.94H382.676L384.926 117.385H366.026ZM395.379 124V92.5H401.544L413.019 111.175L408.969 111.13L420.579 92.5H426.474V124H419.859V113.2C419.859 110.5 419.919 108.07 420.039 105.91C420.189 103.75 420.429 101.605 420.759 99.475L421.569 101.59L412.344 115.9H409.374L400.329 101.68L401.094 99.475C401.424 101.485 401.649 103.555 401.769 105.685C401.919 107.785 401.994 110.29 401.994 113.2V124H395.379ZM448.465 124V92.5H461.38C463.69 92.5 465.775 92.89 467.635 93.67C469.525 94.42 471.145 95.5 472.495 96.91C473.875 98.29 474.925 99.94 475.645 101.86C476.365 103.78 476.725 105.91 476.725 108.25C476.725 110.56 476.365 112.69 475.645 114.64C474.925 116.56 473.89 118.225 472.54 119.635C471.19 121.015 469.57 122.095 467.68 122.875C465.79 123.625 463.69 124 461.38 124H448.465ZM455.215 119.095L454.495 117.925H461.155C462.505 117.925 463.72 117.7 464.8 117.25C465.88 116.77 466.795 116.125 467.545 115.315C468.325 114.475 468.91 113.455 469.3 112.255C469.69 111.055 469.885 109.72 469.885 108.25C469.885 106.78 469.69 105.46 469.3 104.29C468.91 103.09 468.325 102.07 467.545 101.23C466.795 100.39 465.88 99.745 464.8 99.295C463.72 98.815 462.505 98.575 461.155 98.575H454.36L455.215 97.495V119.095ZM482.83 124V92.5H504.115V98.44H489.4V118.06H504.43V124H482.83ZM485.98 110.815V105.055H501.955V110.815H485.98ZM517.965 124V98.575H508.785V92.5H534.165V98.575H524.715V124H517.965ZM533.763 124L546.093 92.5H552.123L564.408 124H557.478L551.133 107.035C550.953 106.555 550.728 105.94 550.458 105.19C550.218 104.44 549.963 103.645 549.693 102.805C549.423 101.965 549.168 101.17 548.928 100.42C548.688 99.64 548.508 98.995 548.388 98.485L549.603 98.44C549.423 99.13 549.213 99.85 548.973 100.6C548.763 101.32 548.538 102.07 548.298 102.85C548.058 103.6 547.803 104.335 547.533 105.055C547.263 105.775 547.008 106.48 546.768 107.17L540.423 124H533.763ZM539.478 117.385L541.683 111.94H556.128L558.378 117.385H539.478ZM568.021 124V118.195H573.286V98.305H568.021V92.5H585.301V98.305H580.036V118.195H585.301V124H568.021ZM592.694 124V92.5H599.444V117.925H613.709V124H592.694ZM630.199 124.45C628.249 124.45 626.464 124.21 624.844 123.73C623.254 123.25 621.829 122.545 620.569 121.615C619.339 120.685 618.229 119.56 617.239 118.24L621.469 113.425C622.939 115.465 624.394 116.86 625.834 117.61C627.304 118.33 628.894 118.69 630.604 118.69C631.534 118.69 632.359 118.57 633.079 118.33C633.829 118.06 634.414 117.685 634.834 117.205C635.254 116.725 635.464 116.155 635.464 115.495C635.464 115.015 635.359 114.58 635.149 114.19C634.939 113.77 634.639 113.41 634.249 113.11C633.859 112.78 633.394 112.495 632.854 112.255C632.314 111.985 631.714 111.76 631.054 111.58C630.394 111.37 629.674 111.205 628.894 111.085C627.214 110.695 625.744 110.23 624.484 109.69C623.224 109.12 622.174 108.43 621.334 107.62C620.494 106.78 619.864 105.835 619.444 104.785C619.054 103.735 618.859 102.55 618.859 101.23C618.859 99.88 619.159 98.635 619.759 97.495C620.359 96.325 621.184 95.32 622.234 94.48C623.314 93.64 624.544 92.995 625.924 92.545C627.334 92.095 628.819 91.87 630.379 91.87C632.299 91.87 633.979 92.095 635.419 92.545C636.859 92.965 638.104 93.58 639.154 94.39C640.234 95.2 641.134 96.19 641.854 97.36L637.579 101.5C636.949 100.66 636.259 99.955 635.509 99.385C634.789 98.815 633.994 98.395 633.124 98.125C632.284 97.825 631.414 97.675 630.514 97.675C629.524 97.675 628.669 97.81 627.949 98.08C627.229 98.32 626.659 98.68 626.239 99.16C625.849 99.64 625.654 100.225 625.654 100.915C625.654 101.455 625.789 101.935 626.059 102.355C626.329 102.775 626.719 103.15 627.229 103.48C627.739 103.78 628.354 104.05 629.074 104.29C629.794 104.53 630.589 104.74 631.459 104.92C633.109 105.25 634.594 105.685 635.914 106.225C637.234 106.765 638.359 107.425 639.289 108.205C640.249 108.955 640.984 109.855 641.494 110.905C642.004 111.925 642.259 113.08 642.259 114.37C642.259 116.5 641.749 118.315 640.729 119.815C639.709 121.315 638.299 122.47 636.499 123.28C634.699 124.06 632.599 124.45 630.199 124.45Z" fill="white"/>
<defs>
<filter id="filter0_d_239_265" x="636.74" y="11.6055" width="77.9404" height="162.675" filterUnits="userSpaceOnUse" color-interpolation-filters="sRGB">
<feFlood flood-opacity="0" result="BackgroundImageFix"/>
<feColorMatrix in="SourceAlpha" type="matrix" values="0 0 0 0 0 0 0 0 0 0 0 0 0 0 0 0 0 0 127 0" result="hardAlpha"/>
<feOffset/>
<feGaussianBlur stdDeviation="2"/>
<feComposite in2="hardAlpha" operator="out"/>
<feColorMatrix type="matrix" values="0 0 0 0 1 0 0 0 0 1 0 0 0 0 1 0 0 0 0.85 0"/>
<feBlend mode="normal" in2="BackgroundImageFix" result="effect1_dropShadow_239_265"/>
<feBlend mode="normal" in="SourceGraphic" in2="effect1_dropShadow_239_265" result="shape"/>
</filter>
<filter id="filter1_d_239_265" x="685.16" y="11.6055" width="77.9404" height="162.675" filterUnits="userSpaceOnUse" color-interpolation-filters="sRGB">
<feFlood flood-opacity="0" result="BackgroundImageFix"/>
<feColorMatrix in="SourceAlpha" type="matrix" values="0 0 0 0 0 0 0 0 0 0 0 0 0 0 0 0 0 0 127 0" result="hardAlpha"/>
<feOffset/>
<feGaussianBlur stdDeviation="2"/>
<feComposite in2="hardAlpha" operator="out"/>
<feColorMatrix type="matrix" values="0 0 0 0 1 0 0 0 0 1 0 0 0 0 1 0 0 0 0.85 0"/>
<feBlend mode="normal" in2="BackgroundImageFix" result="effect1_dropShadow_239_265"/>
<feBlend mode="normal" in="SourceGraphic" in2="effect1_dropShadow_239_265" result="shape"/>
</filter>
<filter id="filter2_d_239_265" x="71.3193" y="10.7197" width="77.9404" height="162.675" filterUnits="userSpaceOnUse" color-interpolation-filters="sRGB">
<feFlood flood-opacity="0" result="BackgroundImageFix"/>
<feColorMatrix in="SourceAlpha" type="matrix" values="0 0 0 0 0 0 0 0 0 0 0 0 0 0 0 0 0 0 127 0" result="hardAlpha"/>
<feOffset/>
<feGaussianBlur stdDeviation="2"/>
<feComposite in2="hardAlpha" operator="out"/>
<feColorMatrix type="matrix" values="0 0 0 0 1 0 0 0 0 1 0 0 0 0 1 0 0 0 0.85 0"/>
<feBlend mode="normal" in2="BackgroundImageFix" result="effect1_dropShadow_239_265"/>
<feBlend mode="normal" in="SourceGraphic" in2="effect1_dropShadow_239_265" result="shape"/>
</filter>
<filter id="filter3_d_239_265" x="22.8994" y="10.7197" width="77.9404" height="162.675" filterUnits="userSpaceOnUse" color-interpolation-filters="sRGB">
<feFlood flood-opacity="0" result="BackgroundImageFix"/>
<feColorMatrix in="SourceAlpha" type="matrix" values="0 0 0 0 0 0 0 0 0 0 0 0 0 0 0 0 0 0 127 0" result="hardAlpha"/>
<feOffset/>
<feGaussianBlur stdDeviation="2"/>
<feComposite in2="hardAlpha" operator="out"/>
<feColorMatrix type="matrix" values="0 0 0 0 1 0 0 0 0 1 0 0 0 0 1 0 0 0 0.85 0"/>
<feBlend mode="normal" in2="BackgroundImageFix" result="effect1_dropShadow_239_265"/>
<feBlend mode="normal" in="SourceGraphic" in2="effect1_dropShadow_239_265" result="shape"/>
</filter>
<clipPath id="clip0_239_265">
<rect width="184" height="538" fill="white" transform="translate(248 185) rotate(-90)"/>
</clipPath>
<clipPath id="clip1_239_265">
<rect width="184" height="538" fill="white" transform="translate(538) rotate(90)"/>
</clipPath>
</defs>
</svg>
