<svg width="50" height="50" viewBox="0 0 50 50" fill="none" xmlns="http://www.w3.org/2000/svg">
<path fill-rule="evenodd" clip-rule="evenodd" d="M21.8748 4.16699C19.051 4.16723 16.2683 4.84275 13.7587 6.13719C11.2491 7.43162 9.08541 9.30744 7.4482 11.6081C5.811 13.9088 4.74773 16.5677 4.3471 19.3629C3.94648 22.1581 4.22011 25.0086 5.14517 27.6765C6.07023 30.3445 7.61989 32.7525 9.66487 34.6998C11.7099 36.647 14.1908 38.0769 16.9009 38.8703C19.6109 39.6637 22.4713 39.7975 25.2436 39.2606C28.0158 38.7236 30.6195 37.5315 32.8373 35.7837L40.4456 43.392C40.8385 43.7715 41.3648 43.9815 41.911 43.9767C42.4573 43.972 42.9798 43.7529 43.3661 43.3666C43.7523 42.9803 43.9715 42.4578 43.9762 41.9116C43.9809 41.3653 43.771 40.8391 43.3915 40.4462L35.7831 32.8378C37.8415 30.2266 39.1231 27.0887 39.4813 23.7831C39.8395 20.4775 39.2598 17.1379 37.8086 14.1464C36.3574 11.1548 34.0933 8.63232 31.2754 6.86747C28.4575 5.10263 25.1997 4.16677 21.8748 4.16699ZM8.33313 21.8753C8.33313 18.2839 9.75984 14.8395 12.2994 12.2999C14.8389 9.76037 18.2833 8.33366 21.8748 8.33366C25.4663 8.33366 28.9106 9.76037 31.4502 12.2999C33.9898 14.8395 35.4165 18.2839 35.4165 21.8753C35.4165 25.4668 33.9898 28.9112 31.4502 31.4507C28.9106 33.9903 25.4663 35.417 21.8748 35.417C18.2833 35.417 14.8389 33.9903 12.2994 31.4507C9.75984 28.9112 8.33313 25.4668 8.33313 21.8753Z" fill="white"/>
</svg>
