<svg width="1139" height="102" viewBox="0 0 1139 102" fill="none" xmlns="http://www.w3.org/2000/svg">
<path fill-rule="evenodd" clip-rule="evenodd" d="M379.849 9.20793C381.029 9.20793 381.816 9.55063 382.211 10.2361C382.613 10.9216 382.653 12.0354 382.33 13.5776L381.826 15.9503C381.477 17.5651 380.897 18.7184 380.086 19.4105C379.276 20.0959 378.201 20.4387 376.864 20.4387H374.254L376.636 9.20793H379.849ZM404.207 9.20793C405.38 9.20793 406.168 9.55063 406.569 10.2361C406.971 10.9216 407.011 12.0354 406.688 13.5776L405.986 16.8598C405.644 18.4812 405.064 19.6345 404.247 20.32C403.429 21.0055 402.355 21.3482 401.024 21.3482H398.592L401.172 9.20793H404.207ZM452.452 10.5426L450.959 31.5606H444.949L452.333 10.5426H452.452ZM375.934 26.5187C377.47 26.5187 378.491 26.8944 378.999 27.6457C379.513 28.3904 379.562 29.735 379.147 31.6793L378.366 35.3866C378.037 36.9222 377.523 38.0064 376.824 38.6391C376.126 39.2652 375.19 39.5783 374.017 39.5783H370.191L372.959 26.5187H375.934ZM328.311 3.12793L319.276 45.6485H325.958L329.893 27.1217H338.512L339.807 21.0516H331.187L333.698 9.20793H344.69L345.985 3.12793H328.311ZM349.203 3.12793L340.168 45.6485H358.386L359.681 39.5783H348.145L350.913 26.5187H360.076L361.371 20.4387H352.208L354.59 9.20793H366.126L367.421 3.12793H349.203ZM371.249 3.12793L362.214 45.6485H372.722C376.043 45.6485 378.745 44.7884 380.828 43.0681C382.917 41.348 384.31 38.8467 385.009 35.5645L385.78 31.9165C386.795 27.1382 385.763 24.1823 382.686 23.0486L382.706 22.93C384.294 22.3237 385.589 21.3317 386.59 19.9542C387.592 18.5768 388.324 16.7939 388.785 14.6058L389.151 12.9054C389.856 9.59016 389.589 7.13184 388.35 5.53026C387.111 3.92868 384.772 3.12793 381.332 3.12793H371.249ZM395.785 3.12793L386.75 45.6485H393.432L397.307 27.4282H399.611C401.153 27.4282 402.154 27.8138 402.616 28.5849C403.077 29.3494 403.103 30.7039 402.695 32.6481L401.034 40.4285C400.698 42.0037 400.507 43.0978 400.461 43.7108C400.415 44.3171 400.441 44.963 400.54 45.6485H407.341C407.176 44.9169 407.13 44.1787 407.202 43.434C407.281 42.6826 407.449 41.7006 407.706 40.4878L409.298 33.0139C409.832 30.5028 409.92 28.4992 409.565 27.0031C409.215 25.5004 408.283 24.5085 406.767 24.0274L406.797 23.8989C409.96 22.7256 412.013 19.9345 412.955 15.5252L413.509 12.9054C414.214 9.59016 413.947 7.13184 412.708 5.53026C411.469 3.92868 409.126 3.12793 405.68 3.12793H395.785ZM449.713 3.12793L433.759 45.6485H439.947L442.932 37.3243H450.524L450.554 37.2056L449.97 45.6485H456.653L458.768 3.12793H449.713ZM420.013 3.12793L413.123 35.5645C412.392 39.0049 412.679 41.6478 413.983 43.4933C415.295 45.3321 417.572 46.2515 420.814 46.2515C424.05 46.2515 426.715 45.3321 428.811 43.4933C430.906 41.6478 432.32 39.0049 433.051 35.5645L439.941 3.12793H433.496L426.498 36.0489C426.188 37.5055 425.671 38.5601 424.946 39.2126C424.228 39.8584 423.321 40.1814 422.227 40.1814C421.134 40.1814 420.359 39.8584 419.905 39.2126C419.456 38.5601 419.387 37.5055 419.697 36.0489L426.695 3.12793H420.013Z" fill="white"/>
<path fill-rule="evenodd" clip-rule="evenodd" d="M477.329 8.87492C478.502 8.87492 479.29 9.21762 479.692 9.90309C480.094 10.5886 480.133 11.7024 479.81 13.2446L479.109 16.5268C478.766 18.1482 478.186 19.3015 477.369 19.987C476.552 20.6725 475.477 21.0152 474.146 21.0152H471.715L474.295 8.87492H477.329ZM468.907 2.79492L459.873 45.3155H466.555L470.43 27.0952H472.733C474.275 27.0952 475.276 27.4808 475.738 28.2518C476.199 29.0164 476.225 30.3708 475.817 32.3151L474.156 40.0955C473.82 41.6707 473.629 42.7648 473.583 43.3777C473.537 43.9841 473.563 44.63 473.662 45.3155H480.463C480.298 44.5839 480.252 43.8457 480.324 43.101C480.403 42.3496 480.571 41.3676 480.828 40.1548L482.42 32.6809C482.954 30.1698 483.043 28.1662 482.687 26.6701C482.338 25.1674 481.405 24.1755 479.889 23.6944L479.919 23.5658C483.082 22.3926 485.135 19.6015 486.077 15.1922L486.631 12.5724C487.336 9.25715 487.069 6.79883 485.83 5.19725C484.591 3.59568 482.249 2.79492 478.802 2.79492H468.907Z" fill="white"/>
<path fill-rule="evenodd" clip-rule="evenodd" d="M490.464 2.79492L493.35 27.2138L489.505 45.3155H496.187L500.032 27.2138L513.298 2.79492H506.803L498.935 18.4052H498.816L497.571 2.79492H490.464Z" fill="white"/>
<path fill-rule="evenodd" clip-rule="evenodd" d="M332.771 3.4541L319.059 55.4242H332.879L333.052 54.624C334.349 48.5108 337.528 45.4541 342.589 45.4541C347.635 45.4541 349.51 48.5108 348.212 54.624L343.779 75.4726C342.51 81.4994 339.352 84.5127 334.306 84.5127C329.245 84.5127 327.349 81.4994 328.618 75.4726L330.413 67.1029H316.594L315.037 74.4129C313.436 81.9391 314.071 87.7208 316.94 91.7579C319.809 95.7806 324.783 97.7918 331.862 97.7918C338.956 97.7918 344.788 95.7806 349.358 91.7579C353.943 87.7208 357.036 81.9391 358.636 74.4129L363.091 53.4129C364.562 46.5066 364.31 41.2368 362.334 37.6035C360.359 33.9701 356.711 32.1534 351.391 32.1534C345.725 32.1534 341.032 34.417 337.312 38.9443H337.053L342.957 16.7548H368.477L371.31 3.4541H332.771Z" fill="white" fill-opacity="0.1962"/>
<path fill-rule="evenodd" clip-rule="evenodd" d="M459.571 50.48C464.617 50.48 466.492 53.5366 465.194 59.6498L461.69 76.1298C460.422 82.1565 457.264 85.17 452.218 85.17C447.172 85.17 445.283 82.1565 446.552 76.1298L450.055 59.6498C451.353 53.5366 454.525 50.48 459.571 50.48ZM469.844 2.79199C454.964 2.79199 445.816 10.8517 442.399 26.9712L432.17 75.07C430.584 82.5098 431.261 88.2698 434.203 92.3501C437.158 96.4161 442.219 98.449 449.385 98.449C456.565 98.449 462.491 96.4161 467.162 92.3501C471.833 88.2698 474.962 82.5098 476.548 75.07L480.073 58.4604C481.544 51.5541 481.292 46.2843 479.316 42.6509C477.341 39.0175 473.701 37.2009 468.395 37.2009C462.094 37.2009 457.084 39.9042 453.364 45.311H453.105L456.889 27.5119C457.798 23.2585 459.095 20.2884 460.782 18.6015C462.469 16.9145 464.689 16.0711 467.443 16.0711C472.489 16.0711 474.364 19.1278 473.066 25.241L472.482 27.9012H486.302L486.669 26.171C488.27 18.6448 487.635 12.8703 484.766 8.84763C481.912 4.81059 476.937 2.79199 469.844 2.79199Z" fill="white" fill-opacity="0.2532"/>
<path fill-rule="evenodd" clip-rule="evenodd" d="M565.312 1.3291L561.311 20.1664H589.728L549.416 99.8842H570.502L611.334 17.7658L614.816 1.3291H565.312Z" fill="white"/>
<path fill-rule="evenodd" clip-rule="evenodd" d="M716.146 29.0333C719.299 29.0333 720.47 30.9431 719.66 34.7628L712.917 66.4777C712.106 70.2973 710.124 72.2071 706.972 72.2071C703.819 72.2071 702.648 70.2973 703.458 66.4777L710.201 34.7628C711.012 30.9431 712.994 29.0333 716.146 29.0333ZM672.233 21.5606L670.463 29.8711H680.003L669.423 79.6798H678.557L689.137 29.8711H698.691L700.461 21.5606H672.233ZM717.903 20.7363C713.417 20.7363 709.715 22.011 706.796 24.5605C703.877 27.1009 701.922 30.6954 700.931 35.3438L694.445 65.8966C693.455 70.545 693.878 74.144 695.716 76.6935C697.553 79.2339 700.715 80.5041 705.201 80.5041C709.679 80.5041 713.376 79.2339 716.295 76.6935C719.223 74.144 721.182 70.545 722.173 65.8966L728.659 35.3438C729.65 30.6954 729.222 27.1009 727.375 24.5605C725.538 22.011 722.38 20.7363 717.903 20.7363Z" fill="white"/>
<path fill-rule="evenodd" clip-rule="evenodd" d="M823.171 18.8157C825.954 18.8157 826.941 20.7116 826.134 24.5036L822.63 40.9835C821.636 45.6406 819.358 47.9691 815.796 47.9691C813.028 47.9691 812.055 46.0298 812.877 42.1513L816.38 25.6715C817.361 21.1009 819.624 18.8157 823.171 18.8157ZM825.983 0C818.125 0 811.608 2.25643 806.432 6.76928C801.27 11.2678 797.832 17.5324 796.116 25.5633L792.591 42.173C790.976 49.757 791.365 55.7549 793.759 60.1668C796.166 64.5788 800.578 66.7847 806.994 66.7847C813.209 66.7847 817.841 64.254 820.89 59.1923L815.796 73.1431C815.003 76.863 813.994 79.3357 812.769 80.5613C811.543 81.7724 809.943 82.3779 807.967 82.3779C805.199 82.3779 804.226 80.4387 805.048 76.5602L806.324 70.5479H786.838L786.016 74.4624C784.243 82.7816 785.043 89.3202 788.417 94.0782C791.791 98.8218 797.493 101.194 805.524 101.194C821.902 101.194 831.959 92.4057 835.693 74.8301L845.901 26.7312C847.66 18.484 846.809 11.967 843.349 7.18019C839.889 2.39342 834.1 0 825.983 0Z" fill="white"/>
<path fill-rule="evenodd" clip-rule="evenodd" d="M970.426 16.0711C975.473 16.0711 977.347 19.1278 976.049 25.241L965.257 76C963.96 82.1133 960.788 85.17 955.742 85.17C950.695 85.17 948.821 82.1133 950.119 76L960.91 25.241C962.208 19.1278 965.38 16.0711 970.426 16.0711ZM923.916 4.11125C922.099 7.21119 920.261 9.58298 918.401 11.2266C916.555 12.8703 914.292 14.0454 911.61 14.7518C908.943 15.4584 905.533 15.8115 901.38 15.8115L899.174 26.171H914.443L899.369 97.1298H913.989L933.756 4.11125H923.916ZM973.238 2.79199C966.058 2.79199 960.132 4.83215 955.461 8.91253C950.789 12.9784 947.66 18.7312 946.074 26.171L935.694 75.07C934.108 82.5098 934.785 88.2698 937.726 92.3501C940.668 96.4161 945.728 98.449 952.909 98.449C960.074 98.449 965.993 96.4161 970.664 92.3501C975.35 88.2698 978.486 82.5098 980.072 75.07L990.453 26.171C992.039 18.7312 991.354 12.9784 988.398 8.91253C985.457 4.83215 980.403 2.79199 973.238 2.79199Z" fill="white" fill-opacity="0.2532"/>
<path fill-rule="evenodd" clip-rule="evenodd" d="M1076.01 4.12012C1074.19 7.21999 1072.35 9.59178 1070.49 11.2355C1068.65 12.8791 1066.39 14.0542 1063.7 14.7607C1061.04 15.4672 1057.63 15.8204 1053.47 15.8204L1051.27 26.1798H1066.54L1051.46 97.1386H1066.08L1085.85 4.12012H1076.01Z" fill="white" fill-opacity="0.1962"/>
<path fill-rule="evenodd" clip-rule="evenodd" d="M1129.16 4.12012C1127.34 7.21999 1125.5 9.59178 1123.64 11.2355C1121.8 12.8791 1119.54 14.0542 1116.85 14.7607C1114.19 15.4672 1110.78 15.8204 1106.62 15.8204L1104.42 26.1798H1119.69L1104.61 97.1386H1119.23L1139 4.12012H1129.16Z" fill="white" fill-opacity="0.1962"/>
<path fill-rule="evenodd" clip-rule="evenodd" d="M233.922 30.6999L226.223 66.9687H211.625L233.663 30.6999H233.922ZM238.247 4.12012L198.324 66.9687L195.491 80.2694H223.39L219.8 97.1386H234.42L238.01 80.2694H244.93L247.763 66.9687H240.843L254.186 4.12012H238.247Z" fill="white" fill-opacity="0.1139"/>
<path fill-rule="evenodd" clip-rule="evenodd" d="M118.176 2.79492C111.27 2.79492 105.553 4.79188 101.026 8.78566C96.5134 12.7651 93.464 18.4746 91.878 25.9144L90.8399 30.8238H104.66L105.957 24.7249C107.183 18.9577 110.146 16.074 114.846 16.074C117.052 16.074 118.659 16.831 119.669 18.3449C120.678 19.8444 120.844 22.1873 120.166 25.3737L118.739 32.1646C117.974 35.6971 116.698 38.2203 114.911 39.7341C113.137 41.2337 110.787 41.9834 107.86 41.9834H102.54L99.7069 55.2841H104.638C107.997 55.2841 110.239 56.1925 111.364 58.0092C112.488 59.8258 112.597 62.8536 111.688 67.0926L110.088 74.6837C109.252 78.5766 108.026 81.3016 106.411 82.8587C104.811 84.4015 102.771 85.1729 100.291 85.1729C95.2446 85.1729 93.3703 82.1162 94.6679 76.0029L96.4197 67.7629H82.6001L80.9781 75.3325C79.4065 82.7723 80.0337 88.489 82.8596 92.4829C85.6855 96.4623 90.6813 98.452 97.847 98.452C105.027 98.452 110.874 96.4839 115.386 92.5477C119.899 88.6116 122.949 82.9236 124.535 75.4839L126.286 67.2439C127.339 62.2841 127.361 58.211 126.351 55.0246C125.356 51.8238 123.1 49.5168 119.582 48.1039L119.625 47.8444C123.46 46.5035 126.546 44.3047 128.882 41.248C131.217 38.1914 132.926 34.1399 134.007 29.0936L134.699 25.7846C136.285 18.3449 135.68 12.657 132.883 8.72075C130.085 4.77025 125.183 2.79492 118.176 2.79492Z" fill="white" fill-opacity="0.0823"/>
<path fill-rule="evenodd" clip-rule="evenodd" d="M1.82638 3.4541C-5.25282 3.4541 -11.0849 5.47262 -15.6698 9.50974C-20.2402 13.5323 -23.3257 19.3068 -24.9261 26.8331L-26.8292 35.8732H-13.0097L-10.8902 25.9031C-9.59261 19.7898 -6.42067 16.7332 -1.3744 16.7332C1.10548 16.7332 2.82121 17.5117 3.7728 19.0689C4.72438 20.6117 4.77485 23.3799 3.92419 27.3738C2.98702 31.8002 1.0406 36.0535 -1.91507 40.1338C-4.85633 44.1997 -9.64307 49.1091 -16.2753 54.8619C-22.9796 60.6291 -27.9034 65.8845 -31.0465 70.6281C-34.1752 75.3572 -36.446 81.0452 -37.8589 87.692L-40 97.7918H2.23729L5.07041 84.5127H-22.6985L-22.2876 82.5015C-21.5811 79.2285 -20.1754 76.1575 -18.0703 73.2883C-15.9509 70.4046 -12.2311 66.6559 -6.91088 62.0421C1.22083 55.0493 7.21147 48.8496 11.0611 43.4427C14.9251 38.036 17.4554 32.4994 18.6521 26.8331C20.2525 19.3068 19.6181 13.5323 16.7489 9.50974C13.8942 5.47262 8.91999 3.4541 1.82638 3.4541Z" fill="white" fill-opacity="0.1139"/>
</svg>
