<svg width="1198" height="1397" viewBox="0 0 1198 1397" fill="none" xmlns="http://www.w3.org/2000/svg">
<g clip-path="url(#clip0_61_91)">
<path d="M619.655 43.4519L604.871 34.8924L590.088 43.4553L46.7598 358.185L32.0464 366.708V383.712V1013.42V1030.43L46.7686 1038.95L590.097 1353.43L605.02 1362.07L619.869 1353.31L1152.68 1038.83L1167.19 1030.27V1013.42V377.452V360.444L1152.47 351.922L619.655 43.4519Z" fill="black" stroke="white" stroke-width="59"/>
<g clip-path="url(#clip1_61_91)">
<path d="M699.23 944.265L701.843 868.594L706.425 800.697L872.029 737.017L836.802 874.76" fill="#E31F2B"/>
<path d="M315.87 958.77H522.693H679.663L565.35 1164.59L359.819 1176.25L297.775 1127.05L315.87 958.77Z" fill="#E31F2B"/>
<path d="M857.26 147.381L415.137 391.315L895.861 391.383L888.794 414.338L697.725 413.362L629.947 506.734L560.1 738.424L468.864 830.597H414.853L443.819 932.294H518.814L680.846 791.718L618.594 717.924L670.372 611.798L847.999 545.844L942.933 239.986L987.119 391.315H1159.72L857.26 147.381Z" fill="#E31F2B"/>
<path d="M220.216 836.501L318.455 932.293H420.252L391.29 830.597H352.788L293.255 762.998L366.868 496.12L439.68 412.046L397.061 411.83L415.134 391.314L317.163 502.524L220.216 836.501Z" fill="#E31F2B"/>
<path d="M318.366 757.197L363.017 807.903H459.424L540.032 726.461L609.358 496.5L669.121 414.176H467.835L387.348 507.113L318.366 757.197Z" fill="#E31F2B"/>
<path d="M684.27 631.619L642.905 717.056L702.366 781.78L1030.7 652.487L942.932 298.936L865.24 564.304L684.27 631.619Z" fill="white"/>
<path d="M260.853 634.208L218.196 776.604L30.7646 717.054L180.71 337.772L183.293 614.789L260.853 634.208Z" fill="white"/>
<mask id="mask0_61_91" style="mask-type:luminance" maskUnits="userSpaceOnUse" x="-162" y="-359" width="2460" height="2060">
<path d="M-161.625 -358.455H2297.84V1700.67H-161.625V-358.455Z" fill="white"/>
</mask>
<g mask="url(#mask0_61_91)">
<path d="M552.857 937.153L686.444 813.371L680.851 936.015" fill="white"/>
</g>
</g>
<path d="M619.655 43.4519L604.871 34.8924L590.088 43.4553L46.7598 358.185L32.0464 366.708V383.712V1013.42V1030.43L46.7686 1038.95L590.097 1353.43L605.02 1362.07L619.869 1353.31L1152.68 1038.83L1167.19 1030.27V1013.42V377.452V360.444L1152.47 351.922L619.655 43.4519Z" stroke="white" stroke-width="59"/>
</g>
<defs>
<clipPath id="clip0_61_91">
<rect width="1198" height="1397" fill="white"/>
</clipPath>
<clipPath id="clip1_61_91">
<rect width="1436.19" height="1191.45" fill="white" transform="translate(31 16)"/>
</clipPath>
</defs>
</svg>
