<svg width="4148" height="1559" viewBox="0 0 4148 1559" fill="none" xmlns="http://www.w3.org/2000/svg">
<path d="M3413.5 23.1436L3405.5 18.5248L3397.5 23.1436L2754.48 394.394L2746.48 399.012V408.25V1150.75V1159.99L2754.48 1164.61L3397.5 1535.86L3405.5 1540.48L3413.5 1535.86L4056.52 1164.61L4064.52 1159.99V1150.75V408.25V399.012L4056.52 394.394L3413.5 23.1436Z" fill="black" stroke="white" stroke-width="32"/>
<rect x="16" y="392" width="3436" height="775" fill="black" stroke="white" stroke-width="32"/>
<path d="M3405.5 37L4048.52 408.25V1150.75L3405.5 1522L2762.48 1150.75V408.25L3405.5 37Z" fill="black"/>
<g clip-path="url(#clip0_63_136)">
<path d="M3420 126.885L3405.5 118.514L3391 126.885L2846.27 441.385L2831.77 449.757V466.5V1095.5V1112.24L2846.27 1120.61L3391 1435.11L3405.5 1443.49L3420 1435.11L3964.73 1120.61L3979.23 1112.24V1095.5V466.5V449.757L3964.73 441.385L3420 126.885Z" stroke="white" stroke-width="58"/>
<g clip-path="url(#clip1_63_136)">
<g clip-path="url(#clip2_63_136)">
<path d="M3499.73 1025.99L3502.34 950.423L3506.92 882.619L3672.53 819.026L3637.3 956.58" fill="#E31F2B"/>
<path d="M3116.37 1040.47H3323.19H3480.16L3365.85 1246.01L3160.32 1257.65L3098.27 1208.53L3116.37 1040.47Z" fill="#E31F2B"/>
<path d="M3657.76 230.201L3215.64 473.799L3696.36 473.867L3689.29 496.791L3498.22 495.817L3430.45 589.06L3360.6 820.432L3269.36 912.478H3215.35L3244.32 1014.04H3319.31L3481.35 873.652L3419.09 799.959L3470.87 693.979L3648.5 628.116L3743.43 322.678L3787.62 473.799H3960.22L3657.76 230.201Z" fill="#E31F2B"/>
<path d="M3020.72 918.374L3118.96 1014.04H3220.75L3191.79 912.478H3153.29L3093.76 844.972L3167.37 578.461L3240.18 494.502L3197.56 494.287L3215.63 473.799L3117.66 584.856L3020.72 918.374Z" fill="#E31F2B"/>
<path d="M3118.87 839.179L3163.52 889.816H3259.92L3340.53 808.486L3409.86 578.84L3469.62 496.63H3268.34L3187.85 589.439L3118.87 839.179Z" fill="#E31F2B"/>
<path d="M3484.77 713.774L3443.4 799.093L3502.87 863.728L3831.2 734.612L3743.43 381.548L3665.74 646.551L3484.77 713.774Z" fill="white"/>
<path d="M3061.35 716.359L3018.7 858.559L2831.26 799.091L2981.21 420.329L2983.79 696.967L3061.35 716.359Z" fill="white"/>
<mask id="mask0_63_136" style="mask-type:luminance" maskUnits="userSpaceOnUse" x="2638" y="-275" width="2461" height="2057">
<path d="M2638.88 -274.941H5098.34V1781.35H2638.88V-274.941Z" fill="white"/>
</mask>
<g mask="url(#mask0_63_136)">
<path d="M3353.36 1018.89L3486.94 895.276L3481.35 1017.75" fill="white"/>
</g>
</g>
</g>
<path d="M3420 126.885L3405.5 118.514L3391 126.885L2846.27 441.385L2831.77 449.757V466.5V1095.5V1112.24L2846.27 1120.61L3391 1435.11L3405.5 1443.49L3420 1435.11L3964.73 1120.61L3979.23 1112.24V1095.5V466.5V449.757L3964.73 441.385L3420 126.885Z" stroke="white" stroke-width="58"/>
</g>
<defs>
<clipPath id="clip0_63_136">
<rect width="1198" height="1398" fill="white" transform="translate(2800.5 83)"/>
</clipPath>
<clipPath id="clip1_63_136">
<rect width="1107" height="1312" fill="white" transform="translate(2831.5 99)"/>
</clipPath>
<clipPath id="clip2_63_136">
<rect width="1436.19" height="1189.81" fill="white" transform="translate(2831.5 99)"/>
</clipPath>
</defs>
</svg>
