<svg width="4148" height="1559" viewBox="0 0 4148 1559" fill="none" xmlns="http://www.w3.org/2000/svg">
<path d="M3413.5 23.1436L3405.5 18.5248L3397.5 23.1436L2754.48 394.394L2746.48 399.012V408.25V1150.75V1159.99L2754.48 1164.61L3397.5 1535.86L3405.5 1540.48L3413.5 1535.86L4056.52 1164.61L4064.52 1159.99V1150.75V408.25V399.012L4056.52 394.394L3413.5 23.1436Z" fill="black" stroke="white" stroke-width="32"/>
<rect x="16" y="392" width="3436" height="775" fill="black" stroke="white" stroke-width="32"/>
<path d="M3405.5 37L4048.52 408.25V1150.75L3405.5 1522L2762.48 1150.75V408.25L3405.5 37Z" fill="black"/>
<g clip-path="url(#clip0_63_136)">
<path d="M3420 126.885L3405.5 118.514L3391 126.885L2846.27 441.385L2831.77 449.757V466.5V1095.5V1112.24L2846.27 1120.61L3391 1435.11L3405.5 1443.49L3420 1435.11L3964.73 1120.61L3979.23 1112.24V1095.5V466.5V449.757L3964.73 441.385L3420 126.885Z" stroke="white" stroke-width="58"/>
<g clip-path="url(#clip1_63_136)">
<g clip-path="url(#clip2_63_136)">
<path d="M3499.73 1025.99L3502.34 950.423L3506.92 882.619L3672.53 819.026L3637.3 956.58" fill="#E31F2B"/>
<path d="M3116.37 1040.47H3323.19H3480.16L3365.85 1246.01L3160.32 1257.65L3098.27 1208.53L3116.37 1040.47Z" fill="#E31F2B"/>
<path d="M3657.76 230.201L3215.64 473.799L3696.36 473.867L3689.29 496.791L3498.22 495.817L3430.45 589.06L3360.6 820.432L3269.36 912.478H3215.35L3244.32 1014.04H3319.31L3481.35 873.652L3419.09 799.959L3470.87 693.979L3648.5 628.116L3743.43 322.678L3787.62 473.799H3960.22L3657.76 230.201Z" fill="#E31F2B"/>
<path d="M3020.72 918.374L3118.96 1014.04H3220.75L3191.79 912.478H3153.29L3093.76 844.972L3167.37 578.461L3240.18 494.502L3197.56 494.287L3215.63 473.799L3117.66 584.856L3020.72 918.374Z" fill="#E31F2B"/>
<path d="M3118.87 839.179L3163.52 889.816H3259.92L3340.53 808.486L3409.86 578.84L3469.62 496.63H3268.34L3187.85 589.439L3118.87 839.179Z" fill="#E31F2B"/>
<path d="M3484.77 713.774L3443.4 799.093L3502.87 863.728L3831.2 734.612L3743.43 381.548L3665.74 646.551L3484.77 713.774Z" fill="white"/>
<path d="M3061.35 716.359L3018.7 858.559L2831.26 799.091L2981.21 420.329L2983.79 696.967L3061.35 716.359Z" fill="white"/>
<mask id="mask0_63_136" style="mask-type:luminance" maskUnits="userSpaceOnUse" x="2638" y="-275" width="2461" height="2057">
<path d="M2638.88 -274.941H5098.34V1781.35H2638.88V-274.941Z" fill="white"/>
</mask>
<g mask="url(#mask0_63_136)">
<path d="M3353.36 1018.89L3486.94 895.276L3481.35 1017.75" fill="white"/>
</g>
</g>
</g>
<path d="M3420 126.885L3405.5 118.514L3391 126.885L2846.27 441.385L2831.77 449.757V466.5V1095.5V1112.24L2846.27 1120.61L3391 1435.11L3405.5 1443.49L3420 1435.11L3964.73 1120.61L3979.23 1112.24V1095.5V466.5V449.757L3964.73 441.385L3420 126.885Z" stroke="white" stroke-width="58"/>
</g>
<path d="M1956.85 475.846V469.456H1996.04L2057.38 599.812L2050.35 616H2022.66L1956.85 475.846ZM2077.19 554.443H2076.34L2062.07 588.949L2043.75 549.757L2077.19 469.456H2117.66V616H2077.19V554.443ZM1956.85 496.933L1996.04 580.429V616H1956.85V496.933ZM2145.3 469.456H2187.9V616H2145.3V469.456ZM2196.85 469.456H2250.95V502.045H2196.85V469.456ZM2196.85 525.688H2240.94V558.277H2196.85V525.688ZM2196.85 583.411H2250.95V616H2196.85V583.411ZM2325.12 467.965C2326.25 467.823 2328.03 467.752 2330.44 467.752H2335.98C2345.49 467.752 2354.8 468.462 2363.88 469.882C2368.57 470.592 2372.19 471.302 2374.75 472.012V502.471C2372.62 502.329 2369.07 501.974 2364.1 501.406C2357.42 500.696 2351.6 500.341 2346.63 500.341C2341.09 500.341 2336.62 500.554 2333.21 500.98C2329.95 501.264 2327.25 501.832 2325.12 502.684V467.965ZM2335.98 617.704C2321.78 617.704 2310.49 616.497 2302.11 614.083C2293.88 611.527 2287.63 607.338 2283.37 601.516C2279.25 595.978 2276.41 588.665 2274.85 579.577C2273.43 570.347 2272.72 558.064 2272.72 542.728C2272.72 529.238 2273.22 518.304 2274.21 509.926C2275.35 501.548 2277.33 494.519 2280.17 488.839C2283.16 483.017 2287.49 478.544 2293.17 475.42C2298.99 472.154 2306.66 469.953 2316.17 468.817V542.728C2316.17 550.68 2316.31 558.348 2316.6 565.732C2316.88 571.412 2317.95 575.672 2319.79 578.512C2321.78 581.352 2324.83 583.127 2328.95 583.837C2332.93 584.689 2338.82 585.115 2346.63 585.115C2354.72 585.115 2361.61 584.76 2367.29 584.05C2369.56 583.908 2372.33 583.553 2375.6 582.985V613.87C2368.64 615.432 2360.76 616.497 2351.96 617.065C2347.13 617.491 2341.8 617.704 2335.98 617.704ZM2397.61 469.456H2440.21V616H2397.61V469.456ZM2479.83 559.555H2449.16V525.475H2479.83V469.456H2522.43V616H2479.83V559.555ZM2583.31 469.456H2586.93L2603.76 527.818L2579.26 616H2536.66L2583.31 469.456ZM2631.24 590.014H2595.67L2604.61 557.212H2621.65L2596.52 469.456H2635.5L2682.14 616H2638.69L2631.24 590.014Z" fill="white"/>
<path d="M1780.85 653.846V647.456H1820.04L1881.38 777.812L1874.35 794H1846.66L1780.85 653.846ZM1901.19 732.443H1900.34L1886.07 766.949L1867.75 727.757L1901.19 647.456H1941.66V794H1901.19V732.443ZM1780.85 674.933L1820.04 758.429V794H1780.85V674.933ZM2002.53 647.456H2006.15L2022.98 705.818L1998.48 794H1955.88L2002.53 647.456ZM2050.45 768.014H2014.88L2023.83 735.212H2040.87L2015.73 647.456H2054.71L2101.36 794H2057.91L2050.45 768.014ZM2132.72 745.649L2130.8 741.389L2125.26 730.526L2119.94 719.237C2119.37 718.243 2118.66 716.752 2117.81 714.764L2109.07 696.659L2085.64 647.456H2129.1L2175.32 745.862V794H2132.72V745.649ZM2160.19 692.825L2180 647.456H2222.6L2205.99 681.962L2198.96 696.446L2185.54 724.349L2180.22 735.425L2160.19 692.825ZM2235.34 647.456H2277.94V794H2235.34V647.456ZM2317.56 737.555H2286.89V703.475H2317.56V647.456H2360.16V794H2317.56V737.555ZM2387.81 647.456H2430.41V794H2387.81V647.456ZM2439.36 647.456H2493.46V680.045H2439.36V647.456ZM2439.36 703.688H2483.45V736.277H2439.36V703.688ZM2439.36 761.411H2493.46V794H2439.36V761.411ZM2519.06 653.846V647.456H2558.26L2619.6 777.812L2612.57 794H2584.88L2519.06 653.846ZM2639.41 732.443H2638.56L2624.29 766.949L2605.97 727.757L2639.41 647.456H2679.88V794H2639.41V732.443ZM2519.06 674.933L2558.26 758.429V794H2519.06V674.933Z" fill="white"/>
<defs>
<clipPath id="clip0_63_136">
<rect width="1198" height="1398" fill="white" transform="translate(2800.5 83)"/>
</clipPath>
<clipPath id="clip1_63_136">
<rect width="1107" height="1312" fill="white" transform="translate(2831.5 99)"/>
</clipPath>
<clipPath id="clip2_63_136">
<rect width="1436.19" height="1189.81" fill="white" transform="translate(2831.5 99)"/>
</clipPath>
</defs>
</svg>
