<svg width="407" height="24" viewBox="0 0 407 24" fill="none" xmlns="http://www.w3.org/2000/svg">
<path fill-rule="evenodd" clip-rule="evenodd" d="M1.38809 0.322266L0 23.0238H4.73429L12.9942 0.322266H9.72191L3.64176 17.9304H3.57842L4.98763 0.322266H1.38809ZM14.7149 0.322266L9.89085 23.0238H19.618L20.3094 19.783H14.1501L15.6279 12.8105H20.5206L21.212 9.56441H16.3193L17.5913 3.56836H23.7506L24.442 0.322266H14.7149ZM25.7697 0.322266L27.3426 11.4118L20.7557 23.0238H24.1283L28.4668 15.1118H28.5354L29.4432 23.0238H33.2063L31.5596 11.4118L37.835 0.322266H34.4625L30.4407 7.65369H30.3774L29.5329 0.322266H25.7697Z" fill="black"/>
<path fill-rule="evenodd" clip-rule="evenodd" d="M75.5359 3.56807C76.1658 3.56807 76.5862 3.75106 76.7973 4.11701C77.012 4.48296 77.0331 5.07764 76.8607 5.90105L76.5915 7.16781C76.405 8.02993 76.0954 8.6457 75.6626 9.01519C75.2298 9.38114 74.6563 9.56412 73.942 9.56412H72.5486L73.8206 3.56807H75.5359ZM49.4017 3.56807C50.028 3.56807 50.4484 3.75106 50.6631 4.11701C50.8777 4.48296 50.8988 5.07764 50.7264 5.90105L50.3517 7.6534C50.1687 8.51904 49.8591 9.13483 49.4228 9.50078C48.9865 9.86673 48.4129 10.0497 47.7022 10.0497H46.4038L47.7813 3.56807H49.4017ZM73.4459 12.8102C74.2657 12.8102 74.8111 13.0108 75.082 13.4119C75.3565 13.8096 75.3829 14.5274 75.1612 15.5654L74.7442 17.5448C74.5683 18.3646 74.2938 18.9435 73.9209 19.2813C73.5479 19.6156 73.0483 19.7827 72.422 19.7827H70.3794L71.8572 12.8102H73.4459ZM62.5122 3.24082C63.7437 3.24082 64.2011 3.98681 63.8844 5.47879L61.2507 17.8667C60.9341 19.3587 60.16 20.1047 58.9285 20.1047C57.6969 20.1047 57.2395 19.3587 57.5562 17.8667L60.1899 5.47879C60.5065 3.98681 61.2806 3.24082 62.5122 3.24082ZM88.5838 3.24082C89.8153 3.24082 90.2728 3.98681 89.9561 5.47879L87.3224 17.8667C87.0057 19.3587 86.2316 20.1047 85.0001 20.1047C83.7686 20.1047 83.3112 19.3587 83.6279 17.8667L86.2615 5.47879C86.5782 3.98681 87.3523 3.24082 88.5838 3.24082ZM44.9049 0.321977L40.0809 23.0236H43.6487L45.7177 13.2958H46.9474C47.7708 13.2958 48.3056 13.5017 48.5519 13.9134C48.7982 14.3215 48.8123 15.0447 48.5941 16.0827L47.7075 20.2366C47.528 21.0777 47.426 21.6618 47.4013 21.989C47.3767 22.3128 47.3908 22.6576 47.4436 23.0236H51.0748C50.9868 22.633 50.9622 22.2388 51.0009 21.8412C51.0431 21.4401 51.1328 20.9158 51.27 20.2683L52.1198 16.278C52.4048 14.9373 52.4523 13.8676 52.2623 13.0689C52.0758 12.2666 51.5779 11.737 50.7686 11.4801L50.7845 11.4115C52.4734 10.7851 53.5694 9.29493 54.0726 6.94085L54.3682 5.54211C54.7447 3.77217 54.6022 2.45965 53.9407 1.60457C53.2792 0.749508 52.0283 0.321977 50.1881 0.321977H44.9049ZM70.9441 0.321977L66.1201 23.0236H71.7305C73.5039 23.0236 74.9466 22.5643 76.0584 21.6459C77.1738 20.7275 77.918 19.3921 78.291 17.6398L78.7027 15.6921C79.2445 13.141 78.6939 11.5628 77.0507 10.9576L77.0612 10.8942C77.9092 10.5705 78.6006 10.0409 79.1355 9.30548C79.6703 8.57005 80.0609 7.61823 80.3071 6.44998L80.5024 5.54211C80.8789 3.77217 80.7364 2.45965 80.0749 1.60457C79.4134 0.749508 78.1643 0.321977 76.3276 0.321977H70.9441ZM63.1983 0C61.446 0 59.9999 0.497907 58.8598 1.49374C57.7198 2.48604 56.9563 3.89005 56.5692 5.70575L54.0358 17.6398C53.6488 19.4555 53.8142 20.8612 54.5319 21.8571C55.2497 22.8494 56.4848 23.3455 58.237 23.3455C59.9858 23.3455 61.4302 22.8494 62.5702 21.8571C63.7137 20.8612 64.4791 19.4555 64.8661 17.6398L67.3995 5.70575C67.7865 3.89005 67.6194 2.48604 66.8981 1.49374C66.1803 0.497907 64.947 0 63.1983 0ZM89.27 0C87.5177 0 86.0715 0.497907 84.9315 1.49374C83.7915 2.48604 83.028 3.89005 82.6409 5.70575L80.1075 17.6398C79.7205 19.4555 79.8858 20.8612 80.6036 21.8571C81.3214 22.8494 82.5565 23.3455 84.3087 23.3455C86.0575 23.3455 87.5019 22.8494 88.6419 21.8571C89.7854 20.8612 90.5507 19.4555 90.9378 17.6398L93.4712 5.70575C93.8582 3.89005 93.6911 2.48604 92.9698 1.49374C92.252 0.497907 91.0187 0 89.27 0Z" fill="black"/>
<path fill-rule="evenodd" clip-rule="evenodd" d="M95.9467 0.321977L95.2553 3.56807H98.9815L94.8489 23.0236H98.4167L102.549 3.56807H106.281L106.972 0.321977H95.9467ZM108.69 0.321977L103.866 23.0236H107.434L112.258 0.321977H108.69ZM120.009 0C118.302 0 116.897 0.487353 115.792 1.46206C114.691 2.43325 113.95 3.80559 113.57 5.57907L110.979 17.7717C110.606 19.5417 110.764 20.914 111.454 21.8887C112.143 22.8599 113.341 23.3455 115.048 23.3455C116.758 23.3455 118.165 22.8599 119.27 21.8887C120.375 20.914 121.114 19.5417 121.487 17.7717L122.173 14.5573H118.8L118.061 18.0304C117.769 19.4132 117.029 20.1047 115.839 20.1047C114.65 20.1047 114.202 19.4132 114.494 18.0304L117.191 5.35211C117.49 3.94458 118.234 3.24082 119.423 3.24082C120.612 3.24082 121.058 3.94458 120.758 5.35211L120.199 7.97538H123.572L124.078 5.57907C124.458 3.80559 124.302 2.43325 123.609 1.46206C122.919 0.487353 121.719 0 120.009 0ZM132.235 0C130.507 0 129.084 0.49263 127.965 1.47791C126.846 2.45965 126.097 3.84782 125.717 5.64241C125.435 6.96196 125.476 8.14603 125.838 9.19463C126.201 10.2433 126.978 11.415 128.171 12.7099C129.125 13.7269 129.74 14.5978 130.018 15.3226C130.296 16.0475 130.335 16.885 130.134 17.8351C129.965 18.6338 129.686 19.2127 129.295 19.5716C128.905 19.927 128.407 20.1047 127.802 20.1047C126.57 20.1047 126.109 19.3693 126.419 17.8984L126.751 16.3413H123.379L123.104 17.6398C122.714 19.4766 122.856 20.8876 123.532 21.8729C124.211 22.8546 125.414 23.3455 127.142 23.3455C128.894 23.3455 130.335 22.8494 131.464 21.8571C132.594 20.8612 133.356 19.4344 133.75 17.5764C134.056 16.1478 134.04 14.9039 133.702 13.8447C133.368 12.7856 132.592 11.6085 131.375 10.3136C130.421 9.29669 129.798 8.43106 129.506 7.71674C129.218 7.00243 129.16 6.23533 129.332 5.41545C129.642 3.9657 130.391 3.24082 131.581 3.24082C132.165 3.24082 132.569 3.42029 132.794 3.7792C133.023 4.1346 133.055 4.70112 132.889 5.47879L132.641 6.64526H136.014L136.209 5.70575C136.6 3.86893 136.461 2.45965 135.792 1.47791C135.127 0.49263 133.941 0 132.235 0Z" fill="black"/>
<path fill-rule="evenodd" clip-rule="evenodd" d="M192.113 3.56807C192.698 3.56807 193.1 3.72993 193.322 4.05367C193.547 4.3774 193.577 4.9281 193.412 5.70575L192.842 8.39764C192.676 9.17529 192.413 9.72774 192.05 10.055C191.691 10.3787 191.22 10.5406 190.636 10.5406H188.952L190.43 3.56807H192.113ZM161.675 3.24082C162.907 3.24082 163.364 3.98681 163.048 5.47879L160.414 17.8667C160.097 19.3587 159.323 20.1047 158.092 20.1047C156.86 20.1047 156.403 19.3587 156.719 17.8667L159.353 5.47879C159.67 3.98681 160.444 3.24082 161.675 3.24082ZM170.107 0.321977L165.283 23.0236H168.397L172.05 5.83771H172.113L171.057 23.0236H174.039L180.283 5.83771H180.352L176.699 23.0236H180.072L184.896 0.321977H179.803L174.082 16.5683H174.018L175.201 0.321977H170.107ZM187.553 0.321977L182.729 23.0236H186.297L188.261 13.7814H189.944C191.718 13.7814 193.148 13.3064 194.235 12.3563C195.326 11.4027 196.067 10.0075 196.457 8.17068L196.932 5.93271C197.323 4.0959 197.175 2.70244 196.489 1.75238C195.806 0.798776 194.578 0.321977 192.805 0.321977H187.553ZM200.07 0.321977L195.246 23.0236H204.973L205.665 19.7827H199.506L200.983 12.8102H205.876L206.567 9.56412H201.675L202.947 3.56807H209.106L209.798 0.321977H200.07ZM210.902 0.321977L210.211 3.56807H213.937L209.804 23.0236H213.372L217.505 3.56807H221.236L221.928 0.321977H210.902ZM223.645 0.321977L218.821 23.0236H222.389L227.213 0.321977H223.645ZM149.745 0C148.038 0 146.633 0.487353 145.528 1.46206C144.427 2.43325 143.686 3.80559 143.306 5.57907L140.714 17.7717C140.341 19.5417 140.5 20.914 141.189 21.8887C141.879 22.8599 143.077 23.3455 144.784 23.3455C146.494 23.3455 147.901 22.8599 149.006 21.8887C150.111 20.914 150.85 19.5417 151.223 17.7717L151.909 14.5573H148.536L147.797 18.0304C147.505 19.4132 146.765 20.1047 145.575 20.1047C144.386 20.1047 143.937 19.4132 144.23 18.0304L146.927 5.35211C147.226 3.94458 147.97 3.24082 149.159 3.24082C150.348 3.24082 150.793 3.94458 150.494 5.35211L149.935 7.97538H153.308L153.814 5.57907C154.194 3.80559 154.038 2.43325 153.344 1.46206C152.655 0.487353 151.455 0 149.745 0ZM162.361 0C160.609 0 159.163 0.497907 158.023 1.49374C156.883 2.48604 156.119 3.89005 155.732 5.70575L153.199 17.6398C152.812 19.4555 152.977 20.8612 153.695 21.8571C154.413 22.8494 155.648 23.3455 157.4 23.3455C159.149 23.3455 160.593 22.8494 161.733 21.8571C162.877 20.8612 163.642 19.4555 164.029 17.6398L166.563 5.70575C166.95 3.89005 166.783 2.48604 166.061 1.49374C165.343 0.497907 164.11 0 162.361 0Z" fill="black"/>
<path fill-rule="evenodd" clip-rule="evenodd" d="M273.251 7.23115L272.523 10.6673H275.959L276.687 7.23115H273.251ZM252.44 3.24082C253.671 3.24082 254.129 3.98681 253.812 5.47879L251.178 17.8667C250.862 19.3587 250.088 20.1047 248.856 20.1047C247.625 20.1047 247.167 19.3587 247.484 17.8667L250.118 5.47879C250.434 3.98681 251.208 3.24082 252.44 3.24082ZM228.932 0.321977L228.24 3.56807H231.967L227.834 23.0236H231.402L235.534 3.56807H239.266L239.957 0.321977H228.932ZM241.675 0.321977L236.851 23.0236H240.419L245.243 0.321977H241.675ZM260.872 0.321977L256.048 23.0236H259.225L262.746 6.44998H262.809L263.569 23.0236H267.237L272.061 0.321977H268.878L265.991 13.9134H265.928L265.348 0.321977H260.872ZM270.623 19.5874L269.894 23.0236H273.33L274.059 19.5874H270.623ZM253.126 0C251.374 0 249.928 0.497907 248.788 1.49374C247.648 2.48604 246.884 3.89005 246.497 5.70575L243.964 17.6398C243.577 19.4555 243.742 20.8612 244.46 21.8571C245.177 22.8494 246.413 23.3455 248.165 23.3455C249.914 23.3455 251.358 22.8494 252.498 21.8571C253.641 20.8612 254.407 19.4555 254.794 17.6398L257.327 5.70575C257.714 3.89005 257.547 2.48604 256.826 1.49374C256.108 0.497907 254.875 0 253.126 0Z" fill="black"/>
<path fill-rule="evenodd" clip-rule="evenodd" d="M286.003 0.321977L281.179 23.0236H284.747L286.916 12.8102H290.743L288.573 23.0236H292.141L296.965 0.321977H293.397L291.434 9.56412H287.607L289.571 0.321977H286.003ZM299.622 0.321977L294.798 23.0236H298.366L303.19 0.321977H299.622ZM318.528 0.321977L313.704 23.0236H317.272L319.441 12.8102H323.267L321.098 23.0236H324.666L329.49 0.321977H325.922L323.959 9.56412H320.132L322.096 0.321977H318.528ZM310.973 0C309.246 0 307.823 0.49263 306.704 1.47791C305.588 2.45965 304.835 3.86893 304.445 5.70575L301.911 17.6398C301.521 19.4766 301.674 20.8876 302.37 21.8729C303.071 22.8546 304.285 23.3455 306.012 23.3455C307.743 23.3455 309.167 22.8546 310.282 21.8729C311.401 20.8876 312.156 19.4766 312.546 17.6398L314.124 10.2133H308.968L308.276 13.4594H310.06L309.116 17.8984C308.806 19.3693 308.035 20.1047 306.804 20.1047C305.572 20.1047 305.111 19.3693 305.421 17.8984L308.065 5.47879C308.382 3.98681 309.156 3.24082 310.388 3.24082C311.619 3.24082 312.077 3.98681 311.76 5.47879L311.295 7.6534H314.668L315.08 5.70575C315.47 3.86893 315.315 2.45965 314.615 1.47791C313.919 0.49263 312.705 0 310.973 0Z" fill="black"/>
<path fill-rule="evenodd" clip-rule="evenodd" d="M342.17 0C340.443 0 339.019 0.49263 337.9 1.47791C336.782 2.45965 336.032 3.84782 335.652 5.64241C335.371 6.96196 335.411 8.14603 335.773 9.19463C336.136 10.2433 336.913 11.415 338.106 12.7099C339.06 13.7269 339.676 14.5978 339.954 15.3226C340.232 16.0475 340.27 16.885 340.07 17.8351C339.901 18.6338 339.621 19.2127 339.23 19.5716C338.84 19.927 338.342 20.1047 337.737 20.1047C336.505 20.1047 336.044 19.3693 336.354 17.8984L336.687 16.3413H333.314L333.039 17.6398C332.649 19.4766 332.791 20.8876 333.467 21.8729C334.146 22.8546 335.349 23.3455 337.077 23.3455C338.829 23.3455 340.27 22.8494 341.4 21.8571C342.529 20.8612 343.291 19.4344 343.685 17.5764C343.991 16.1478 343.975 14.9039 343.638 13.8447C343.303 12.7856 342.527 11.6085 341.31 10.3136C340.356 9.29669 339.734 8.43106 339.442 7.71674C339.153 7.00243 339.095 6.23533 339.267 5.41545C339.577 3.9657 340.327 3.24082 341.516 3.24082C342.1 3.24082 342.505 3.42029 342.73 3.7792C342.958 4.1346 342.99 4.70112 342.825 5.47879L342.577 6.64526H345.949L346.145 5.70575C346.535 3.86893 346.396 2.45965 345.728 1.47791C345.063 0.49263 343.877 0 342.17 0Z" fill="black"/>
<path fill-rule="evenodd" clip-rule="evenodd" d="M363.928 4.28092L363.131 15.5024H359.922L363.864 4.28092H363.928ZM348.459 0.322266L347.768 3.56836H351.494L347.362 23.0238H350.929L355.062 3.56836H358.793L359.485 0.322266H348.459ZM362.466 0.322266L353.947 23.0238H357.251L358.845 18.5796H362.899L362.914 18.5162L362.603 23.0238H366.171L367.3 0.322266H362.466Z" fill="black"/>
<path fill-rule="evenodd" clip-rule="evenodd" d="M372.714 0.321977L367.89 23.0236H371.458L372.994 15.7924L375.031 12.9052L375.897 23.0236H379.628L378.372 8.65627L384.389 0.321977H380.821L374.25 9.89136L376.282 0.321977H372.714ZM386.139 0.321977L381.315 23.0236H391.042L391.734 19.7827H385.574L387.052 12.8102H391.945L392.636 9.56412H387.744L389.016 3.56807H395.175L395.866 0.321977H386.139ZM402.81 0C401.082 0 399.659 0.49263 398.54 1.47791C397.421 2.45965 396.671 3.84782 396.291 5.64241C396.01 6.96196 396.05 8.14603 396.413 9.19463C396.775 10.2433 397.553 11.415 398.746 12.7099C399.699 13.7269 400.315 14.5978 400.593 15.3226C400.871 16.0475 400.91 16.885 400.709 17.8351C400.54 18.6338 400.26 19.2127 399.87 19.5716C399.479 19.927 398.981 20.1047 398.376 20.1047C397.145 20.1047 396.684 19.3693 396.993 17.8984L397.326 16.3413H393.953L393.679 17.6398C393.288 19.4766 393.431 20.8876 394.106 21.8729C394.786 22.8546 395.989 23.3455 397.717 23.3455C399.469 23.3455 400.91 22.8494 402.039 21.8571C403.169 20.8612 403.93 19.4344 404.324 17.5764C404.631 16.1478 404.615 14.9039 404.277 13.8447C403.943 12.7856 403.167 11.6085 401.949 10.3136C400.996 9.29669 400.373 8.43106 400.081 7.71674C399.792 7.00243 399.734 6.23533 399.907 5.41545C400.217 3.9657 400.966 3.24082 402.155 3.24082C402.739 3.24082 403.144 3.42029 403.369 3.7792C403.598 4.1346 403.63 4.70112 403.464 5.47879L403.216 6.64526H406.589L406.784 5.70575C407.175 3.86893 407.036 2.45965 406.367 1.47791C405.702 0.49263 404.516 0 402.81 0Z" fill="black"/>
</svg>
