<svg width="927" height="446" viewBox="0 0 927 446" fill="none" xmlns="http://www.w3.org/2000/svg">
<path d="M189.845 101.846V95.456H229.037L290.381 225.812L283.352 242H255.662L189.845 101.846ZM310.19 180.443H309.338L295.067 214.949L276.749 175.757L310.19 95.456H350.66V242H310.19V180.443ZM189.845 122.933L229.037 206.429V242H189.845V122.933ZM378.3 95.456H420.9V242H378.3V95.456ZM429.846 95.456H483.948V128.045H429.846V95.456ZM429.846 151.688H473.937V184.277H429.846V151.688ZM429.846 209.411H483.948V242H429.846V209.411ZM558.117 93.965C559.253 93.823 561.028 93.752 563.442 93.752H568.98C578.494 93.752 587.795 94.462 596.883 95.882C601.569 96.592 605.19 97.302 607.746 98.012V128.471C605.616 128.329 602.066 127.974 597.096 127.406C590.422 126.696 584.6 126.341 579.63 126.341C574.092 126.341 569.619 126.554 566.211 126.98C562.945 127.264 560.247 127.832 558.117 128.684V93.965ZM568.98 243.704C554.78 243.704 543.491 242.497 535.113 240.083C526.877 237.527 520.629 233.338 516.369 227.516C512.251 221.978 509.411 214.665 507.849 205.577C506.429 196.347 505.719 184.064 505.719 168.728C505.719 155.238 506.216 144.304 507.21 135.926C508.346 127.548 510.334 120.519 513.174 114.839C516.156 109.017 520.487 104.544 526.167 101.42C531.989 98.154 539.657 95.953 549.171 94.817V168.728C549.171 176.68 549.313 184.348 549.597 191.732C549.881 197.412 550.946 201.672 552.792 204.512C554.78 207.352 557.833 209.127 561.951 209.837C565.927 210.689 571.82 211.115 579.63 211.115C587.724 211.115 594.611 210.76 600.291 210.05C602.563 209.908 605.332 209.553 608.598 208.985V239.87C601.64 241.432 593.759 242.497 584.955 243.065C580.127 243.491 574.802 243.704 568.98 243.704ZM630.614 95.456H673.214V242H630.614V95.456ZM712.832 185.555H682.16V151.475H712.832V95.456H755.432V242H712.832V185.555ZM816.311 95.456H819.932L836.759 153.818L812.264 242H769.664L816.311 95.456ZM864.236 216.014H828.665L837.611 183.212H854.651L829.517 95.456H868.496L915.143 242H871.691L864.236 216.014Z" fill="white"/>
<path d="M13.845 279.846V273.456H53.037L114.381 403.812L107.352 420H79.662L13.845 279.846ZM134.19 358.443H133.338L119.067 392.949L100.749 353.757L134.19 273.456H174.66V420H134.19V358.443ZM13.845 300.933L53.037 384.429V420H13.845V300.933ZM235.528 273.456H239.149L255.976 331.818L231.481 420H188.881L235.528 273.456ZM283.453 394.014H247.882L256.828 361.212H273.868L248.734 273.456H287.713L334.36 420H290.908L283.453 394.014ZM365.716 371.649L363.799 367.389L358.261 356.526L352.936 345.237C352.368 344.243 351.658 342.752 350.806 340.764L342.073 322.659L318.643 273.456H362.095L408.316 371.862V420H365.716V371.649ZM393.193 318.825L413.002 273.456H455.602L438.988 307.962L431.959 322.446L418.54 350.349L413.215 361.425L393.193 318.825ZM468.342 273.456H510.942V420H468.342V273.456ZM550.56 363.555H519.888V329.475H550.56V273.456H593.16V420H550.56V363.555ZM620.812 273.456H663.412V420H620.812V273.456ZM672.358 273.456H726.46V306.045H672.358V273.456ZM672.358 329.688H716.449V362.277H672.358V329.688ZM672.358 387.411H726.46V420H672.358V387.411ZM752.065 279.846V273.456H791.257L852.601 403.812L845.572 420H817.882L752.065 279.846ZM872.41 358.443H871.558L857.287 392.949L838.969 353.757L872.41 273.456H912.88V420H872.41V358.443ZM752.065 300.933L791.257 384.429V420H752.065V300.933Z" fill="white"/>
</svg>
