<svg width="848" height="862" viewBox="0 0 848 862" fill="none" xmlns="http://www.w3.org/2000/svg">
<path d="M428.997 -543.394L423 -546.854L417.003 -543.394L-87.8897 -252.094L-93.8928 -248.63V-241.7V340.9V347.831L-87.8897 351.294L417.003 642.594L423 646.054L428.997 642.594L933.89 351.294L939.893 347.831V340.9V-241.7V-248.63L933.89 -252.094L428.997 -543.394Z" stroke="white" stroke-width="24"/>
<path d="M433.494 -472.017L423 -478.071L412.506 -472.017L-23.8209 -220.304L-34.3271 -214.243V-202.114V301.314V313.443L-23.8209 319.504L412.506 571.218L423 577.271L433.494 571.218L869.821 319.504L880.327 313.443V301.314V-202.114V-214.243L869.821 -220.304L433.494 -472.017Z" stroke="white" stroke-width="42"/>
<path d="M423.661 211L696.166 368.331V682.992L423.661 840.322L151.157 682.992V368.331L423.661 211Z" fill="black"/>
<path d="M432.336 227.201L426.086 223.593L419.836 227.201L162.21 375.941L155.96 379.55V386.767V684.247V691.464L162.21 695.073L419.836 843.813L426.086 847.421L432.336 843.813L689.961 695.073L696.211 691.464V684.247V386.767V379.55L689.961 375.941L432.336 227.201Z" stroke="white" stroke-width="25"/>
<g clip-path="url(#clip0_336_223)">
<g clip-path="url(#clip1_336_223)">
<path d="M470.651 651.373L471.887 615.634L474.054 583.567L552.375 553.491L535.714 618.546" fill="#E31F2B"/>
<path d="M289.344 658.224H387.159H461.397L407.333 755.432L310.129 760.936L280.786 737.702L289.344 658.224Z" fill="#E31F2B"/>
<path d="M545.39 275.011L336.291 390.219L563.646 390.251L560.304 401.093L469.939 400.632L437.884 444.731L404.851 554.156L361.701 597.689H336.157L349.856 645.719H385.325L461.956 579.326L432.515 544.474L457.003 494.351L541.01 463.202L585.908 318.747L606.806 390.219H688.436L545.39 275.011Z" fill="#E31F2B"/>
<path d="M244.105 600.477L290.566 645.719H338.71L325.013 597.688H306.804L278.648 565.762L313.463 439.718L347.899 400.01L327.743 399.908L336.29 390.219L289.956 442.742L244.105 600.477Z" fill="#E31F2B"/>
<path d="M290.524 563.022L311.642 586.971H357.237L395.36 548.506L428.147 439.897L456.411 401.016H361.215L323.149 444.91L290.524 563.022Z" fill="#E31F2B"/>
<path d="M463.576 503.713L444.013 544.064L472.134 574.633L627.416 513.568L585.908 346.589L549.164 471.92L463.576 503.713Z" fill="white"/>
<path d="M263.324 504.936L243.15 572.188L154.506 544.063L225.421 364.931L226.643 495.764L263.324 504.936Z" fill="white"/>
<mask id="mask0_336_223" style="mask-type:luminance" maskUnits="userSpaceOnUse" x="63" y="36" width="1164" height="973">
<path d="M63.5164 36.1081H1226.7V1008.62H63.5164V36.1081Z" fill="white"/>
</mask>
<g mask="url(#mask0_336_223)">
<path d="M401.425 648.014L464.604 589.553L461.959 647.477" fill="white"/>
</g>
</g>
</g>
<path d="M432.336 227.201L426.086 223.593L419.836 227.201L162.21 375.941L155.96 379.55V386.767V684.247V691.464L162.21 695.073L419.836 843.813L426.086 847.421L432.336 843.813L689.961 695.073L696.211 691.464V684.247V386.767V379.55L689.961 375.941L432.336 227.201Z" stroke="white" stroke-width="25"/>
<defs>
<clipPath id="clip0_336_223">
<rect width="523.547" height="620.5" fill="white" transform="translate(154.617 212.96)"/>
</clipPath>
<clipPath id="clip1_336_223">
<rect width="679.234" height="562.713" fill="white" transform="translate(154.617 212.96)"/>
</clipPath>
</defs>
</svg>
