<svg width="145" height="24" viewBox="0 0 145 24" fill="none" xmlns="http://www.w3.org/2000/svg">
<path fill-rule="evenodd" clip-rule="evenodd" d="M21.7495 3.55364C22.3732 3.55364 22.792 3.7359 23.0058 4.10036C23.2195 4.46488 23.2406 5.05711 23.0689 5.87718L22.6956 7.6225C22.5134 8.48462 22.205 9.09787 21.7705 9.46239C21.3359 9.82684 20.7647 10.0091 20.0568 10.0091H18.7637L20.1357 3.55364H21.7495ZM9.34617 3.55364C9.9279 3.55364 10.3291 3.71488 10.5499 4.03729C10.7742 4.3597 10.804 4.90818 10.6393 5.68267L10.0716 8.36372C9.90687 9.13821 9.64404 9.68839 9.28309 10.0143C8.92564 10.3367 8.45606 10.498 7.87433 10.498H6.19749L7.66932 3.55364H9.34617ZM4.8045 0.32071L0 22.9304H3.55344L5.50888 13.7257H7.18572C8.95193 13.7257 10.3765 13.2526 11.4593 12.3063C12.5457 11.3566 13.2833 9.96706 13.6723 8.13765L14.1454 5.90875C14.5344 4.07933 14.3872 2.69153 13.7039 1.74532C13.024 0.795581 11.801 0.32071 10.0348 0.32071H4.8045ZM17.2709 0.32071L12.4664 22.9304H16.0198L18.0804 13.242H19.3052C20.1252 13.242 20.6578 13.4471 20.9032 13.8571C21.1485 14.2636 21.1625 14.9838 20.9452 16.0177L20.0621 20.1548C19.8834 20.9924 19.7818 21.5742 19.7572 21.9001C19.7327 22.2225 19.7467 22.566 19.7993 22.9304H23.4158C23.3282 22.5414 23.3036 22.1489 23.3422 21.7529C23.3843 21.3534 23.4736 20.8312 23.6103 20.1864L24.4566 16.2122C24.7404 14.8769 24.7878 13.8115 24.5985 13.016C24.4128 12.217 23.9169 11.6895 23.1109 11.4337L23.1267 11.3653C24.8088 10.7415 25.9004 9.25734 26.4015 6.91278L26.6959 5.51973C27.0709 3.75693 26.9289 2.44974 26.2701 1.5981C25.6113 0.74653 24.3655 0.32071 22.5327 0.32071H17.2709ZM30.2863 0.32071L25.4818 22.9304H35.1696L35.8582 19.7027H29.7238L31.1957 12.7585H36.0685L36.7571 9.52545H31.8843L33.1511 3.55364H39.2855L39.9741 0.32071H30.2863ZM54.0887 0.32071L49.2842 22.9304H58.972L59.6606 19.7027H53.5262L54.998 12.7585H59.8709L60.5595 9.52545H55.6867L56.9535 3.55364H63.0879L63.7765 0.32071H54.0887ZM65.8122 0.32071L61.0077 22.9304H64.1722L67.6783 6.42389H67.7414L68.4983 22.9304H72.1516L76.9561 0.32071H73.7864L70.9111 13.8571H70.848L70.2698 0.32071H65.8122ZM46.8894 0C45.1688 0 43.7513 0.490655 42.6369 1.47197C41.5225 2.44974 40.7761 3.83231 40.3976 5.61961C40.1172 6.9338 40.1575 8.11309 40.5185 9.15746C40.8794 10.2018 41.6539 11.3689 42.8419 12.6585C43.7916 13.6714 44.4048 14.5387 44.6817 15.2607C44.9585 15.9826 44.9971 16.8167 44.7973 17.763C44.6291 18.5585 44.3505 19.135 43.9615 19.4924C43.5726 19.8464 43.0767 20.0234 42.4739 20.0234C41.2474 20.0234 40.7883 19.2909 41.0967 17.826L41.4279 16.2753H38.0689L37.7956 17.5685C37.4066 19.3978 37.5485 20.8032 38.2214 21.7845C38.8977 22.7623 40.0962 23.2511 41.8169 23.2511C43.562 23.2511 44.9971 22.7569 46.122 21.7687C47.2469 20.7769 48.0056 19.3558 48.3981 17.5054C48.703 16.0825 48.6872 14.8437 48.3508 13.7887C48.0179 12.7339 47.2451 11.5616 46.0326 10.2719C45.0829 9.2591 44.4627 8.39699 44.1718 7.68557C43.8844 6.97415 43.8266 6.21013 43.9983 5.3936C44.3067 3.94966 45.0532 3.22777 46.2376 3.22777C46.8194 3.22777 47.2224 3.40649 47.4466 3.76393C47.6744 4.11791 47.706 4.68211 47.5413 5.45667L47.2942 6.6184H50.6531L50.8476 5.68267C51.2366 3.85333 51.0982 2.44974 50.4324 1.47197C49.77 0.490655 48.5891 0 46.8894 0Z" fill="black"/>
<path fill-rule="evenodd" clip-rule="evenodd" d="M107.755 3.5552C108.337 3.5552 108.747 3.72691 108.985 4.07042C109.227 4.41385 109.266 4.97281 109.101 5.74736L106.599 17.507C106.434 18.2814 106.159 18.8422 105.774 19.1891C105.392 19.5326 104.91 19.7043 104.328 19.7043H102.52L105.947 3.5552H107.755ZM78.6672 0.322266L77.9786 3.5552H81.6897L77.5739 22.932H81.1273L85.2432 3.5552H88.9596L89.6482 0.322266H78.6672ZM91.3587 0.322266L86.5542 22.932H96.2421L96.9307 19.7043H90.7963L92.2681 12.76H97.141L97.8296 9.52701H92.9567L94.2236 3.5552H100.358L101.047 0.322266H91.3587ZM103.082 0.322266L98.2778 22.932H103.703C105.469 22.932 106.893 22.4589 107.976 21.5127C109.063 20.5629 109.8 19.1734 110.189 17.344L112.618 5.9103C113.007 4.08089 112.86 2.69308 112.176 1.74688C111.496 0.797137 110.273 0.322266 108.507 0.322266H103.082Z" fill="black"/>
<path fill-rule="evenodd" clip-rule="evenodd" d="M125.935 3.5552C126.562 3.5552 126.981 3.73746 127.191 4.10191C127.405 4.46644 127.426 5.05866 127.255 5.87873L126.986 7.14041C126.801 7.99899 126.492 8.61231 126.061 8.9803C125.63 9.34475 125.059 9.52701 124.348 9.52701H122.96L124.227 3.5552H125.935ZM123.854 12.76C124.67 12.76 125.213 12.9598 125.483 13.3592C125.756 13.7553 125.783 14.4702 125.562 15.5041L125.147 17.4754C124.971 18.2919 124.698 18.8684 124.327 19.2049C123.955 19.5378 123.458 19.7043 122.834 19.7043H120.799L122.271 12.76H123.854ZM121.362 0.322266L116.557 22.932H122.145C123.911 22.932 125.348 22.4747 126.456 21.56C127.566 20.6453 128.308 19.3153 128.679 17.57L129.089 15.6302C129.629 13.0894 129.08 11.5176 127.444 10.9148L127.454 10.8518C128.299 10.5293 128.987 10.0019 129.52 9.26944C130.053 8.53699 130.442 7.58902 130.687 6.42545L130.882 5.52129C131.257 3.75848 131.115 2.45129 130.456 1.59965C129.797 0.748086 128.553 0.322266 126.724 0.322266H121.362Z" fill="black"/>
<path fill-rule="evenodd" clip-rule="evenodd" d="M132.857 0.322266L134.392 13.3067L132.347 22.932H135.901L137.946 13.3067L145 0.322266H141.546L137.362 8.62285H137.299L136.637 0.322266H132.857Z" fill="black"/>
</svg>
