<svg width="1230" height="127" viewBox="0 0 1230 127" fill="none" xmlns="http://www.w3.org/2000/svg">
<path fill-rule="evenodd" clip-rule="evenodd" d="M1088.95 8C1076.18 8 1063.46 9.32448 1050.81 11.9735L1045.96 34.6768L1056.07 33.4198C1063.85 32.5818 1070.32 32.1628 1075.5 32.1628C1081.84 32.1628 1085.98 32.3168 1087.93 32.6246L1093.19 8.04851C1091.78 8.01619 1090.36 8 1088.95 8ZM1099.82 8.20244L1092.93 40.3463C1092.54 42.2446 1092.12 43.6983 1091.69 44.7074C1091.26 45.6993 1090.6 46.563 1089.71 47.2984C1088.92 48.0338 1087.59 48.7949 1085.74 49.5815C1083.88 50.3682 1081.68 51.2319 1079.13 52.1726L1059.01 59.5864C1053.96 61.4677 1049.83 63.5969 1046.63 65.9742C1043.45 68.3343 1040.77 71.1391 1038.59 74.3885C1036.56 77.4499 1034.88 81.0841 1033.56 85.2913C1032.25 89.4813 1030.87 94.9883 1029.4 101.812L1026 117.743H1056.59L1061.9 92.8334C1062.42 90.422 1062.84 88.6946 1063.17 87.6514C1063.51 86.591 1064.01 85.7445 1064.66 85.1117C1065.32 84.4789 1066.32 83.8547 1067.68 83.2389C1069.04 82.6062 1070.74 81.9221 1072.79 81.1867L1097.16 72.5158C1104.88 69.8821 1110.84 66.205 1115.04 61.4848C1119.47 56.5422 1122.76 49.0257 1124.91 38.9354C1127.41 27.2715 1126.1 19.0795 1120.99 14.3592C1118.76 12.3583 1115.91 10.9132 1112.46 10.0238C1109.02 9.1174 1104.8 8.51023 1099.82 8.20244ZM1068.51 93.1669L1063.24 117.743H1108.07L1113.33 93.1669H1068.51ZM1188.58 8.04851C1187.31 8.04851 1186.34 8.09979 1185.69 8.20244L1180.51 32.4706C1182.86 32.2654 1184.84 32.1628 1186.44 32.1628C1190.02 32.1628 1192.52 32.4022 1193.94 32.8811C1195.39 33.3429 1196.29 34.4716 1196.65 36.2674C1196.89 38.046 1196.65 41.1416 1195.93 45.554C1195.43 48.3929 1194.2 54.3787 1192.24 63.5114L1180.48 118.538C1188.44 117.905 1194.86 116.46 1199.72 114.203C1204.59 111.945 1208.54 108.61 1211.59 104.198C1214.35 100.196 1216.6 95.2534 1218.32 89.3702C1220.05 83.487 1222.14 74.8674 1224.56 63.5114C1227.26 50.907 1228.97 41.4579 1229.69 35.1643C1230.41 28.8535 1229.86 23.757 1228.04 19.8748C1226.08 15.6676 1222.29 12.649 1216.67 10.8191C1211.04 8.97203 1202.69 8.04851 1191.6 8.04851H1188.58ZM1178.96 8.51023C1171 9.14308 1164.58 10.5882 1159.72 12.8457C1154.87 15.1032 1150.91 18.4382 1147.85 22.8506C1145.1 26.8525 1142.86 31.7951 1141.12 37.6783C1139.39 43.5615 1137.3 52.1726 1134.88 63.5114C1132.16 76.2356 1130.45 85.7017 1129.75 91.9099C1129.06 98.1009 1129.63 103.138 1131.45 107.02C1133.38 111.33 1137.18 114.408 1142.88 116.255C1148.57 118.085 1156.91 119 1167.89 119H1170.89C1172.16 119 1173.12 118.949 1173.77 118.846L1178.96 94.5778C1177.84 94.7831 1176.91 94.8857 1176.17 94.8857H1173.03C1169.43 94.8857 1166.95 94.6548 1165.57 94.193C1164.2 93.7142 1163.33 92.5769 1162.97 90.7811C1162.69 88.6775 1162.89 85.5307 1163.56 81.3406C1164.06 78.5016 1165.27 72.5585 1167.2 63.5114L1178.96 8.51023Z" fill="white" fill-opacity="0.2532"/>
<path fill-rule="evenodd" clip-rule="evenodd" d="M184.789 8C172.046 8 159.366 9.32448 146.748 11.9735L141.911 34.6768L151.996 33.4198C159.748 32.5818 166.205 32.1628 171.367 32.1628C177.695 32.1628 181.829 32.3168 183.767 32.6246L189.015 8.04851C187.605 8.01619 186.197 8 184.789 8ZM386.153 8C373.41 8 360.73 9.32448 348.112 11.9735L343.275 34.6768L353.36 33.4198C361.112 32.5818 367.569 32.1628 372.731 32.1628C379.059 32.1628 383.193 32.3168 385.13 32.6246L390.378 8.04851C388.969 8.01619 387.561 8 386.153 8ZM476.235 9.3055L426.739 75.3377L422.186 96.7841H442.895L510.681 9.3055H476.235ZM195.626 8.20244L188.757 40.3463C188.363 42.2446 187.951 43.6983 187.522 44.7074C187.094 45.6993 186.433 46.563 185.542 47.2984C184.753 48.0338 183.432 48.7949 181.58 49.5815C179.728 50.3682 177.532 51.2319 174.994 52.1726L154.928 59.5864C149.886 61.4677 145.77 63.5969 142.58 65.9742C139.407 68.3343 136.732 71.1391 134.554 74.3885C132.53 77.4499 130.858 81.0841 129.538 85.2913C128.234 89.4813 126.854 94.9883 125.396 101.812L122 117.743H152.51L157.81 92.8334C158.324 90.422 158.744 88.6946 159.07 87.6514C159.413 86.591 159.911 85.7445 160.562 85.1117C161.214 84.4789 162.217 83.8547 163.572 83.2389C164.927 82.6062 166.625 81.9221 168.666 81.1867L192.976 72.5158C200.677 69.8821 206.619 66.205 210.804 61.4848C215.229 56.5422 218.513 49.0257 220.657 38.9354C223.143 27.2715 221.84 19.0795 216.746 14.3592C214.517 12.3583 211.679 10.9132 208.231 10.0238C204.801 9.1174 200.6 8.51023 195.626 8.20244ZM164.395 93.1669L159.147 117.743H203.858L209.106 93.1669H164.395ZM396.99 8.20244L390.121 40.3463C389.727 42.2446 389.315 43.6983 388.886 44.7074C388.458 45.6993 387.797 46.563 386.906 47.2984C386.117 48.0338 384.796 48.7949 382.944 49.5815C381.092 50.3682 378.896 51.2319 376.358 52.1726L356.292 59.5864C351.25 61.4677 347.134 63.5969 343.944 65.9742C340.771 68.3343 338.096 71.1391 335.918 74.3885C333.894 77.4499 332.222 81.0841 330.901 85.2913C329.598 89.4813 328.217 94.9883 326.76 101.812L323.364 117.743H353.874L359.174 92.8334C359.688 90.422 360.108 88.6946 360.434 87.6514C360.777 86.591 361.275 85.7445 361.926 85.1117C362.578 84.4789 363.581 83.8547 364.936 83.2389C366.291 82.6062 367.989 81.9221 370.03 81.1867L394.34 72.5158C402.041 69.8821 407.983 66.205 412.168 61.4848C416.593 56.5422 419.877 49.0257 422.021 38.9354C424.507 27.2715 423.204 19.0795 418.11 14.3592C415.881 12.3583 413.042 10.9132 409.595 10.0238C406.165 9.1174 401.963 8.51023 396.99 8.20244ZM365.759 93.1669L360.511 117.743H405.222L410.47 93.1669H365.759ZM494.345 51.0695L477.881 72.6697H469.186L450.484 96.7841H472.607L468.131 117.743H499.104L503.581 96.7841H516.881L522 72.6697H508.7L513.305 51.0695H494.345ZM284.158 8.04851C282.888 8.04851 281.928 8.09979 281.276 8.20244L276.105 32.4706C278.455 32.2654 280.427 32.1628 282.022 32.1628C285.59 32.1628 288.085 32.4022 289.508 32.8811C290.949 33.3429 291.849 34.4716 292.21 36.2674C292.45 38.046 292.21 41.1416 291.489 45.554C290.992 48.3929 289.766 54.3787 287.811 63.5114L276.08 118.538C284.02 117.905 290.417 116.46 295.271 114.203C300.124 111.945 304.069 108.61 307.105 104.198C309.866 100.196 312.104 95.2534 313.819 89.3702C315.551 83.487 317.626 74.8674 320.044 63.5114C322.737 50.907 324.443 41.4579 325.164 35.1643C325.884 28.8535 325.335 23.757 323.517 19.8748C321.562 15.6676 317.781 12.649 312.172 10.8191C306.564 8.97203 298.229 8.04851 287.167 8.04851H284.158ZM274.562 8.51023C266.621 9.14308 260.224 10.5882 255.371 12.8457C250.534 15.1032 246.59 18.4382 243.537 22.8506C240.793 26.8525 238.555 31.7951 236.823 37.6783C235.091 43.5615 233.016 52.1726 230.597 63.5114C227.888 76.2356 226.181 85.7017 225.478 91.9099C224.792 98.1009 225.358 103.138 227.176 107.02C229.097 111.33 232.895 114.408 238.572 116.255C244.249 118.085 252.567 119 263.526 119H266.51C267.779 119 268.739 118.949 269.391 118.846L274.562 94.5778C273.447 94.7831 272.521 94.8857 271.784 94.8857H268.645C265.061 94.8857 262.583 94.6548 261.21 94.193C259.838 93.7142 258.972 92.5769 258.612 90.7811C258.338 88.6775 258.535 85.5307 259.204 81.3406C259.701 78.5016 260.91 72.5585 262.831 63.5114L274.562 8.51023Z" fill="white" fill-opacity="0.2532"/>
<path fill-rule="evenodd" clip-rule="evenodd" d="M62.8091 17.0402C53.4034 17.0402 43.3462 18.0821 32.6373 20.1657L28.6639 38.8554L45.1947 37.282C49.2318 37.1119 52.334 37.0268 54.5013 37.0268C58.0709 37.0268 60.8756 37.1544 62.9154 37.4096L67.2287 17.1678C66.2796 17.0827 64.8064 17.0402 62.8091 17.0402ZM-181.139 17C-191.664 17 -202.138 18.0978 -212.56 20.2933L-216.554 39.1105L-208.225 38.0687C-201.822 37.3741 -196.489 37.0268 -192.225 37.0268C-186.998 37.0268 -183.585 37.1544 -181.984 37.4096L-177.649 17.0402C-178.813 17.0134 -179.977 17 -181.139 17ZM-14.8231 17C-25.3483 17 -35.8217 18.0978 -46.2434 20.2933L-50.238 39.1105L-41.9089 38.0687C-35.5062 37.3741 -30.173 37.0268 -25.9093 37.0268C-20.6823 37.0268 -17.2685 37.1544 -15.6678 37.4096L-11.3333 17.0402C-12.4972 17.0134 -13.6605 17 -14.8231 17ZM-172.189 17.1678L-177.862 43.8096C-178.188 45.3829 -178.528 46.5878 -178.882 47.4242C-179.236 48.2463 -179.781 48.9621 -180.518 49.5716C-181.17 50.1811 -182.26 50.812 -183.79 51.464C-185.32 52.116 -187.133 52.8318 -189.23 53.6115L-205.803 59.7563C-209.967 61.3156 -213.367 63.0803 -216.002 65.0507C-218.622 67.0068 -220.832 69.3315 -222.631 72.0247C-224.303 74.5621 -225.684 77.5742 -226.774 81.0612C-227.851 84.5341 -228.991 89.0984 -230.195 94.7542L-233 107.958H-207.8L-203.423 87.3124C-202.998 85.3137 -202.651 83.882 -202.382 83.0173C-202.099 82.1385 -201.688 81.4368 -201.15 80.9124C-200.611 80.3879 -199.783 79.8705 -198.664 79.3602C-197.544 78.8357 -196.142 78.2688 -194.456 77.6593L-174.377 70.4726C-168.017 68.2896 -163.109 65.242 -159.653 61.3297C-155.998 57.2332 -153.285 51.0033 -151.515 42.6401C-149.461 32.9728 -150.537 26.183 -154.744 22.2707C-156.586 20.6122 -158.93 19.4145 -161.777 18.6774C-164.61 17.9261 -168.081 17.4229 -172.189 17.1678ZM-197.984 87.5888L-202.318 107.958H-165.389L-161.055 87.5888H-197.984ZM-5.87257 17.1678L-11.5457 43.8096C-11.8715 45.3829 -12.2115 46.5878 -12.5656 47.4242C-12.9198 48.2463 -13.4651 48.9621 -14.2017 49.5716C-14.8533 50.1811 -15.944 50.812 -17.4739 51.464C-19.0037 52.116 -20.8169 52.8318 -22.9133 53.6115L-39.4866 59.7563C-43.6512 61.3156 -47.0508 63.0803 -49.6855 65.0507C-52.3061 67.0068 -54.5159 69.3315 -56.3149 72.0247C-57.9864 74.5621 -59.3675 77.5742 -60.4582 81.0612C-61.5347 84.5341 -62.675 89.0984 -63.8791 94.7542L-66.6838 107.958H-41.4839L-37.1068 87.3124C-36.6819 85.3137 -36.3349 83.882 -36.0657 83.0173C-35.7824 82.1385 -35.3716 81.4368 -34.8333 80.9124C-34.295 80.3879 -33.4664 79.8705 -32.3473 79.3602C-31.2283 78.8357 -29.8259 78.2688 -28.1403 77.6593L-8.0611 70.4726C-1.70091 68.2896 3.20732 65.242 6.66364 61.3297C10.3183 57.2332 13.0309 51.0033 14.8015 42.6401C16.8555 32.9728 15.7789 26.183 11.5719 22.2707C9.73039 20.6122 7.38608 19.4145 4.53886 18.6774C1.70583 17.9261 -1.76465 17.4229 -5.87257 17.1678ZM-31.6674 87.5888L-36.002 107.958H0.926727L5.26129 87.5888H-31.6674ZM72.6256 17.5505L66.825 44.8514C66.4142 46.7792 66.0034 48.2037 65.5926 49.1251C65.1818 50.0323 64.5727 50.7481 63.7653 51.2726C62.9579 51.783 61.8813 52.1302 60.5356 52.3145C59.1899 52.4846 57.391 52.5696 55.1387 52.5696H40.7752L36.5256 72.5563H50.8891C55.4078 72.5563 58.2267 72.9886 59.3458 73.8532C60.0115 74.4628 60.3798 75.3133 60.4507 76.4047C60.5215 77.4962 60.3515 78.9988 59.9407 80.9124L54.0975 108.49C64.5798 107.441 72.2715 104.783 77.1726 100.516C81.4647 96.7741 84.3828 91.2459 85.9268 83.9316C87.4141 76.9576 87.1096 71.8192 85.0131 68.5164C83.1716 65.724 79.5666 63.6757 74.198 62.3716L74.3042 61.84C79.9845 60.5359 84.404 58.275 87.5629 55.0573C90.7217 51.8255 92.981 47.0343 94.3409 40.684C95.7999 33.795 94.8367 28.4581 91.4512 24.6734C88.0799 20.8887 81.8047 18.5144 72.6256 17.5505ZM-99.0663 17.0402C-100.114 17.0402 -100.908 17.0827 -101.446 17.1678L-105.717 37.282C-103.776 37.1119 -102.147 37.0268 -100.83 37.0268C-97.8835 37.0268 -95.8224 37.2253 -94.6467 37.6222C-93.4568 38.0049 -92.7132 38.9404 -92.4157 40.4288C-92.2174 41.903 -92.4157 44.4687 -93.0106 48.1258C-93.4214 50.4788 -94.4342 55.4401 -96.0491 63.0094L-105.738 108.617C-99.1796 108.093 -93.896 106.895 -89.8872 105.024C-85.8784 103.153 -82.6204 100.389 -80.1132 96.7316C-77.8326 93.4146 -75.984 89.3181 -74.5675 84.442C-73.1368 79.5658 -71.4229 72.4216 -69.4256 63.0094C-67.2016 52.5625 -65.7922 44.7309 -65.1972 39.5145C-64.6023 34.284 -65.0556 30.0599 -66.5571 26.8422C-68.1719 23.3551 -71.2954 20.8533 -75.9274 19.3365C-80.5594 17.8057 -87.4437 17.0402 -96.5802 17.0402H-99.0663ZM-106.992 17.4229C-113.55 17.9474 -118.834 19.1452 -122.843 21.0163C-126.837 22.8873 -130.095 25.6515 -132.617 29.3086C-134.883 32.6255 -136.732 36.7221 -138.162 41.5983C-139.593 46.4744 -141.307 53.6115 -143.304 63.0094C-145.542 73.5556 -146.952 81.4014 -147.532 86.5469C-148.099 91.6783 -147.632 95.8528 -146.13 99.0705C-144.544 102.643 -141.406 105.194 -136.717 106.725C-132.029 108.242 -125.159 109 -116.107 109H-113.642C-112.594 109 -111.801 108.957 -111.262 108.872L-106.992 88.7582C-107.912 88.9283 -108.677 89.0133 -109.286 89.0133H-111.879C-114.839 89.0133 -116.886 88.822 -118.019 88.4392C-119.153 88.0423 -119.868 87.0997 -120.165 85.6114C-120.392 83.8679 -120.229 81.2596 -119.677 77.7868C-119.266 75.4338 -118.267 70.508 -116.681 63.0094L-106.992 17.4229ZM17.8913 87.1848L13.918 105.874C17.1335 106.654 21.7655 107.37 27.814 108.022C33.8626 108.674 39.2808 109 44.0686 109C46.1509 109 47.6382 108.957 48.5306 108.872L52.8015 88.7582C49.9684 88.9283 47.5957 89.0133 45.6834 89.0133C37.4109 89.0133 28.1469 88.4039 17.8913 87.1848Z" fill="white" fill-opacity="0.1709"/>
<path fill-rule="evenodd" clip-rule="evenodd" d="M958.251 1.4937L952.269 29.4362H997.018L1003 1.4937H958.251ZM617.284 0C602.614 0 588.016 1.51542 573.49 4.5462L567.922 30.5222L579.532 29.0839C588.456 28.1252 595.889 27.6457 601.832 27.6457C609.118 27.6457 613.876 27.8219 616.107 28.174L622.148 0.0554664C620.526 0.0184652 618.905 0 617.284 0ZM849.098 0C834.428 0 819.83 1.51542 805.304 4.5462L799.736 30.5222L811.346 29.0839C820.27 28.1252 827.703 27.6457 833.646 27.6457C840.932 27.6457 845.69 27.8219 847.921 28.174L853.962 0.0554664C852.34 0.0184652 850.719 0 849.098 0ZM629.76 0.231558L621.852 37.0088C621.398 39.1808 620.924 40.8441 620.431 41.9986C619.937 43.1335 619.177 44.1216 618.15 44.963C617.242 45.8044 615.722 46.6752 613.59 47.5753C611.457 48.4754 608.93 49.4636 606.008 50.5397L582.908 59.0223C577.103 61.1747 572.365 63.6109 568.692 66.3308C565.04 69.0312 561.96 72.2402 559.452 75.958C557.123 79.4606 555.198 83.6188 553.677 88.4324C552.177 93.2264 550.587 99.5271 548.909 107.335L545 125.562H580.124L586.225 97.0616C586.817 94.3026 587.301 92.3263 587.676 91.1327C588.071 89.9195 588.643 88.9509 589.394 88.2269C590.144 87.5029 591.299 86.7887 592.859 86.0842C594.418 85.3603 596.373 84.5776 598.723 83.7361L626.709 73.8154C635.574 70.802 642.415 66.5949 647.233 61.1943C652.327 55.5393 656.108 46.9393 658.575 35.3945C661.438 22.0494 659.938 12.6766 654.074 7.27587C651.507 4.98646 648.24 3.33301 644.271 2.31551C640.322 1.27842 635.485 0.583812 629.76 0.231558ZM593.806 97.4433L587.765 125.562H639.237L645.278 97.4433H593.806ZM861.574 0.231558L853.666 37.0088C853.212 39.1808 852.738 40.8441 852.245 41.9986C851.751 43.1335 850.991 44.1216 849.964 44.963C849.056 45.8044 847.536 46.6752 845.404 47.5753C843.271 48.4754 840.744 49.4636 837.822 50.5397L814.722 59.0223C808.917 61.1747 804.179 63.6109 800.506 66.3308C796.854 69.0312 793.774 72.2402 791.266 75.958C788.937 79.4606 787.012 83.6188 785.491 88.4324C783.991 93.2264 782.401 99.5271 780.723 107.335L776.814 125.562H811.938L818.039 97.0616C818.631 94.3026 819.115 92.3263 819.49 91.1327C819.885 89.9195 820.457 88.9509 821.208 88.2269C821.958 87.5029 823.113 86.7887 824.673 86.0842C826.232 85.3603 828.187 84.5776 830.537 83.7361L858.523 73.8154C867.388 70.802 874.229 66.5949 879.047 61.1943C884.141 55.5393 887.922 46.9393 890.39 35.3945C893.252 22.0494 891.752 12.6766 885.888 7.27587C883.321 4.98646 880.054 3.33301 876.085 2.31551C872.137 1.27842 867.299 0.583812 861.574 0.231558ZM825.62 97.4433L819.579 125.562H871.051L877.092 97.4433H825.62ZM919.869 1.4937L903.936 75.7819C905.674 75.6646 909.435 75.371 915.22 74.9014C924.361 74.1774 932.93 73.8154 940.926 73.8154C945.309 73.8154 948.616 73.9621 950.847 74.2557C953.078 74.5492 954.776 75.1166 955.941 75.958C957.086 76.7994 957.698 78.0322 957.777 79.6563C957.856 81.2805 957.56 83.6579 956.889 86.7887L948.419 126.296C955.98 125.572 962.427 124.221 967.758 122.245C973.108 120.249 977.471 117.568 980.848 114.203C984.244 110.837 986.998 106.748 989.11 101.934C991.243 97.1204 993.069 91.1718 994.589 84.0884C995.932 77.8268 996.534 72.4457 996.396 67.9451C996.277 63.4446 995.221 59.6289 993.227 56.4981C988.765 49.6495 979.318 46.2251 964.885 46.2251C961.37 46.2251 955.388 46.4013 946.938 46.7535L940.807 47.3112L950.61 1.4937H919.869ZM731.679 0.0554664C730.218 0.0554664 729.112 0.114187 728.362 0.231558L722.409 27.998C725.114 27.7631 727.385 27.6457 729.221 27.6457C733.327 27.6457 736.2 27.9197 737.839 28.4676C739.497 28.9959 740.534 30.2874 740.949 32.3419C741.225 34.3769 740.949 37.9187 740.119 42.9672C739.547 46.2153 738.135 53.064 735.884 63.5131L722.38 126.472C731.521 125.748 738.885 124.094 744.473 121.511C750.06 118.928 754.601 115.113 758.096 110.064C761.275 105.485 763.851 99.8304 765.826 93.0992C767.82 86.3679 770.209 76.506 772.992 63.5131C776.092 49.0917 778.057 38.2807 778.886 31.0798C779.715 23.8594 779.083 18.0283 776.991 13.5864C774.74 8.77282 770.386 5.31912 763.93 3.2254C757.474 1.11209 747.879 0.0554664 735.144 0.0554664H731.679ZM720.632 0.583812C711.491 1.30778 704.127 2.96123 698.539 5.54417C692.971 8.1271 688.43 11.9428 684.916 16.9912C681.757 21.57 679.18 27.225 677.186 33.9563C675.192 40.6875 672.803 50.5397 670.019 63.5131C666.9 78.0713 664.935 88.902 664.126 96.005C663.336 103.088 663.988 108.851 666.08 113.293C668.292 118.224 672.665 121.746 679.2 123.859C685.735 125.953 695.311 127 707.927 127H711.363C712.824 127 713.929 126.941 714.68 126.824L720.632 99.0575C719.349 99.2923 718.283 99.4098 717.434 99.4098H713.821C709.694 99.4098 706.841 99.1456 705.262 98.6173C703.682 98.0694 702.685 96.7681 702.271 94.7135C701.955 92.3067 702.182 88.7063 702.952 83.9123C703.524 80.664 704.916 73.8643 707.128 63.5131L720.632 0.583812ZM897.954 96.8856L892.416 122.685C897.253 123.879 903.196 124.897 910.244 125.738C917.293 126.579 924.509 127 931.893 127C935.783 127 938.705 126.941 940.659 126.824L946.642 98.8814C943.818 99.1162 939.554 99.2337 933.848 99.2337C923.542 99.2337 911.577 98.451 897.954 96.8856Z" fill="white"/>
</svg>
