<svg width="70" height="70" viewBox="0 0 70 70" fill="none" xmlns="http://www.w3.org/2000/svg">
<path d="M64.1625 4.8846C63.7269 4.44812 63.2095 4.10183 62.6399 3.86556C62.0703 3.62929 61.4597 3.50767 60.8431 3.50767C60.2264 3.50767 59.6158 3.62929 59.0463 3.86556C58.4767 4.10183 57.9593 4.44812 57.5237 4.8846L34.5 27.8613L11.4762 4.83751C11.0403 4.40161 10.5228 4.05583 9.95326 3.81992C9.38372 3.58401 8.7733 3.46259 8.15683 3.46259C7.54037 3.46259 6.92994 3.58401 6.3604 3.81992C5.79086 4.05583 5.27336 4.40161 4.83745 4.83751C4.40155 5.27342 4.05577 5.79092 3.81986 6.36046C3.58394 6.93 3.46252 7.54043 3.46252 8.15689C3.46252 8.77336 3.58394 9.38378 3.81986 9.95332C4.05577 10.5229 4.40155 11.0404 4.83745 11.4763L27.8612 34.5L4.83745 57.5238C4.40155 57.9597 4.05577 58.4772 3.81986 59.0467C3.58394 59.6162 3.46252 60.2267 3.46252 60.8431C3.46252 61.4596 3.58394 62.07 3.81986 62.6396C4.05577 63.2091 4.40155 63.7266 4.83745 64.1625C5.27336 64.5984 5.79086 64.9442 6.3604 65.1801C6.92994 65.416 7.54037 65.5374 8.15683 65.5374C8.7733 65.5374 9.38372 65.416 9.95326 65.1801C10.5228 64.9442 11.0403 64.5984 11.4762 64.1625L34.5 41.1388L57.5237 64.1625C57.9596 64.5984 58.4771 64.9442 59.0466 65.1801C59.6162 65.416 60.2266 65.5374 60.8431 65.5374C61.4595 65.5374 62.07 65.416 62.6395 65.1801C63.2091 64.9442 63.7265 64.5984 64.1625 64.1625C64.5984 63.7266 64.9441 63.2091 65.1801 62.6396C65.416 62.07 65.5374 61.4596 65.5374 60.8431C65.5374 60.2267 65.416 59.6162 65.1801 59.0467C64.9441 58.4772 64.5984 57.9597 64.1625 57.5238L41.1387 34.5L64.1625 11.4763C65.9516 9.6871 65.9516 6.67377 64.1625 4.8846Z" fill="white"/>
</svg>
