<svg width="87" height="87" viewBox="0 0 87 87" fill="none" xmlns="http://www.w3.org/2000/svg">
<path fill-rule="evenodd" clip-rule="evenodd" d="M29 25.375C29 21.5294 30.5277 17.8412 33.247 15.122C35.9662 12.4027 39.6544 10.875 43.5 10.875C47.3456 10.875 51.0338 12.4027 53.753 15.122C56.4723 17.8412 58 21.5294 58 25.375C58 29.2206 56.4723 32.9088 53.753 35.628C51.0338 38.3473 47.3456 39.875 43.5 39.875C39.6544 39.875 35.9662 38.3473 33.247 35.628C30.5277 32.9088 29 29.2206 29 25.375ZM29 47.125C24.193 47.125 19.5828 49.0346 16.1837 52.4337C12.7846 55.8328 10.875 60.443 10.875 65.25C10.875 68.1342 12.0208 70.9003 14.0602 72.9398C16.0997 74.9792 18.8658 76.125 21.75 76.125H65.25C68.1342 76.125 70.9003 74.9792 72.9398 72.9398C74.9792 70.9003 76.125 68.1342 76.125 65.25C76.125 60.443 74.2154 55.8328 70.8163 52.4337C67.4172 49.0346 62.807 47.125 58 47.125H29Z" fill="white"/>
</svg>
