<svg width="667" height="308" viewBox="0 0 667 308" fill="none" xmlns="http://www.w3.org/2000/svg">
<mask id="mask0_386_319" style="mask-type:luminance" maskUnits="userSpaceOnUse" x="0" y="0" width="373" height="308">
<path d="M372.345 0H0V307.429H372.345V0Z" fill="white"/>
</mask>
<g mask="url(#mask0_386_319)">
<path d="M173.245 239.52L173.922 219.994L175.11 202.475L218.045 186.043L208.912 221.585" fill="#E31F2B"/>
<path d="M73.8552 243.263H127.476H168.172L138.535 296.371L85.2493 299.378L69.1638 286.685L73.8552 243.263Z" fill="#E31F2B"/>
<path d="M214.215 33.9004L99.5909 96.8425L224.223 96.8601L222.391 102.783L172.855 102.531L155.283 126.624L137.174 186.407L113.52 210.19H99.5175L107.027 236.431H126.47L168.478 200.158L152.339 181.117L165.763 153.733L211.815 136.715L236.427 57.7951L247.883 96.8425H292.631L214.215 33.9004Z" fill="#E31F2B"/>
<path d="M49.0561 211.712L74.5254 236.43H100.917L93.4085 210.189H83.4264L67.9921 192.746L87.0769 123.884L105.954 102.191L94.9047 102.135L99.5903 96.8418L74.1905 125.537L49.0561 211.712Z" fill="#E31F2B"/>
<path d="M74.5023 191.251L86.0785 204.335H111.073L131.971 183.32L149.945 123.984L165.439 102.742H113.254L92.3866 126.722L74.5023 191.251Z" fill="#E31F2B"/>
<path d="M169.366 158.848L158.642 180.893L174.058 197.594L259.181 164.232L236.427 73.0059L216.284 141.479L169.366 158.848Z" fill="white"/>
<path d="M59.5916 159.516L48.5324 196.258L-0.0610046 180.892L38.8137 83.0264L39.4835 154.505L59.5916 159.516Z" fill="white"/>
<mask id="mask1_386_319" style="mask-type:luminance" maskUnits="userSpaceOnUse" x="-50" y="-97" width="638" height="532">
<path d="M-49.9398 -96.6201H587.7V434.693H-49.9398V-96.6201Z" fill="white"/>
</mask>
<g mask="url(#mask1_386_319)">
<path d="M135.296 237.685L169.93 205.745L168.48 237.391" fill="white"/>
</g>
</g>
<path d="M275.929 102.616V99.8792H292.714L318.985 155.704L315.975 162.637H304.116L275.929 102.616ZM327.469 136.275H327.104L320.992 151.052L313.147 134.268L327.469 99.8792H344.8V162.637H327.469V136.275ZM275.929 111.646L292.714 147.403V162.637H275.929V111.646ZM356.638 99.8792H374.882V162.637H356.638V99.8792ZM378.713 99.8792H401.883V113.835H378.713V99.8792ZM378.713 123.961H397.595V137.917H378.713V123.961ZM378.713 148.681H401.883V162.637H378.713V148.681ZM433.647 99.2406C434.133 99.1798 434.893 99.1494 435.927 99.1494H438.299C442.373 99.1494 446.357 99.4535 450.249 100.062C452.256 100.366 453.806 100.67 454.901 100.974V114.018C453.989 113.957 452.468 113.805 450.34 113.562C447.482 113.258 444.988 113.106 442.86 113.106C440.488 113.106 438.573 113.197 437.113 113.379C435.714 113.501 434.559 113.744 433.647 114.109V99.2406ZM438.299 163.367C432.218 163.367 427.383 162.85 423.795 161.816C420.268 160.721 417.592 158.927 415.768 156.434C414.004 154.062 412.788 150.931 412.119 147.039C411.511 143.086 411.207 137.826 411.207 131.258C411.207 125.481 411.419 120.798 411.845 117.21C412.332 113.623 413.183 110.612 414.399 108.18C415.676 105.687 417.531 103.771 419.964 102.433C422.457 101.035 425.741 100.092 429.815 99.6055V131.258C429.815 134.663 429.876 137.947 429.998 141.109C430.119 143.542 430.576 145.366 431.366 146.583C432.218 147.799 433.525 148.559 435.289 148.863C436.991 149.228 439.515 149.41 442.86 149.41C446.326 149.41 449.276 149.258 451.708 148.954C452.681 148.893 453.867 148.741 455.266 148.498V161.725C452.286 162.394 448.911 162.85 445.14 163.093C443.073 163.275 440.792 163.367 438.299 163.367ZM464.694 99.8792H482.938V162.637H464.694V99.8792ZM499.905 138.464H486.77V123.869H499.905V99.8792H518.149V162.637H499.905V138.464ZM544.222 99.8792H545.772L552.979 124.873L542.488 162.637H524.244L544.222 99.8792ZM564.746 151.508H549.512L553.344 137.461H560.641L549.877 99.8792H566.571L586.548 162.637H567.939L564.746 151.508Z" fill="white"/>
<path d="M275.929 178.844V176.107H292.714L318.985 231.933L315.975 238.865H304.116L275.929 178.844ZM327.469 212.503H327.104L320.992 227.28L313.147 210.496L327.469 176.107H344.8V238.865H327.469V212.503ZM275.929 187.874L292.714 223.632V238.865H275.929V187.874ZM370.868 176.107H372.419L379.625 201.101L369.135 238.865H350.891L370.868 176.107ZM391.392 227.737H376.159L379.99 213.689H387.288L376.524 176.107H393.217L413.194 238.865H394.585L391.392 227.737ZM426.623 218.159L425.802 216.334L423.43 211.682L421.149 206.848C420.906 206.422 420.602 205.784 420.237 204.932L416.497 197.179L406.463 176.107H425.072L444.867 218.25V238.865H426.623V218.159ZM438.39 195.537L446.874 176.107H465.118L458.002 190.885L454.992 197.087L449.245 209.037L446.965 213.78L438.39 195.537ZM470.574 176.107H488.818V238.865H470.574V176.107ZM505.785 214.692H492.649V200.098H505.785V176.107H524.029V238.865H505.785V214.692ZM535.871 176.107H554.115V238.865H535.871V176.107ZM557.946 176.107H581.116V190.064H557.946V176.107ZM557.946 200.189H576.829V214.145H557.946V200.189ZM557.946 224.909H581.116V238.865H557.946V224.909ZM592.082 178.844V176.107H608.866L635.138 231.933L632.127 238.865H620.269L592.082 178.844ZM643.621 212.503H643.256L637.144 227.28L629.3 210.496L643.621 176.107H660.953V238.865H643.621V212.503ZM592.082 187.874L608.866 223.632V238.865H592.082V187.874Z" fill="white"/>
<path d="M276.872 284.352C276.872 281.952 277.256 279.904 278.024 278.208C278.792 276.48 280.168 274.576 282.152 272.496C284.104 270.416 285.448 268.64 286.184 267.168C286.952 265.696 287.336 264.16 287.336 262.56C287.336 261.12 287.096 260.128 286.616 259.584C286.168 259.008 285.496 258.72 284.6 258.72C282.776 258.72 281.864 259.824 281.864 262.032V265.632H276.872V262.368C276.872 259.648 277.544 257.568 278.888 256.128C280.232 254.656 282.184 253.92 284.744 253.92C287.304 253.92 289.256 254.656 290.6 256.128C291.944 257.568 292.616 259.648 292.616 262.368C292.616 264.416 292.12 266.416 291.128 268.368C290.168 270.32 288.488 272.56 286.088 275.088C284.52 276.752 283.464 278.112 282.92 279.168C282.376 280.192 282.104 281.296 282.104 282.48V283.2H292.136V288H276.872V284.352ZM303.819 288.48C301.227 288.48 299.243 287.744 297.867 286.272C296.491 284.8 295.803 282.72 295.803 280.032V262.368C295.803 259.68 296.491 257.6 297.867 256.128C299.243 254.656 301.227 253.92 303.819 253.92C306.411 253.92 308.395 254.656 309.771 256.128C311.147 257.6 311.835 259.68 311.835 262.368V280.032C311.835 282.72 311.147 284.8 309.771 286.272C308.395 287.744 306.411 288.48 303.819 288.48ZM303.819 283.68C305.643 283.68 306.555 282.576 306.555 280.368V262.032C306.555 259.824 305.643 258.72 303.819 258.72C301.995 258.72 301.083 259.824 301.083 262.032V280.368C301.083 282.576 301.995 283.68 303.819 283.68ZM315.31 284.352C315.31 281.952 315.694 279.904 316.462 278.208C317.23 276.48 318.606 274.576 320.59 272.496C322.542 270.416 323.886 268.64 324.622 267.168C325.39 265.696 325.773 264.16 325.773 262.56C325.773 261.12 325.534 260.128 325.054 259.584C324.606 259.008 323.934 258.72 323.038 258.72C321.214 258.72 320.302 259.824 320.302 262.032V265.632H315.31V262.368C315.31 259.648 315.982 257.568 317.326 256.128C318.67 254.656 320.622 253.92 323.182 253.92C325.742 253.92 327.694 254.656 329.038 256.128C330.382 257.568 331.054 259.648 331.054 262.368C331.054 264.416 330.558 266.416 329.566 268.368C328.606 270.32 326.926 272.56 324.526 275.088C322.958 276.752 321.902 278.112 321.358 279.168C320.814 280.192 320.542 281.296 320.542 282.48V283.2H330.574V288H315.31V284.352ZM342.352 288.48C339.792 288.48 337.84 287.76 336.496 286.32C335.152 284.848 334.48 282.752 334.48 280.032V277.392H339.472V280.416C339.472 282.592 340.384 283.68 342.208 283.68C344.032 283.68 344.944 282.592 344.944 280.416V272.88C344.944 270.672 344.032 269.568 342.208 269.568C340.384 269.568 339.472 270.672 339.472 272.88V273.168H334.48L335.44 254.4H349.36V259.2H340.144L339.712 267.216H339.808C340.8 265.584 342.32 264.768 344.368 264.768C346.288 264.768 347.744 265.424 348.736 266.736C349.728 268.048 350.224 269.952 350.224 272.448V280.032C350.224 282.752 349.552 284.848 348.208 286.32C346.864 287.76 344.912 288.48 342.352 288.48Z" fill="white"/>
</svg>
