<?xml version="1.0" encoding="UTF-8"?><svg id="Layer_2" xmlns="http://www.w3.org/2000/svg" width="705.7" height="255.2" viewBox="0 0 705.7 255.2"><defs><style>.cls-1{fill:#004385;}</style></defs><g id="Layer_1-2"><g><path class="cls-1" d="M253.1,253.4h-50.9l-40.9-124.9-40.9,124.9h-50.5L0,0H65.1l33.1,133.8L139.2,0h44.1l40.9,133.8L257.3,0h65.1l-69.4,253.4Z"/><path class="cls-1" d="M419.1,253.4v-15.7c-11.7,11.8-22.4,17.5-42.7,17.5s-35.2-6.4-45.9-17.1-16.7-27.1-16.7-44.8c0-28.8,19.6-55.5,65.1-55.5h38.8v-5c0-17.4-8.5-23.8-28.8-23.8s-21.4,3.6-30.6,12.8l-36.3-36.3c19.6-19.6,37.4-25.6,69.8-25.6,54.8,0,84.4,22.8,84.4,69.4v124.2h-57Zm-1.4-76.9h-29.5c-11.4,0-18.5,6.4-18.5,15.3s6.4,16,19.2,16,16.7-1.1,23.1-7.1c4.3-3.9,5.7-10,5.7-19.2v-5Z"/><path class="cls-1" d="M569.4,253.4c-42.4,0-59.4-30.3-59.4-56.6V0h58.4V192.6c0,7.5,3.9,11.7,11.7,11.7h20.3v49.1h-31Z"/><path class="cls-1" d="M674.8,253.4c-42.4,0-59.4-30.3-59.4-56.6V0h58.4V192.6c0,7.5,3.9,11.7,11.7,11.7h20.3v49.1h-31Z"/></g></g></svg>