<?xml version="1.0" encoding="UTF-8"?> <svg xmlns="http://www.w3.org/2000/svg" width="1333" height="289" viewBox="0 0 1333 289" fill="none"><path fill-rule="evenodd" clip-rule="evenodd" d="M39.1761 1.73945C30.8271 3.33145 21.7311 8.33045 15.0811 14.9795C-3.71788 33.7785 -3.71788 63.3505 15.0811 82.1495C42.6491 109.717 89.3841 94.4315 95.7711 55.7585C99.8721 30.9275 82.2771 6.22245 57.2321 1.64845C50.3571 0.392453 46.1291 0.413453 39.1761 1.73945ZM229.439 2.11945C220.699 4.23745 213.856 8.18945 206.927 15.1185C188.084 33.9615 188.148 63.2315 207.073 82.1575C226.07 101.153 255.262 101.153 274.259 82.1575C293.184 63.2315 293.248 33.9615 274.405 15.1185C262.076 2.78945 245.929 -1.87855 229.439 2.11945ZM388.666 14.5545V28.5455L436.268 28.8045L483.871 29.0645L434.308 94.0645L384.745 159.064L384.705 174.314L384.666 189.564H452.666H520.666V175.573V161.582L470.612 161.323L420.558 161.064L469.612 96.3395L518.666 31.6135V16.0895V0.564453H453.666H388.666V14.5545ZM819.666 94.5915V188.619L833.916 188.341L848.166 188.064L848.456 179.832L848.746 171.601L854.144 176.999C865.383 188.238 878.724 193.1 896.166 192.314C919.018 191.285 938.249 178.761 949.551 157.55C955.624 146.153 957.777 136.732 957.777 121.564C957.777 99.1695 951.648 83.5115 937.198 68.9925C924.54 56.2735 910.899 50.5645 893.166 50.5645C877.297 50.5645 864.831 55.4365 854.612 65.6315L849.031 71.1995L849.48 35.8815L849.93 0.564453H834.798H819.666V94.5915ZM1122.67 37.5645V56.5645H1110.64H1098.61L1098.89 69.3145L1099.17 82.0645L1110.86 82.3455L1122.56 82.6275L1122.86 122.845C1123.15 161.478 1123.25 163.273 1125.34 168.367C1129.78 179.188 1137.72 186.639 1148.67 190.25C1155.79 192.6 1176.11 192.681 1182.17 190.383L1186.17 188.865L1186.44 174.715C1186.6 166.932 1186.47 160.564 1186.15 160.564C1185.84 160.564 1183.69 161.545 1181.38 162.744C1178.33 164.322 1175.35 164.932 1170.61 164.95C1162.29 164.983 1158.02 162.705 1154.92 156.579C1152.71 152.229 1152.67 151.447 1152.67 117.352V82.5645H1169.17H1185.67V69.5645V56.5645H1169.17H1152.67V37.5645V18.5645H1137.67H1122.67V37.5645ZM575.166 50.0405C562.503 52.8205 550.975 59.0595 542.416 67.7665C539.253 70.9835 536.666 74.0055 536.666 74.4825C536.666 74.9595 541.103 78.7515 546.526 82.9085L556.386 90.4665L561.372 85.6615C576.196 71.3725 600.747 69.7395 614.525 82.1275C620.313 87.3315 622.6 92.3935 623.383 101.731L623.949 108.479L619.017 106.605C606.115 101.703 584.328 100.081 570.567 102.998C542.816 108.88 526.596 132.68 533.161 157.884C538.568 178.642 554.542 190.99 577.666 192.286C594.274 193.217 606.009 189.071 616.883 178.431C620.181 175.204 623.056 172.564 623.272 172.564C623.489 172.564 623.666 176.176 623.666 180.591V188.619L637.916 188.341L652.166 188.064L652.143 141.064C652.123 99.4485 651.919 93.3195 650.366 87.5645C643.443 61.9065 623.001 48.4005 591.458 48.6435C585.797 48.6875 578.466 49.3165 575.166 50.0405ZM1013.17 50.0405C1000.5 52.8205 988.975 59.0595 980.416 67.7665C977.253 70.9835 974.666 74.0055 974.666 74.4825C974.666 74.9595 979.103 78.7515 984.526 82.9085L994.386 90.4665L999.372 85.6615C1013.92 71.6375 1038.51 69.7535 1052 81.6295C1057.84 86.7705 1060.62 92.6565 1061.36 101.444L1061.95 108.479L1057.02 106.605C1044.12 101.703 1022.33 100.081 1008.57 102.998C980.816 108.88 964.596 132.68 971.161 157.884C976.568 178.642 992.542 190.99 1015.67 192.286C1032.27 193.217 1044.01 189.071 1054.88 178.431C1058.18 175.204 1061.06 172.564 1061.27 172.564C1061.49 172.564 1061.67 176.176 1061.67 180.591V188.619L1075.92 188.341L1090.17 188.064L1090.14 141.064C1090.12 99.4485 1089.92 93.3195 1088.37 87.5645C1081.44 61.9065 1061 48.4005 1029.46 48.6435C1023.8 48.6875 1016.47 49.3165 1013.17 50.0405ZM1245.74 50.1175C1242.2 50.8845 1236.05 53.0615 1232.06 54.9565C1209.43 65.7015 1195.74 85.1185 1192.45 111.118C1189.13 137.43 1199.82 164.271 1219.37 178.715C1231.91 187.975 1246.06 192.516 1262.47 192.547C1306.24 192.628 1337.13 157.145 1332.55 112.019C1329.45 81.3925 1308.14 56.8025 1278.97 50.1955C1270.24 48.2185 1254.66 48.1825 1245.74 50.1175ZM733.357 53.0655C724.352 55.5405 717.359 59.7045 710.416 66.7255L703.666 73.5515V64.5575V55.5645H689.666H675.666V122.564V189.564H690.166H704.666L704.686 153.314C704.697 133.377 705.117 114.226 705.618 110.758C707.484 97.8545 715.2 86.4364 725.473 81.3764C729.262 79.5104 731.804 79.0645 738.666 79.0645C745.971 79.0645 747.976 79.4625 752.924 81.8925C756.091 83.4475 759.842 86.2395 761.259 88.0975C766.441 94.8905 766.666 97.2724 766.666 145.223V189.564H781.756H796.845L796.417 141.314C795.952 88.8935 795.841 87.7675 789.95 75.5645C786.731 68.8985 777.803 59.7375 771.666 56.8025C761.051 51.7255 744.207 50.0825 733.357 53.0655ZM110.847 110.883L53.6121 168.125L62.8201 169.986C91.1561 175.714 113.516 198.074 119.244 226.41L121.105 235.618L178.347 178.383L235.588 121.148L225.652 118.92C197.381 112.579 176.651 91.8495 170.31 63.5785L168.082 53.6425L110.847 110.883ZM1277.42 78.7555C1292.33 84.3035 1302.15 98.6745 1303.41 116.766C1305.6 148.261 1280.86 171.372 1252.69 164.15C1233.1 159.128 1221.69 143.084 1221.69 120.564C1221.69 106.09 1225.9 95.3615 1234.87 86.9705C1246.16 76.4135 1262.6 73.2385 1277.42 78.7555ZM904.04 80.8785C910.555 83.8605 918.602 91.0505 921.996 96.9205C926.52 104.743 928.095 111.316 928.023 122.064C927.952 132.629 926.005 139.851 921.15 147.564C917.794 152.896 910.158 159.442 903.841 162.404C898.882 164.728 896.905 165.064 888.166 165.064C879.427 165.064 877.45 164.728 872.491 162.404C857.298 155.282 848.666 140.457 848.666 121.488C848.666 99.9245 860.256 83.5715 879.166 78.4535C885.03 76.8665 898.05 78.1355 904.04 80.8785ZM608.666 126.062C611.691 126.802 616.325 128.336 618.964 129.471C623.711 131.512 623.755 131.575 623.131 135.299C619.734 155.561 605.969 167.789 586.596 167.754C577.852 167.739 572.767 165.983 567.797 161.263C557.01 151.02 560.878 133.024 575.166 126.977C583.274 123.546 596.861 123.175 608.666 126.062ZM1046.67 126.062C1049.69 126.802 1054.33 128.336 1056.96 129.471C1061.71 131.512 1061.76 131.575 1061.13 135.299C1058.15 153.053 1047.06 164.893 1031.01 167.431C1024.58 168.45 1015.08 167.358 1010.78 165.106C1007.17 163.213 1002 157.634 1000.73 154.249C998.019 147.066 1000.52 136.777 1006.29 131.367C1013.93 124.206 1030.29 122.057 1046.67 126.062ZM36.7781 194.145C11.4231 200.964 -4.26388 227.217 2.19712 252.022C8.88712 277.707 35.1011 293.551 60.1241 287.033C85.7341 280.362 101.651 254.124 95.1741 229.257C88.4231 203.338 61.8991 187.389 36.7781 194.145ZM231.176 193.739C222.827 195.331 213.731 200.33 207.081 206.979C188.282 225.778 188.282 255.35 207.081 274.149C225.88 292.948 255.452 292.948 274.251 274.149C293.05 255.35 293.05 225.778 274.251 206.979C262.714 195.443 247.219 190.68 231.176 193.739ZM521.864 245.237C515.797 248.227 513.612 256.982 517.809 261.487C518.987 262.752 523.644 265.485 528.158 267.56C532.671 269.635 536.657 272.097 537.015 273.03C538.893 277.926 536.753 281.763 531.397 283.099C527.527 284.065 523.069 281.952 520.622 277.992C518.78 275.013 518.306 274.771 516.192 275.734C514.608 276.456 514.022 277.351 514.42 278.438C516.833 285.019 523.443 289.032 530.715 288.333C539.974 287.444 545.346 280.184 542.693 272.145C541.289 267.891 537.044 264.748 528.355 261.528C522.016 259.179 519.758 256.129 521.689 252.521C524.199 247.831 530.527 247.272 534.633 251.377C536.779 253.523 537.945 254.005 539.556 253.409C542.077 252.476 542.166 251.723 540.105 248.781C536.561 243.72 528.227 242.101 521.864 245.237ZM1283.86 245.53C1280.01 247.945 1277.24 253.71 1278.16 257.378C1279.08 261.066 1283.47 264.635 1290.67 267.567C1294.23 269.012 1297.88 271.308 1298.99 272.791C1300.7 275.091 1300.8 275.826 1299.73 278.415C1296.76 285.57 1285.53 284.534 1282.58 276.834C1281.89 275.019 1281.31 274.761 1279.45 275.447C1275.94 276.743 1276.2 278.99 1280.37 283.374C1286.67 289.999 1296.13 290.305 1302.35 284.085C1305.18 281.255 1305.67 280.061 1305.67 276.009C1305.67 271.8 1305.23 270.837 1301.85 267.622C1299.75 265.624 1296.26 263.451 1294.1 262.792C1283.33 259.514 1280.22 253.47 1287.35 249.714C1291.09 247.744 1294.67 248.354 1297.57 251.456C1299.98 254.043 1300.51 254.216 1302.61 253.095L1304.95 251.843L1301.47 248.049C1298.42 244.72 1297.33 244.207 1292.58 243.854C1288.35 243.54 1286.45 243.905 1283.86 245.53ZM384.666 247.064C384.666 249.453 384.933 249.564 390.666 249.564H396.666V268.564V287.564H399.166H401.666V268.564V249.564H407.666C413.399 249.564 413.666 249.453 413.666 247.064V244.564H399.166H384.666V247.064ZM427.666 266.064V287.564H430.166C432.637 287.564 432.666 287.464 432.666 279.064V270.564H436.159C439.433 270.564 440.009 271.099 445.31 279.064C450.561 286.955 451.21 287.564 454.366 287.564H457.766L451.721 278.9L445.676 270.236L448.421 268.543C457.523 262.93 458.002 251.788 449.367 246.524C446.803 244.96 444.326 244.571 436.916 244.568L427.666 244.564V266.064ZM469.666 260.678C469.666 275.238 469.87 277.155 471.784 280.56C476.043 288.137 486.813 290.961 493.714 286.311C500.229 281.92 501.126 278.983 501.502 260.814L501.838 244.564H498.752H495.666V260.114C495.666 278.317 494.903 280.814 488.779 282.648C483.925 284.103 480.033 282.934 477.227 279.181C475.385 276.718 475.132 274.733 474.847 260.494L474.528 244.564H472.097H469.666V260.678ZM553.846 246.814C554.133 248.835 554.802 249.094 560.416 249.362L566.666 249.659V268.612V287.564H569.166H571.666V268.564V249.564H577.666C583.399 249.564 583.666 249.453 583.666 247.064V244.564H568.596C553.541 244.564 553.527 244.566 553.846 246.814ZM618.666 266.064V287.564H621.166H623.666V266.064V244.564H621.166H618.666V266.064ZM640.666 266.064V287.564H643.765H646.864L646.515 270.064C646.323 260.438 646.224 252.563 646.295 252.564C646.366 252.564 651.316 260.426 657.295 270.034C667.063 285.732 668.445 287.507 670.916 287.534L673.666 287.564V266.064V244.564H671.19H668.714L668.44 260.994L668.166 277.425L657.831 260.994C647.757 244.978 647.411 244.564 644.081 244.564H640.666V266.064ZM711.896 265.814L712.166 287.064L714.916 287.38L717.666 287.697V279.13V270.564L721.916 270.54C732.399 270.481 738.839 266.491 740.205 259.205C741.057 254.666 738.463 249.22 734.192 246.58C731.511 244.923 729.21 244.564 721.278 244.564H711.626L711.896 265.814ZM754.666 266.064V287.564H757.166C759.637 287.564 759.666 287.464 759.666 279.064V270.564H763.016C766.109 270.564 766.799 271.215 772.022 279.064C777.023 286.578 778.026 287.564 780.673 287.564C782.319 287.564 783.666 287.286 783.666 286.945C783.666 286.605 781.119 282.691 778.005 278.248C772.77 270.777 772.485 270.09 774.217 269.117C781.183 265.199 783.959 258.595 781.307 252.248C778.849 246.364 774.79 244.572 763.916 244.568L754.666 244.564V266.064ZM796.666 266.064V287.564H799.666H802.666V266.064V244.564H799.666H796.666V266.064ZM814.675 245.314C814.679 245.726 817.945 255.289 821.933 266.564C829.071 286.747 829.229 287.068 832.174 287.345L835.166 287.625L842.666 266.962C846.791 255.598 850.327 245.877 850.523 245.36C850.72 244.844 849.428 244.566 847.653 244.743C844.429 245.064 844.421 245.077 838.323 262.294L832.22 279.523L826.268 262.044C820.442 244.933 820.257 244.564 817.491 244.564C815.937 244.564 814.67 244.902 814.675 245.314ZM870.585 247.251C864.177 263.942 855.666 286.65 855.666 287.054C855.666 287.335 856.979 287.564 858.583 287.564C861.245 287.564 861.667 287.062 863.416 281.814L865.333 276.064H874.64H883.948L886.001 281.814C887.838 286.96 888.348 287.564 890.86 287.564C892.403 287.564 893.659 287.227 893.649 286.814C893.64 286.401 890.114 276.839 885.813 265.564C878.042 245.194 877.972 245.062 874.829 244.751C872.15 244.485 871.499 244.868 870.585 247.251ZM899.666 247.064C899.666 249.453 899.933 249.564 905.666 249.564H911.666V268.564V287.564H914.666H917.666V268.564V249.564H923.666C929.399 249.564 929.666 249.453 929.666 247.064V244.564H914.666H899.666V247.064ZM942.666 266.064V287.564H955.166H967.666V285.064C967.666 282.573 967.633 282.564 958.166 282.564H948.666V275.603V268.642L957.416 268.353C965.403 268.089 966.166 267.89 966.166 266.064C966.166 264.238 965.403 264.039 957.416 263.775L948.666 263.486V256.525V249.564H958.166C967.633 249.564 967.666 249.555 967.666 247.064V244.564H955.166H942.666V266.064ZM1004.67 266.007V287.564H1007.75H1010.84L1010.5 270.563C1010.32 261.212 1010.24 253.562 1010.33 253.563C1010.43 253.564 1013.5 261.214 1017.17 270.564C1023.14 285.813 1024.07 287.564 1026.17 287.564C1028.25 287.564 1029.17 285.885 1034.71 271.814C1038.12 263.151 1041.19 255.533 1041.54 254.883C1041.88 254.234 1042.01 261.322 1041.82 270.633L1041.46 287.564H1044.57H1047.67V266.064V244.564H1043.64C1040.7 244.564 1039.43 245.042 1038.97 246.314C1038.62 247.277 1035.58 255.14 1032.23 263.787L1026.12 279.511L1019.53 262.287L1012.93 245.064L1008.8 244.757L1004.67 244.449V266.007ZM1075.59 247.251C1069.61 262.856 1060.67 286.752 1060.67 287.111C1060.67 287.36 1061.96 287.564 1063.53 287.564C1066.13 287.564 1066.61 286.993 1068.6 281.527L1070.8 275.491L1079.88 275.777L1088.95 276.064L1091 281.814C1092.84 286.961 1093.35 287.564 1095.86 287.564C1097.4 287.564 1098.67 287.227 1098.67 286.814C1098.66 286.401 1095.13 276.839 1090.82 265.564C1083.04 245.217 1082.95 245.062 1079.82 244.751C1077.15 244.485 1076.5 244.87 1075.59 247.251ZM1111.67 266.064V287.564H1114.67H1117.67V279.064V270.564L1120.92 270.578C1123.89 270.591 1124.64 271.314 1129.67 279.064C1134.73 286.865 1135.43 287.537 1138.48 287.55C1142.29 287.566 1142.48 288.13 1135.02 277.43L1129.69 269.796L1132.8 268.51C1138.99 265.945 1141.64 256.706 1137.96 250.484C1135.32 246.007 1131.13 244.564 1120.77 244.564H1111.67V266.064ZM1154.67 266.064V287.564H1157.17C1159.56 287.564 1159.67 287.303 1159.71 281.314C1159.75 275.69 1160.08 274.689 1163.06 271.32C1166.92 266.948 1166.08 266.387 1175.07 279.314C1180.04 286.466 1181.19 287.564 1183.74 287.564C1185.35 287.564 1186.67 287.292 1186.67 286.96C1186.67 286.627 1183.07 281.247 1178.67 275.004C1174.27 268.76 1170.67 263.437 1170.67 263.175C1170.67 262.913 1174.04 258.828 1178.17 254.097C1182.29 249.365 1185.67 245.285 1185.67 245.029C1185.67 244.773 1184.16 244.564 1182.33 244.564C1179.31 244.564 1178.09 245.627 1169.58 255.671L1160.17 266.779L1159.88 255.671C1159.6 244.606 1159.59 244.564 1157.13 244.564H1154.67V266.064ZM1199.67 266.064V287.564H1212.17H1224.67V285.064V282.564H1214.67H1204.67V275.564V268.564H1213.67C1222.6 268.564 1222.67 268.545 1222.67 266.064C1222.67 263.583 1222.6 263.564 1213.67 263.564H1204.67V256.564V249.564H1214.67H1224.67V247.064V244.564H1212.17H1199.67V266.064ZM1236.67 247.064C1236.67 249.453 1236.93 249.564 1242.67 249.564H1248.67V268.564V287.564H1251.67H1254.67V268.564V249.564H1260.67C1266.4 249.564 1266.67 249.453 1266.67 247.064V244.564H1251.67H1236.67V247.064ZM447.031 251.637C450.333 254.234 450.644 259.586 447.666 262.564C446.076 264.154 444.333 264.564 439.166 264.564H432.666V257.064V249.564H438.531C442.951 249.564 445.046 250.075 447.031 251.637ZM732.211 252.019C735.263 255.071 735.376 259.179 732.492 262.25C730.663 264.196 729.311 264.564 723.992 264.564H717.666V257.064V249.564H723.711C728.797 249.564 730.147 249.954 732.211 252.019ZM774.211 252.019C777.263 255.071 777.376 259.179 774.492 262.25C772.663 264.196 771.311 264.564 765.992 264.564H759.666V257.064V249.564H765.711C770.797 249.564 772.147 249.954 774.211 252.019ZM1132.21 252.019C1135.21 255.018 1135.34 258.434 1132.59 261.929C1130.74 264.287 1129.85 264.564 1124.09 264.564H1117.67V257.064V249.564H1123.71C1128.8 249.564 1130.15 249.954 1132.21 252.019ZM878.088 260.116C879.562 264.27 881.019 268.32 881.324 269.116C881.778 270.297 880.555 270.564 874.69 270.564C870.735 270.564 867.649 270.207 867.833 269.77C868.016 269.334 869.481 265.284 871.089 260.77C872.697 256.257 874.326 252.564 874.709 252.564C875.093 252.564 876.613 255.962 878.088 260.116ZM1083.09 260.116C1084.56 264.27 1086.02 268.32 1086.32 269.116C1086.78 270.297 1085.56 270.564 1079.69 270.564C1075.74 270.564 1072.65 270.207 1072.83 269.77C1073.02 269.334 1074.48 265.284 1076.09 260.77C1077.7 256.257 1079.33 252.564 1079.71 252.564C1080.09 252.564 1081.61 255.962 1083.09 260.116Z" fill="black"></path></svg> 