<svg width="3155" height="1326" viewBox="0 0 3155 1326" fill="none" xmlns="http://www.w3.org/2000/svg">
<path d="M359.681 1144.72L229.42 1213.91L16.0211 1208.75L3.53978 1121.85C1.56039 1108.07 10.7851 1095.18 24.4662 1092.6L25.3214 1092.44C30.3404 1091.5 35.4777 1091.35 40.5414 1092.02L61.3692 1094.76C73.7489 1096.38 85.8015 1099.92 97.0978 1105.24V1105.24C106.184 1109.52 115.637 1112.97 125.342 1115.56L168.875 1127.16L231.38 1135.42L274.195 1139.82C285.833 1141.02 297.559 1141.09 309.21 1140.03L348.715 1136.45L359.681 1144.72Z" fill="#252525"/>
<rect x="1087.82" y="742.977" width="96.4997" height="547.359" fill="#252525"/>
<path d="M2076.94 677.916L2224.98 776.028V1222.18H2076.94V677.916Z" fill="#252525"/>
<rect x="2013.34" y="899.953" width="85.5339" height="353.201" fill="#252525"/>
<rect x="943.066" y="974.315" width="192.999" height="351.136" fill="#252525"/>
<path d="M1093.3 796.679L1139.83 1008.91H1046.76L1046.76 818.367L1093.3 796.679Z" fill="#252525"/>
<rect x="1223.79" y="897.889" width="219.318" height="392.446" fill="#252525"/>
<rect x="603.123" y="815.27" width="276.34" height="475.066" fill="#252525"/>
<path d="M784.06 719.226H830.117L879.463 776.027V815.272H735.81V761.052L784.06 719.226Z" fill="#252525"/>
<path d="M659.049 754.339H705.106L738.004 793.584L766.515 852.451H622.862V798.231L659.049 754.339Z" fill="#252525"/>
<path d="M551.994 1082.77C553.35 1082.28 554.77 1083.34 554.677 1084.78L547.197 1201.52L235.766 1220.11L230.283 1139.55H348.722C380.635 1139.55 412.299 1133.94 442.265 1122.96L551.994 1082.77Z" fill="#252525"/>
<rect x="535.135" y="1141.62" width="28.5113" height="59.8996" fill="#252525"/>
<rect x="348.715" y="972.25" width="98.6929" height="218.944" fill="#252525"/>
<rect x="1175.54" y="893.758" width="39.4772" height="303.629" fill="#252525"/>
<rect x="901.395" y="1139.55" width="54.8294" height="76.4237" fill="#252525"/>
<rect x="1853.23" y="945.396" width="125.011" height="260.254" fill="#252525"/>
<rect x="1802.79" y="1104.44" width="92.1134" height="92.9477" fill="#252525"/>
<rect x="1699.71" y="720.259" width="120.625" height="485.394" fill="#252525"/>
<path d="M1699.71 705.802L1750.15 662.427H1781.96V691.344L1820.34 720.261H1699.71V705.802Z" fill="#252525"/>
<path d="M1855.43 928.357L1905.87 877.235H1937.67V911.316L1976.05 945.397H1855.43V928.357Z" fill="#252525"/>
<rect x="1478.2" y="1114.77" width="59.2157" height="90.8822" fill="#252525"/>
<rect x="1633.92" y="1034.21" width="41.6703" height="198.288" fill="#252525"/>
<rect x="2237.04" y="598.391" width="149.136" height="598.996" fill="#252525"/>
<rect x="2289.68" y="557.08" width="96.4997" height="55.7686" fill="#252525"/>
<rect x="2449.78" y="773.962" width="111.852" height="439.953" fill="#252525"/>
<rect x="2552.86" y="916.481" width="149.136" height="320.153" fill="#252525"/>
<rect x="2717.34" y="877.236" width="100.886" height="328.415" fill="#252525"/>
<rect x="2813.84" y="974.315" width="43.8635" height="239.599" fill="#252525"/>
<rect x="2377.4" y="1003.23" width="61.4089" height="218.944" fill="#252525"/>
<path d="M2435.52 963.99L2438.37 965.539H2432.67L2435.52 963.99Z" fill="#252525"/>
<rect x="2897.19" y="988.77" width="103.079" height="187.961" fill="#252525"/>
<rect x="2888.41" y="986.703" width="118.431" height="26.8516" fill="#252525"/>
<path d="M2998.07 1104.43H3085.8V1180.86H2998.07V1104.43Z" fill="#252525"/>
<path d="M2996.98 1089.98L3085.8 1105.19H2999.17L2996.98 1089.98Z" fill="#252525"/>
<path d="M3085.8 1114.76L3154.88 1142.65V1152.98H3148.3V1182.93H3085.8V1114.76Z" fill="#252525"/>
<path d="M1738.57 683.68L1708.52 694.999C1686.18 703.417 1669.49 722.404 1664 745.645V745.645H1433.72V745.645C1428.94 722.479 1412.68 703.347 1390.59 694.885L1361.35 683.68H1738.57Z" fill="#252525"/>
<path d="M1767.04 515.347L1738.57 683.685H1361.35L1331.74 515.347H1767.04Z" fill="#252525"/>
<path d="M1801.95 493.709L1791.12 513.098L1308.3 515.543L1298.34 493.593L1801.95 493.709Z" fill="#252525"/>
<path d="M1548.86 0L1553.61 325.317H1544.11L1548.86 0Z" fill="#252525"/>
<rect x="1514.87" y="305.693" width="67.9884" height="12.393" fill="#252525"/>
<ellipse cx="1548.86" cy="305.693" rx="33.9942" ry="4.13101" fill="#252525"/>
<ellipse cx="1548.86" cy="319.118" rx="33.9942" ry="9.29477" fill="#252525"/>
<rect x="1536.8" y="324.286" width="26.3181" height="49.5721" fill="#252525"/>
<rect x="1473.2" y="371.793" width="153.522" height="47.5066" fill="#252525"/>
<path d="M1473.2 419.3L1461.8 371.277L1484.59 371.277L1473.2 419.3Z" fill="#252525"/>
<path d="M1626.72 419.3L1615.32 371.277L1638.12 371.277L1626.72 419.3Z" fill="#252525"/>
<ellipse cx="1549.96" cy="370.759" rx="87.727" ry="7.22927" fill="#252525"/>
<path d="M1547.77 419.3L1762.39 475.068H1333.14L1547.77 419.3Z" fill="#252525"/>
<ellipse cx="1548.86" cy="485.395" rx="218.221" ry="72.2927" fill="#252525"/>
<ellipse cx="1331.74" cy="491.591" rx="33.9942" ry="10.3275" fill="#252525"/>
<ellipse cx="1768.18" cy="491.591" rx="33.9942" ry="10.3275" fill="#252525"/>
<ellipse cx="1667.29" cy="514.307" rx="123.914" ry="10.3275" fill="#252525"/>
<ellipse cx="1434.82" cy="514.307" rx="123.914" ry="10.3275" fill="#252525"/>
<ellipse cx="1548.86" cy="745.646" rx="115.142" ry="10.3275" fill="#252525"/>
<rect x="1475.38" y="632.044" width="151.329" height="570.079" fill="#252525"/>
<ellipse cx="1548.86" cy="66.0928" rx="5.48294" ry="2.06551" fill="#252525"/>
</svg>
