<svg width="1281" height="54" viewBox="0 0 1281 54" fill="none" xmlns="http://www.w3.org/2000/svg">
<path d="M0.0340001 1.2H8.174V22.29H16.906V1.2H25.046V53H16.906V29.69H8.174V53H0.0340001V1.2ZM42.8742 53.74C38.8782 53.74 35.8196 52.6053 33.6982 50.336C31.5769 48.0667 30.5162 44.86 30.5162 40.716V13.484C30.5162 9.34 31.5769 6.13333 33.6982 3.864C35.8196 1.59466 38.8782 0.459997 42.8742 0.459997C46.8702 0.459997 49.9289 1.59466 52.0502 3.864C54.1716 6.13333 55.2322 9.34 55.2322 13.484V40.716C55.2322 44.86 54.1716 48.0667 52.0502 50.336C49.9289 52.6053 46.8702 53.74 42.8742 53.74ZM42.8742 46.34C45.6862 46.34 47.0922 44.638 47.0922 41.234V12.966C47.0922 9.562 45.6862 7.86 42.8742 7.86C40.0622 7.86 38.6562 9.562 38.6562 12.966V41.234C38.6562 44.638 40.0622 46.34 42.8742 46.34ZM60.7371 1.2H72.3551L77.5351 38.274H77.6831L82.8631 1.2H94.4811V53H86.7851V13.78H86.6371L80.7171 53H73.9091L67.9891 13.78H67.8411V53H60.7371V1.2ZM100.555 1.2H122.755V8.6H108.695V22.29H119.869V29.69H108.695V45.6H122.755V53H100.555V1.2ZM145.654 8.6H137.144V1.2H162.304V8.6H153.794V53H145.654V8.6ZM177.722 53.74C173.726 53.74 170.667 52.6053 168.546 50.336C166.425 48.0667 165.364 44.86 165.364 40.716V13.484C165.364 9.34 166.425 6.13333 168.546 3.864C170.667 1.59466 173.726 0.459997 177.722 0.459997C181.718 0.459997 184.777 1.59466 186.898 3.864C189.019 6.13333 190.08 9.34 190.08 13.484V40.716C190.08 44.86 189.019 48.0667 186.898 50.336C184.777 52.6053 181.718 53.74 177.722 53.74ZM177.722 46.34C180.534 46.34 181.94 44.638 181.94 41.234V12.966C181.94 9.562 180.534 7.86 177.722 7.86C174.91 7.86 173.504 9.562 173.504 12.966V41.234C173.504 44.638 174.91 46.34 177.722 46.34ZM213.8 8.6H205.29V1.2H230.45V8.6H221.94V53H213.8V8.6ZM234.391 1.2H242.531V22.29H251.263V1.2H259.403V53H251.263V29.69H242.531V53H234.391V1.2ZM265.466 1.2H287.666V8.6H273.606V22.29H284.78V29.69H273.606V45.6H287.666V53H265.466V1.2ZM304.2 1.2H312.34V45.6H325.734V53H304.2V1.2ZM336.217 1.2H347.243L355.679 53H347.539L346.059 42.714V42.862H336.809L335.329 53H327.781L336.217 1.2ZM345.097 35.832L341.471 10.228H341.323L337.771 35.832H345.097ZM359.628 1.2H371.69C375.883 1.2 378.942 2.18666 380.866 4.16C382.79 6.084 383.752 9.06866 383.752 13.114V16.296C383.752 21.6733 381.976 25.0773 378.424 26.508V26.656C380.397 27.248 381.778 28.4567 382.568 30.282C383.406 32.1073 383.826 34.5493 383.826 37.608V46.71C383.826 48.19 383.875 49.3987 383.974 50.336C384.072 51.224 384.319 52.112 384.714 53H376.426C376.13 52.1613 375.932 51.372 375.834 50.632C375.735 49.892 375.686 48.56 375.686 46.636V37.164C375.686 34.796 375.291 33.1433 374.502 32.206C373.762 31.2687 372.454 30.8 370.58 30.8H367.768V53H359.628V1.2ZM370.728 23.4C372.356 23.4 373.564 22.9807 374.354 22.142C375.192 21.3033 375.612 19.8973 375.612 17.924V13.928C375.612 12.0533 375.266 10.6967 374.576 9.858C373.934 9.01933 372.898 8.6 371.468 8.6H367.768V23.4H370.728ZM401.017 53.74C397.071 53.74 394.061 52.63 391.989 50.41C389.917 48.1407 388.881 44.9093 388.881 40.716V13.484C388.881 9.29066 389.917 6.084 391.989 3.864C394.061 1.59466 397.071 0.459997 401.017 0.459997C404.964 0.459997 407.973 1.59466 410.045 3.864C412.117 6.084 413.153 9.29066 413.153 13.484V17.924H405.457V12.966C405.457 9.562 404.051 7.86 401.239 7.86C398.427 7.86 397.021 9.562 397.021 12.966V41.308C397.021 44.6627 398.427 46.34 401.239 46.34C404.051 46.34 405.457 44.6627 405.457 41.308V31.17H401.387V23.77H413.153V40.716C413.153 44.9093 412.117 48.1407 410.045 50.41C407.973 52.63 404.964 53.74 401.017 53.74ZM418.38 1.2H440.58V8.6H426.52V22.29H437.694V29.69H426.52V45.6H440.58V53H418.38V1.2ZM455.989 53.74C452.042 53.74 449.058 52.63 447.035 50.41C445.012 48.1407 444.001 44.9093 444.001 40.716V37.756H451.697V41.308C451.697 44.6627 453.103 46.34 455.915 46.34C457.296 46.34 458.332 45.9453 459.023 45.156C459.763 44.3173 460.133 42.9853 460.133 41.16C460.133 38.9893 459.64 37.09 458.653 35.462C457.666 33.7847 455.841 31.7867 453.177 29.468C449.822 26.508 447.479 23.844 446.147 21.476C444.815 19.0587 444.149 16.3453 444.149 13.336C444.149 9.24133 445.185 6.084 447.257 3.864C449.329 1.59466 452.338 0.459997 456.285 0.459997C460.182 0.459997 463.118 1.59466 465.091 3.864C467.114 6.084 468.125 9.29066 468.125 13.484V15.63H460.429V12.966C460.429 11.19 460.084 9.90733 459.393 9.118C458.702 8.27933 457.691 7.86 456.359 7.86C453.646 7.86 452.289 9.51266 452.289 12.818C452.289 14.6927 452.782 16.444 453.769 18.072C454.805 19.7 456.655 21.6733 459.319 23.992C462.723 26.952 465.066 29.6407 466.349 32.058C467.632 34.4753 468.273 37.312 468.273 40.568C468.273 44.8107 467.212 48.0667 465.091 50.336C463.019 52.6053 459.985 53.74 455.989 53.74ZM479.304 8.6H470.794V1.2H495.954V8.6H487.444V53H479.304V8.6ZM511.747 1.2H523.809C528.002 1.2 531.061 2.18666 532.985 4.16C534.909 6.084 535.871 9.06866 535.871 13.114V16.296C535.871 21.6733 534.095 25.0773 530.543 26.508V26.656C532.516 27.248 533.898 28.4567 534.687 30.282C535.526 32.1073 535.945 34.5493 535.945 37.608V46.71C535.945 48.19 535.994 49.3987 536.093 50.336C536.192 51.224 536.438 52.112 536.833 53H528.545C528.249 52.1613 528.052 51.372 527.953 50.632C527.854 49.892 527.805 48.56 527.805 46.636V37.164C527.805 34.796 527.41 33.1433 526.621 32.206C525.881 31.2687 524.574 30.8 522.699 30.8H519.887V53H511.747V1.2ZM522.847 23.4C524.475 23.4 525.684 22.9807 526.473 22.142C527.312 21.3033 527.731 19.8973 527.731 17.924V13.928C527.731 12.0533 527.386 10.6967 526.695 9.858C526.054 9.01933 525.018 8.6 523.587 8.6H519.887V23.4H522.847ZM553.359 53.74C549.363 53.74 546.304 52.6053 544.183 50.336C542.061 48.0667 541.001 44.86 541.001 40.716V13.484C541.001 9.34 542.061 6.13333 544.183 3.864C546.304 1.59466 549.363 0.459997 553.359 0.459997C557.355 0.459997 560.413 1.59466 562.535 3.864C564.656 6.13333 565.717 9.34 565.717 13.484V40.716C565.717 44.86 564.656 48.0667 562.535 50.336C560.413 52.6053 557.355 53.74 553.359 53.74ZM553.359 46.34C556.171 46.34 557.577 44.638 557.577 41.234V12.966C557.577 9.562 556.171 7.86 553.359 7.86C550.547 7.86 549.141 9.562 549.141 12.966V41.234C549.141 44.638 550.547 46.34 553.359 46.34ZM571.222 1.2H583.506C587.699 1.2 590.758 2.18666 592.682 4.16C594.606 6.084 595.568 9.06866 595.568 13.114V15.186C595.568 17.85 595.124 20.0207 594.236 21.698C593.397 23.3753 592.09 24.584 590.314 25.324V25.472C594.359 26.8533 596.382 30.4547 596.382 36.276V40.716C596.382 44.712 595.321 47.7707 593.2 49.892C591.128 51.964 588.069 53 584.024 53H571.222V1.2ZM582.544 22.29C584.172 22.29 585.38 21.8707 586.17 21.032C587.008 20.1933 587.428 18.7873 587.428 16.814V13.928C587.428 12.0533 587.082 10.6967 586.392 9.858C585.75 9.01933 584.714 8.6 583.284 8.6H579.362V22.29H582.544ZM584.024 45.6C585.454 45.6 586.515 45.23 587.205 44.49C587.896 43.7007 588.242 42.3687 588.242 40.494V35.98C588.242 33.612 587.822 31.984 586.984 31.096C586.194 30.1587 584.862 29.69 582.988 29.69H579.362V45.6H584.024ZM612.905 53.74C608.909 53.74 605.851 52.6053 603.729 50.336C601.608 48.0667 600.547 44.86 600.547 40.716V13.484C600.547 9.34 601.608 6.13333 603.729 3.864C605.851 1.59466 608.909 0.459997 612.905 0.459997C616.901 0.459997 619.96 1.59466 622.081 3.864C624.203 6.13333 625.263 9.34 625.263 13.484V40.716C625.263 44.86 624.203 48.0667 622.081 50.336C619.96 52.6053 616.901 53.74 612.905 53.74ZM612.905 46.34C615.717 46.34 617.123 44.638 617.123 41.234V12.966C617.123 9.562 615.717 7.86 612.905 7.86C610.093 7.86 608.687 9.562 608.687 12.966V41.234C608.687 44.638 610.093 46.34 612.905 46.34ZM636.843 8.6H628.333V1.2H653.493V8.6H644.983V53H636.843V8.6ZM657.434 1.2H665.574V53H657.434V1.2ZM683.141 53.74C679.243 53.74 676.259 52.63 674.187 50.41C672.164 48.19 671.153 45.0573 671.153 41.012V13.188C671.153 9.14267 672.164 6.01 674.187 3.79C676.259 1.57 679.243 0.459997 683.141 0.459997C687.038 0.459997 689.998 1.57 692.021 3.79C694.093 6.01 695.129 9.14267 695.129 13.188V18.664H687.433V12.67C687.433 9.46333 686.076 7.86 683.363 7.86C680.649 7.86 679.293 9.46333 679.293 12.67V41.604C679.293 44.7613 680.649 46.34 683.363 46.34C686.076 46.34 687.433 44.7613 687.433 41.604V33.686H695.129V41.012C695.129 45.0573 694.093 48.19 692.021 50.41C689.998 52.63 687.038 53.74 683.141 53.74ZM710.725 53.74C706.779 53.74 703.794 52.63 701.771 50.41C699.749 48.1407 698.737 44.9093 698.737 40.716V37.756H706.433V41.308C706.433 44.6627 707.839 46.34 710.651 46.34C712.033 46.34 713.069 45.9453 713.759 45.156C714.499 44.3173 714.869 42.9853 714.869 41.16C714.869 38.9893 714.376 37.09 713.389 35.462C712.403 33.7847 710.577 31.7867 707.913 29.468C704.559 26.508 702.215 23.844 700.883 21.476C699.551 19.0587 698.885 16.3453 698.885 13.336C698.885 9.24133 699.921 6.084 701.993 3.864C704.065 1.59466 707.075 0.459997 711.021 0.459997C714.919 0.459997 717.854 1.59466 719.827 3.864C721.85 6.084 722.861 9.29066 722.861 13.484V15.63H715.165V12.966C715.165 11.19 714.82 9.90733 714.129 9.118C713.439 8.27933 712.427 7.86 711.095 7.86C708.382 7.86 707.025 9.51266 707.025 12.818C707.025 14.6927 707.519 16.444 708.505 18.072C709.541 19.7 711.391 21.6733 714.055 23.992C717.459 26.952 719.803 29.6407 721.085 32.058C722.368 34.4753 723.009 37.312 723.009 40.568C723.009 44.8107 721.949 48.0667 719.827 50.336C717.755 52.6053 714.721 53.74 710.725 53.74ZM750.998 53.74C747.101 53.74 744.116 52.63 742.044 50.41C740.021 48.19 739.01 45.0573 739.01 41.012V13.188C739.01 9.14267 740.021 6.01 742.044 3.79C744.116 1.57 747.101 0.459997 750.998 0.459997C754.895 0.459997 757.855 1.57 759.878 3.79C761.95 6.01 762.986 9.14267 762.986 13.188V18.664H755.29V12.67C755.29 9.46333 753.933 7.86 751.22 7.86C748.507 7.86 747.15 9.46333 747.15 12.67V41.604C747.15 44.7613 748.507 46.34 751.22 46.34C753.933 46.34 755.29 44.7613 755.29 41.604V33.686H762.986V41.012C762.986 45.0573 761.95 48.19 759.878 50.41C757.855 52.63 754.895 53.74 750.998 53.74ZM779.767 53.74C775.771 53.74 772.712 52.6053 770.591 50.336C768.469 48.0667 767.409 44.86 767.409 40.716V13.484C767.409 9.34 768.469 6.13333 770.591 3.864C772.712 1.59466 775.771 0.459997 779.767 0.459997C783.763 0.459997 786.821 1.59466 788.943 3.864C791.064 6.13333 792.125 9.34 792.125 13.484V40.716C792.125 44.86 791.064 48.0667 788.943 50.336C786.821 52.6053 783.763 53.74 779.767 53.74ZM779.767 46.34C782.579 46.34 783.985 44.638 783.985 41.234V12.966C783.985 9.562 782.579 7.86 779.767 7.86C776.955 7.86 775.549 9.562 775.549 12.966V41.234C775.549 44.638 776.955 46.34 779.767 46.34ZM797.63 1.2H809.248L814.428 38.274H814.576L819.756 1.2H831.374V53H823.678V13.78H823.53L817.61 53H810.802L804.882 13.78H804.734V53H797.63V1.2ZM837.448 1.2H849.436C853.481 1.2 856.515 2.28533 858.538 4.456C860.561 6.62666 861.572 9.80866 861.572 14.002V19.108C861.572 23.3013 860.561 26.4833 858.538 28.654C856.515 30.8247 853.481 31.91 849.436 31.91H845.588V53H837.448V1.2ZM849.436 24.51C850.768 24.51 851.755 24.14 852.396 23.4C853.087 22.66 853.432 21.402 853.432 19.626V13.484C853.432 11.708 853.087 10.45 852.396 9.71C851.755 8.97 850.768 8.6 849.436 8.6H845.588V24.51H849.436ZM865.993 1.2H888.193V8.6H874.133V22.29H885.307V29.69H874.133V45.6H888.193V53H865.993V1.2ZM899.24 8.6H890.73V1.2H915.89V8.6H907.38V53H899.24V8.6ZM919.831 1.2H927.971V53H919.831V1.2ZM940.431 8.6H931.921V1.2H957.081V8.6H948.571V53H940.431V8.6ZM961.022 1.2H969.162V53H961.022V1.2ZM987.025 53.74C983.029 53.74 979.97 52.6053 977.849 50.336C975.727 48.0667 974.667 44.86 974.667 40.716V13.484C974.667 9.34 975.727 6.13333 977.849 3.864C979.97 1.59466 983.029 0.459997 987.025 0.459997C991.021 0.459997 994.079 1.59466 996.201 3.864C998.322 6.13333 999.383 9.34 999.383 13.484V40.716C999.383 44.86 998.322 48.0667 996.201 50.336C994.079 52.6053 991.021 53.74 987.025 53.74ZM987.025 46.34C989.837 46.34 991.243 44.638 991.243 41.234V12.966C991.243 9.562 989.837 7.86 987.025 7.86C984.213 7.86 982.807 9.562 982.807 12.966V41.234C982.807 44.638 984.213 46.34 987.025 46.34ZM1004.89 1.2H1015.1L1023.02 32.206H1023.17V1.2H1030.42V53H1022.06L1012.29 15.186H1012.14V53H1004.89V1.2ZM1048.32 1.2H1056.46V53H1048.32V1.2ZM1062.56 1.2H1072.77L1080.69 32.206H1080.83V1.2H1088.09V53H1079.72L1069.96 15.186H1069.81V53H1062.56V1.2ZM1117.46 53.74C1113.56 53.74 1110.58 52.63 1108.5 50.41C1106.48 48.19 1105.47 45.0573 1105.47 41.012V13.188C1105.47 9.14267 1106.48 6.01 1108.5 3.79C1110.58 1.57 1113.56 0.459997 1117.46 0.459997C1121.35 0.459997 1124.31 1.57 1126.34 3.79C1128.41 6.01 1129.45 9.14267 1129.45 13.188V18.664H1121.75V12.67C1121.75 9.46333 1120.39 7.86 1117.68 7.86C1114.97 7.86 1113.61 9.46333 1113.61 12.67V41.604C1113.61 44.7613 1114.97 46.34 1117.68 46.34C1120.39 46.34 1121.75 44.7613 1121.75 41.604V33.686H1129.45V41.012C1129.45 45.0573 1128.41 48.19 1126.34 50.41C1124.31 52.63 1121.35 53.74 1117.46 53.74ZM1140.61 1.2H1151.63L1160.07 53H1151.93L1150.45 42.714V42.862H1141.2L1139.72 53H1132.17L1140.61 1.2ZM1149.49 35.832L1145.86 10.228H1145.71L1142.16 35.832H1149.49ZM1164.02 1.2H1174.23L1182.15 32.206H1182.29V1.2H1189.55V53H1181.18L1171.42 15.186H1171.27V53H1164.02V1.2ZM1201.89 1.2H1212.91L1221.35 53H1213.21L1211.73 42.714V42.862H1202.48L1201 53H1193.45L1201.89 1.2ZM1210.77 35.832L1207.14 10.228H1206.99L1203.44 35.832H1210.77ZM1225.3 1.2H1237.73C1241.78 1.2 1244.81 2.28533 1246.83 4.456C1248.85 6.62666 1249.87 9.80866 1249.87 14.002V40.198C1249.87 44.3913 1248.85 47.5733 1246.83 49.744C1244.81 51.9147 1241.78 53 1237.73 53H1225.3V1.2ZM1237.58 45.6C1238.91 45.6 1239.93 45.2053 1240.62 44.416C1241.36 43.6267 1241.73 42.344 1241.73 40.568V13.632C1241.73 11.856 1241.36 10.5733 1240.62 9.784C1239.93 8.99466 1238.91 8.6 1237.58 8.6H1233.44V45.6H1237.58ZM1261.51 1.2H1272.53L1280.97 53H1272.83L1271.35 42.714V42.862H1262.1L1260.62 53H1253.07L1261.51 1.2ZM1270.39 35.832L1266.76 10.228H1266.61L1263.06 35.832H1270.39Z" fill="white"/>
</svg>
