<svg width="313" height="47" viewBox="0 0 313 47" fill="none" xmlns="http://www.w3.org/2000/svg">
<path d="M0.76548 1.2H11.1975C14.8241 1.2 17.4695 2.05333 19.1335 3.76C20.7975 5.424 21.6295 8.00533 21.6295 11.504V14.256C21.6295 18.9067 20.0935 21.8507 17.0215 23.088V23.216C18.7281 23.728 19.9228 24.7733 20.6055 26.352C21.3308 27.9307 21.6935 30.0427 21.6935 32.688V40.56C21.6935 41.84 21.7361 42.8853 21.8215 43.696C21.9068 44.464 22.1201 45.232 22.4615 46H15.2935C15.0375 45.2747 14.8668 44.592 14.7815 43.952C14.6961 43.312 14.6535 42.16 14.6535 40.496V32.304C14.6535 30.256 14.3121 28.8267 13.6295 28.016C12.9895 27.2053 11.8588 26.8 10.2375 26.8H7.80548V46H0.76548V1.2ZM10.3655 20.4C11.7735 20.4 12.8188 20.0373 13.5015 19.312C14.2268 18.5867 14.5895 17.3707 14.5895 15.664V12.208C14.5895 10.5867 14.2908 9.41333 13.6935 8.688C13.1388 7.96267 12.2428 7.6 11.0055 7.6H7.80548V20.4H10.3655ZM26.578 1.2H45.778V7.6H33.618V19.44H43.282V25.84H33.618V39.6H45.778V46H26.578V1.2ZM59.812 46.64C56.3986 46.64 53.796 45.68 52.004 43.76C50.212 41.7973 49.316 39.0027 49.316 35.376V11.824C49.316 8.19733 50.212 5.424 52.004 3.504C53.796 1.54133 56.3986 0.559998 59.812 0.559998C63.2253 0.559998 65.828 1.54133 67.62 3.504C69.412 5.424 70.308 8.19733 70.308 11.824V15.664H63.652V11.376C63.652 8.432 62.436 6.96 60.004 6.96C57.572 6.96 56.356 8.432 56.356 11.376V35.888C56.356 38.7893 57.572 40.24 60.004 40.24C62.436 40.24 63.652 38.7893 63.652 35.888V27.12H60.132V20.72H70.308V35.376C70.308 39.0027 69.412 41.7973 67.62 43.76C65.828 45.68 63.2253 46.64 59.812 46.64ZM74.828 1.2H81.868V46H74.828V1.2ZM96.2925 46.64C92.8791 46.64 90.2978 45.68 88.5485 43.76C86.7991 41.7973 85.9245 39.0027 85.9245 35.376V32.816H92.5805V35.888C92.5805 38.7893 93.7965 40.24 96.2285 40.24C97.4231 40.24 98.3191 39.8987 98.9165 39.216C99.5565 38.4907 99.8765 37.3387 99.8765 35.76C99.8765 33.8827 99.4498 32.24 98.5965 30.832C97.7431 29.3813 96.1645 27.6533 93.8605 25.648C90.9591 23.088 88.9325 20.784 87.7805 18.736C86.6285 16.6453 86.0525 14.2987 86.0525 11.696C86.0525 8.15467 86.9485 5.424 88.7405 3.504C90.5325 1.54133 93.1351 0.559998 96.5485 0.559998C99.9191 0.559998 102.458 1.54133 104.164 3.504C105.914 5.424 106.788 8.19733 106.788 11.824V13.68H100.132V11.376C100.132 9.84 99.8338 8.73066 99.2365 8.048C98.6391 7.32266 97.7645 6.96 96.6125 6.96C94.2658 6.96 93.0925 8.38933 93.0925 11.248C93.0925 12.8693 93.5191 14.384 94.3725 15.792C95.2685 17.2 96.8685 18.9067 99.1725 20.912C102.116 23.472 104.143 25.7973 105.252 27.888C106.362 29.9787 106.916 32.432 106.916 35.248C106.916 38.9173 105.999 41.7333 104.164 43.696C102.372 45.6587 99.7485 46.64 96.2925 46.64ZM116.457 7.6H109.097V1.2H130.857V7.6H123.497V46H116.457V7.6ZM134.265 1.2H153.465V7.6H141.305V19.44H150.969V25.84H141.305V39.6H153.465V46H134.265V1.2ZM157.515 1.2H167.947C171.574 1.2 174.219 2.05333 175.883 3.76C177.547 5.424 178.379 8.00533 178.379 11.504V14.256C178.379 18.9067 176.843 21.8507 173.771 23.088V23.216C175.478 23.728 176.673 24.7733 177.355 26.352C178.081 27.9307 178.443 30.0427 178.443 32.688V40.56C178.443 41.84 178.486 42.8853 178.571 43.696C178.657 44.464 178.87 45.232 179.211 46H172.043C171.787 45.2747 171.617 44.592 171.531 43.952C171.446 43.312 171.403 42.16 171.403 40.496V32.304C171.403 30.256 171.062 28.8267 170.379 28.016C169.739 27.2053 168.609 26.8 166.987 26.8H164.555V46H157.515V1.2ZM167.115 20.4C168.523 20.4 169.569 20.0373 170.251 19.312C170.977 18.5867 171.339 17.3707 171.339 15.664V12.208C171.339 10.5867 171.041 9.41333 170.443 8.688C169.889 7.96267 168.993 7.6 167.755 7.6H164.555V20.4H167.115ZM199.082 7.6H191.722V1.2H213.482V7.6H206.122V46H199.082V7.6ZM226.816 46.64C223.36 46.64 220.715 45.6587 218.88 43.696C217.046 41.7333 216.128 38.96 216.128 35.376V11.824C216.128 8.24 217.046 5.46666 218.88 3.504C220.715 1.54133 223.36 0.559998 226.816 0.559998C230.272 0.559998 232.918 1.54133 234.752 3.504C236.587 5.46666 237.504 8.24 237.504 11.824V35.376C237.504 38.96 236.587 41.7333 234.752 43.696C232.918 45.6587 230.272 46.64 226.816 46.64ZM226.816 40.24C229.248 40.24 230.464 38.768 230.464 35.824V11.376C230.464 8.432 229.248 6.96 226.816 6.96C224.384 6.96 223.168 8.432 223.168 11.376V35.824C223.168 38.768 224.384 40.24 226.816 40.24ZM242.265 1.2H253.017C256.516 1.2 259.14 2.13866 260.889 4.016C262.639 5.89333 263.513 8.64533 263.513 12.272V34.928C263.513 38.5547 262.639 41.3067 260.889 43.184C259.14 45.0613 256.516 46 253.017 46H242.265V1.2ZM252.889 39.6C254.041 39.6 254.916 39.2587 255.513 38.576C256.153 37.8933 256.473 36.784 256.473 35.248V11.952C256.473 10.416 256.153 9.30666 255.513 8.624C254.916 7.94133 254.041 7.6 252.889 7.6H249.305V39.6H252.889ZM273.58 1.2H283.116L290.412 46H283.372L282.092 37.104V37.232H274.092L272.812 46H266.284L273.58 1.2ZM281.26 31.152L278.124 9.008H277.996L274.924 31.152H281.26ZM297.354 26.928L288.842 1.2H296.33L301.13 17.648H301.258L306.058 1.2H312.906L304.394 26.928V46H297.354V26.928Z" fill="black"/>
</svg>
