<svg width="1448" height="92" viewBox="0 0 1448 92" fill="none" xmlns="http://www.w3.org/2000/svg">
<path d="M20.248 86.288C19.6507 83.8987 18.8827 80.5707 17.944 76.304L14.488 62.224L10.648 46.096L0.28 1.936H25.752L43.928 90H21.144L20.248 86.288ZM40.344 45.968L49.944 1.936H76.184L97.176 90H75.288L74.264 85.776L71.576 74.64L67.736 58.384C66.1147 51.8133 64.5787 45.3707 63.128 39.056H62.36L58.008 58.384L56.6 64.912C56.1733 66.704 55.7467 68.4107 55.32 70.032C54.9787 71.6533 54.6373 73.1893 54.296 74.64L51.736 85.776L50.712 90H49.304L40.344 45.968ZM92.056 45.2L99.736 1.936H125.208L114.712 46.096L110.872 62.224C109.251 68.7947 108.141 73.488 107.544 76.304L105.112 86.288L104.216 90H102.68L92.056 45.2ZM134.82 1.936H160.42V90H134.82V1.936ZM165.796 1.936H198.308V21.52H165.796V1.936ZM165.796 35.728H192.292V55.312H165.796V35.728ZM165.796 70.416H198.308V90H165.796V70.416ZM213.695 1.936H239.295V90H213.695V1.936ZM244.671 69.392H272.063V90H244.671V69.392ZM312.129 1.03999C312.812 0.954661 313.878 0.911995 315.329 0.911995H318.657C324.374 0.911995 329.964 1.33866 335.425 2.19199C338.241 2.61866 340.417 3.04533 341.953 3.47199V21.776C340.673 21.6907 338.54 21.4773 335.553 21.136C331.542 20.7093 328.044 20.496 325.057 20.496C321.729 20.496 319.041 20.624 316.993 20.88C315.03 21.0507 313.409 21.392 312.129 21.904V1.03999ZM318.657 91.024C310.124 91.024 303.34 90.2987 298.305 88.848C293.356 87.312 289.601 84.7947 287.041 81.296C284.566 77.968 282.86 73.5733 281.921 68.112C281.068 62.5653 280.641 55.184 280.641 45.968C280.641 37.8613 280.94 31.2907 281.537 26.256C282.22 21.2213 283.414 16.9973 285.121 13.584C286.913 10.0853 289.516 7.39733 292.929 5.52C296.428 3.55733 301.036 2.23466 306.753 1.55199V45.968C306.753 50.7467 306.838 55.3547 307.009 59.792C307.18 63.2053 307.82 65.7653 308.929 67.472C310.124 69.1787 311.958 70.2453 314.433 70.672C316.822 71.184 320.364 71.44 325.057 71.44C329.921 71.44 334.06 71.2267 337.473 70.8C338.838 70.7147 340.502 70.5013 342.465 70.16V88.72C338.284 89.6587 333.548 90.2987 328.257 90.64C325.356 90.896 322.156 91.024 318.657 91.024ZM404.591 45.968C404.591 38.544 404.548 33.68 404.463 31.376C404.292 27.8773 403.823 25.36 403.055 23.824C402.287 22.2027 401.05 21.2213 399.343 20.88C397.636 20.624 395.204 20.496 392.047 20.496C388.378 20.496 385.988 20.6667 384.879 21.008V1.03999C385.647 0.954661 386.799 0.911995 388.335 0.911995H392.047C401.604 0.911995 408.986 1.68 414.191 3.216C419.482 4.66666 423.322 7.09866 425.711 10.512C427.93 13.6693 429.295 17.808 429.807 22.928C430.404 28.048 430.703 35.728 430.703 45.968C430.703 54.928 430.49 61.84 430.063 66.704C429.722 71.4827 428.783 75.4507 427.247 78.608C425.54 82.192 422.895 84.9227 419.311 86.8C415.812 88.6773 410.906 89.9147 404.591 90.512V45.968ZM392.047 91.024C379.588 91.024 370.628 89.6587 365.167 86.928C362.351 85.5627 360.132 83.728 358.511 81.424C356.89 79.12 355.695 76.2613 354.927 72.848C354.244 69.8613 353.818 66.448 353.647 62.608C353.476 58.6827 353.391 53.136 353.391 45.968C353.391 37.008 353.562 30.1387 353.903 25.36C354.33 20.5813 355.311 16.5707 356.847 13.328C358.554 9.82933 361.156 7.14133 364.655 5.26399C368.154 3.38666 373.103 2.10666 379.503 1.424V45.968C379.503 51.0027 379.588 55.824 379.759 60.432C379.93 63.9307 380.356 66.4907 381.039 68.112C381.807 69.7333 383.044 70.672 384.751 70.928C386.202 71.2693 388.634 71.44 392.047 71.44C395.546 71.44 397.935 71.312 399.215 71.056V90.896C398.447 90.9813 397.295 91.024 395.759 91.024H392.047ZM445.07 5.77599V1.936H468.622L505.486 80.272L501.262 90H484.622L445.07 5.77599ZM517.39 53.008H516.878L508.302 73.744L497.294 50.192L517.39 1.936H541.71V90H517.39V53.008ZM445.07 18.448L468.622 68.624V90H445.07V18.448ZM558.32 1.936H583.92V90H558.32V1.936ZM589.296 1.936H621.808V21.52H589.296V1.936ZM589.296 35.728H615.792V55.312H589.296V35.728ZM589.296 70.416H621.808V90H589.296V70.416ZM663.277 1.936H735.341V22.416H663.277V1.936ZM686.445 27.536H712.045V90H686.445V27.536ZM793.716 45.968C793.716 38.544 793.673 33.68 793.588 31.376C793.417 27.8773 792.948 25.36 792.18 23.824C791.412 22.2027 790.175 21.2213 788.468 20.88C786.761 20.624 784.329 20.496 781.172 20.496C777.503 20.496 775.113 20.6667 774.004 21.008V1.03999C774.772 0.954661 775.924 0.911995 777.46 0.911995H781.172C790.729 0.911995 798.111 1.68 803.316 3.216C808.607 4.66666 812.447 7.09866 814.836 10.512C817.055 13.6693 818.42 17.808 818.932 22.928C819.529 28.048 819.828 35.728 819.828 45.968C819.828 54.928 819.615 61.84 819.188 66.704C818.847 71.4827 817.908 75.4507 816.372 78.608C814.665 82.192 812.02 84.9227 808.436 86.8C804.937 88.6773 800.031 89.9147 793.716 90.512V45.968ZM781.172 91.024C768.713 91.024 759.753 89.6587 754.292 86.928C751.476 85.5627 749.257 83.728 747.636 81.424C746.015 79.12 744.82 76.2613 744.052 72.848C743.369 69.8613 742.943 66.448 742.772 62.608C742.601 58.6827 742.516 53.136 742.516 45.968C742.516 37.008 742.687 30.1387 743.028 25.36C743.455 20.5813 744.436 16.5707 745.972 13.328C747.679 9.82933 750.281 7.14133 753.78 5.26399C757.279 3.38666 762.228 2.10666 768.628 1.424V45.968C768.628 51.0027 768.713 55.824 768.884 60.432C769.055 63.9307 769.481 66.4907 770.164 68.112C770.932 69.7333 772.169 70.672 773.876 70.928C775.327 71.2693 777.759 71.44 781.172 71.44C784.671 71.44 787.06 71.312 788.34 71.056V90.896C787.572 90.9813 786.42 91.024 784.884 91.024H781.172ZM896.629 1.03999C897.312 0.954661 898.378 0.911995 899.829 0.911995H903.157C908.874 0.911995 914.464 1.33866 919.925 2.19199C922.741 2.61866 924.917 3.04533 926.453 3.47199V21.776C925.173 21.6907 923.04 21.4773 920.053 21.136C916.042 20.7093 912.544 20.496 909.557 20.496C906.229 20.496 903.541 20.624 901.493 20.88C899.53 21.0507 897.909 21.392 896.629 21.904V1.03999ZM903.157 91.024C894.624 91.024 887.84 90.2987 882.805 88.848C877.856 87.312 874.101 84.7947 871.541 81.296C869.066 77.968 867.36 73.5733 866.421 68.112C865.568 62.5653 865.141 55.184 865.141 45.968C865.141 37.8613 865.44 31.2907 866.037 26.256C866.72 21.2213 867.914 16.9973 869.621 13.584C871.413 10.0853 874.016 7.39733 877.429 5.52C880.928 3.55733 885.536 2.23466 891.253 1.55199V45.968C891.253 50.7467 891.338 55.3547 891.509 59.792C891.68 63.2053 892.32 65.7653 893.429 67.472C894.624 69.1787 896.458 70.2453 898.933 70.672C901.322 71.184 904.864 71.44 909.557 71.44C914.421 71.44 918.56 71.2267 921.973 70.8C923.338 70.7147 925.002 70.5013 926.965 70.16V88.72C922.784 89.6587 918.048 90.2987 912.757 90.64C909.856 90.896 906.656 91.024 903.157 91.024ZM960.163 1.936H962.339L972.451 37.008L957.731 90H932.131L960.163 1.936ZM988.963 74.384H967.587L972.963 54.672H983.203L968.099 1.936H991.523L1019.56 90H993.443L988.963 74.384ZM1028.07 1.936H1053.67V90H1028.07V1.936ZM1059.05 69.392H1086.44V90H1059.05V69.392ZM1126.5 1.168C1129.92 0.99733 1132.73 0.911995 1134.95 0.911995C1142.63 0.911995 1149.67 1.424 1156.07 2.448C1159.31 2.78933 1162.43 3.30133 1165.42 3.98399V22.288C1161.83 21.9467 1159.14 21.648 1157.35 21.392C1155.9 21.3067 1153.55 21.0933 1150.31 20.752C1147.07 20.5813 1144.94 20.496 1143.91 20.496C1138.71 20.496 1134.87 20.624 1132.39 20.88C1130 21.0507 1128.04 21.5627 1126.5 22.416V1.168ZM1134.95 91.024C1126.42 91.024 1119.59 90.384 1114.47 89.104C1109.44 87.824 1105.51 85.5627 1102.7 82.32C1099.88 79.0773 1097.87 74.5973 1096.68 68.88C1095.57 63.1627 1095.02 55.5253 1095.02 45.968C1095.02 37.8613 1095.4 31.2053 1096.17 26C1096.94 20.7947 1098.26 16.528 1100.14 13.2C1102.1 9.78666 1104.74 7.184 1108.07 5.392C1111.4 3.6 1115.75 2.36266 1121.13 1.67999V45.968C1121.13 52.0267 1121.3 56.6773 1121.64 59.92C1121.98 63.0773 1122.62 65.5093 1123.56 67.216C1124.58 69.008 1126.03 70.2453 1127.91 70.928C1129.87 71.6107 1132.65 71.952 1136.23 71.952V91.024H1134.95ZM1141.61 56.208H1132.52V37.648H1165.8V87.824C1161.79 88.7627 1156.8 89.488 1150.82 90C1147.92 90.4267 1144.85 90.6827 1141.61 90.768V56.208ZM1201.79 1.936H1203.96L1214.08 37.008L1199.36 90H1173.76L1201.79 1.936ZM1230.59 74.384H1209.21L1214.59 54.672H1224.83L1209.72 1.936H1233.15L1261.18 90H1235.07L1230.59 74.384ZM1269.7 1.936H1295.3V90H1269.7V1.936ZM1305.79 60.048H1300.67V40.464H1305.02C1307.67 40.464 1309.67 40.3787 1311.04 40.208C1312.4 39.952 1313.47 39.5253 1314.24 38.928C1314.92 38.3307 1315.39 37.4347 1315.65 36.24C1315.9 35.0453 1316.03 33.296 1316.03 30.992C1316.03 28.688 1315.9 26.9387 1315.65 25.744C1315.39 24.464 1314.92 23.5253 1314.24 22.928C1313.56 22.3307 1312.53 21.9467 1311.17 21.776C1309.89 21.6053 1307.84 21.52 1305.02 21.52H1300.67V1.936H1313.86C1319.91 1.936 1324.82 2.53333 1328.58 3.728C1332.33 4.92266 1335.23 6.75733 1337.28 9.23199C1339.16 11.536 1340.39 14.3947 1340.99 17.808C1341.67 21.2213 1342.02 25.616 1342.02 30.992C1342.02 37.904 1341.38 43.2373 1340.1 46.992C1338.3 51.7707 1335.15 55.1413 1330.62 57.104L1343.94 90H1317.06L1305.79 60.048ZM1373.15 60.944L1372 58.384L1368.67 51.856L1365.47 45.072C1365.13 44.4747 1364.7 43.5787 1364.19 42.384L1358.94 31.504L1344.86 1.936H1370.97L1398.75 61.072V90H1373.15V60.944ZM1389.66 29.2L1401.56 1.936H1427.16L1417.18 22.672L1412.96 31.376L1404.89 48.144L1401.69 54.8L1389.66 29.2ZM1421.94 69.136H1447.8V90H1421.94V69.136Z" fill="white"/>
</svg>
