<svg width="411" height="118" viewBox="0 0 411 118" fill="none" xmlns="http://www.w3.org/2000/svg">
<g clip-path="url(#clip0_394_207)">
<path d="M147.879 2.34125H153.976L156.785 33.2553H156.902L159.892 2.34125H166.787L169.777 33.2553H169.883L172.703 2.34125H178.161L174.086 42.564H166.212L163.339 15.4424H163.222L160.349 42.564H151.965L147.879 2.34125ZM181.353 2.34125H198.591V8.08732H187.674V18.7177H196.356V24.4637H187.674V36.8179H198.591V42.564H181.353V2.34125ZM210.561 43.1386C207.497 43.1386 205.177 42.2767 203.602 40.5528C202.038 38.7907 201.251 36.2816 201.251 33.0255V30.727H207.231V33.4852C207.231 36.0901 208.316 37.3925 210.497 37.3925C211.572 37.3925 212.38 37.086 212.912 36.4731C213.487 35.8219 213.774 34.7876 213.774 33.3702C213.774 31.6847 213.391 30.2099 212.625 28.9457C211.859 27.6433 210.444 26.0918 208.38 24.2914C205.773 21.9929 203.953 19.9243 202.921 18.0855C201.878 16.2085 201.368 14.1016 201.368 11.7649C201.368 8.58538 202.166 6.13365 203.783 4.40982C205.39 2.64768 207.72 1.7666 210.784 1.7666C213.817 1.7666 216.094 2.64768 217.626 4.40982C219.201 6.13365 219.978 8.62365 219.978 11.8798V13.5461H214.008V11.4776C214.008 10.0985 213.742 9.10252 213.2 8.4896C212.668 7.83838 211.88 7.51273 210.848 7.51273C208.741 7.51273 207.688 8.79601 207.688 11.3626C207.688 12.8183 208.071 14.1782 208.837 15.4424C209.635 16.7065 211.072 18.2388 213.146 20.0392C215.785 22.3377 217.605 24.4255 218.605 26.3025C219.595 28.1796 220.095 30.3822 220.095 32.9105C220.095 36.2049 219.275 38.7333 217.626 40.4954C216.019 42.2576 213.657 43.1386 210.561 43.1386ZM228.66 8.08732H222.052V2.34125H241.588V8.08732H234.98V42.564H228.66V8.08732ZM244.653 2.34125H261.89V8.08732H250.973V18.7177H259.645V24.4637H250.973V36.8179H261.89V42.564H244.653V2.34125ZM265.529 2.34125H274.892C278.148 2.34125 280.521 3.10737 282.011 4.63967C283.511 6.13366 284.256 8.45125 284.256 11.5925V14.0633C284.256 18.2388 282.872 20.882 280.117 21.993V22.1078C281.649 22.5675 282.724 23.5061 283.341 24.9234C283.99 26.3408 284.309 28.237 284.309 30.6121V37.6798C284.309 38.829 284.352 39.7676 284.426 40.4954C284.5 41.185 284.692 41.8745 285 42.564H278.563C278.34 41.9128 278.18 41.2998 278.106 40.7252C278.031 40.1506 277.989 39.1163 277.989 37.6224V30.2673C277.989 28.4285 277.691 27.1453 277.074 26.4174C276.499 25.6896 275.488 25.3257 274.03 25.3257H271.849V42.564H265.529V2.34125ZM274.147 19.5796C275.403 19.5796 276.35 19.2539 276.956 18.6027C277.606 17.9515 277.935 16.8597 277.935 15.3274V12.2245C277.935 10.7688 277.669 9.71542 277.127 9.06419C276.637 8.41297 275.829 8.08732 274.722 8.08732H271.849V19.5796H274.147ZM288.703 2.34125H296.63L302.781 26.4174H302.887V2.34125H308.526V42.564H302.025L294.449 13.2014H294.332V42.564H288.703V2.34125ZM149.379 45.9691H158.392L162.414 74.7571H162.531L166.553 45.9691H175.576V86.1918H169.596V55.7375H169.489L164.893 86.1918H159.605L155.008 55.7375H154.891V86.1918H149.379V45.9691ZM180.289 45.9691H197.527V51.7152H186.61V62.3455H195.292V68.0916H186.61V80.4457H197.527V86.1918H180.289V45.9691ZM210.072 86.7664C207.05 86.7664 204.73 85.9045 203.123 84.1807C201.549 82.4568 200.761 80.0244 200.761 76.8832V55.2778C200.761 52.1366 201.549 49.7041 203.123 47.9803C204.73 46.2564 207.05 45.3944 210.072 45.3944C213.093 45.3944 215.392 46.2564 216.966 47.9803C218.573 49.7041 219.382 52.1366 219.382 55.2778V59.5299H213.402V54.8756C213.402 52.3856 212.348 51.1406 210.242 51.1406C208.135 51.1406 207.082 52.3856 207.082 54.8756V77.3429C207.082 79.7945 208.135 81.0204 210.242 81.0204C212.348 81.0204 213.402 79.7945 213.402 77.3429V71.1945H219.382V76.8832C219.382 80.0244 218.573 82.4568 216.966 84.1807C215.392 85.9045 213.093 86.7664 210.072 86.7664ZM223.159 45.9691H229.479V62.3455H236.257V45.9691H242.578V86.1918H236.257V68.0916H229.479V86.1918H223.159V45.9691ZM252.175 45.9691H260.73L267.284 86.1918H260.964L259.815 78.2048V78.3197H252.633L251.484 86.1918H245.621L252.175 45.9691ZM259.07 72.8609L256.25 52.9794H256.133L253.378 72.8609H259.07ZM272.658 51.7152H266.05V45.9691H285.586V51.7152H278.978V86.1918H272.658V51.7152ZM288.64 45.9691H298.003C301.259 45.9691 303.642 46.7352 305.132 48.2675C306.622 49.7615 307.377 52.0791 307.377 55.2203V57.6911C307.377 61.8667 305.994 64.5099 303.238 65.6208V65.7357C304.77 66.1954 305.845 67.1339 306.451 68.5513C307.1 69.9687 307.43 71.8649 307.43 74.2399V81.3076C307.43 82.4568 307.473 83.3954 307.547 84.1233C307.622 84.8128 307.813 85.5023 308.122 86.1918H301.685C301.45 85.5406 301.301 84.9277 301.227 84.3531C301.152 83.7784 301.11 82.7442 301.11 81.2502V73.8951C301.11 72.0564 300.801 70.7731 300.195 70.0453C299.62 69.3174 298.599 68.9535 297.141 68.9535H294.96V86.1918H288.64V45.9691ZM297.258 63.2074C298.524 63.2074 299.461 62.8818 300.078 62.2306C300.727 61.5793 301.057 60.4876 301.057 58.9553V55.8524C301.057 54.3967 300.78 53.3433 300.248 52.692C299.748 52.0408 298.95 51.7152 297.833 51.7152H294.96V63.2074H297.258ZM320.954 86.7664C317.847 86.7664 315.474 85.8854 313.825 84.1233C312.176 82.3611 311.357 79.8711 311.357 76.6533V55.5076C311.357 52.2898 312.176 49.7998 313.825 48.0377C315.474 46.2755 317.847 45.3944 320.954 45.3944C324.05 45.3944 326.434 46.2755 328.072 48.0377C329.722 49.7998 330.552 52.2898 330.552 55.5076V76.6533C330.552 79.8711 329.722 82.3611 328.072 84.1233C326.434 85.8854 324.05 86.7664 320.954 86.7664ZM320.954 81.0204C323.135 81.0204 324.231 79.6987 324.231 77.0555V55.1054C324.231 52.4622 323.135 51.1406 320.954 51.1406C318.773 51.1406 317.677 52.4622 317.677 55.1054V77.0555C317.677 79.6987 318.773 81.0204 320.954 81.0204ZM334.818 45.9691H342.745L348.896 70.0453H349.013V45.9691H354.641V86.1918H348.151L340.564 56.8292H340.447V86.1918H334.818V45.9691ZM359.344 45.9691H365.665V86.1918H359.344V45.9691ZM379.305 86.7664C376.273 86.7664 373.953 85.9045 372.347 84.1807C370.783 82.4568 369.995 80.0244 369.995 76.8832V55.2778C369.995 52.1366 370.783 49.7041 372.347 47.9803C373.953 46.2564 376.273 45.3944 379.305 45.3944C382.327 45.3944 384.626 46.2564 386.2 47.9803C387.807 49.7041 388.605 52.1366 388.605 55.2778V59.5299H382.636V54.8756C382.636 52.3856 381.583 51.1406 379.476 51.1406C377.369 51.1406 376.316 52.3856 376.316 54.8756V77.3429C376.316 79.7945 377.369 81.0204 379.476 81.0204C381.583 81.0204 382.636 79.7945 382.636 77.3429V71.1945H388.605V76.8832C388.605 80.0244 387.807 82.4568 386.2 84.1807C384.626 85.9045 382.327 86.7664 379.305 86.7664ZM400.724 86.7664C397.66 86.7664 395.34 85.9045 393.766 84.1807C392.202 82.4185 391.414 79.9094 391.414 76.6533V74.3548H397.383V77.113C397.383 79.7179 398.479 81.0204 400.661 81.0204C401.735 81.0204 402.544 80.7139 403.076 80.101C403.65 79.4497 403.938 78.4154 403.938 76.998C403.938 75.3125 403.555 73.8377 402.789 72.5736C402.023 71.2711 400.607 69.7197 398.533 67.9192C395.936 65.6208 394.117 63.5521 393.074 61.7134C392.042 59.8363 391.531 57.7295 391.531 55.3927C391.531 52.2132 392.329 49.7615 393.936 48.0377C395.553 46.2755 397.883 45.3944 400.948 45.3944C403.98 45.3944 406.257 46.2755 407.79 48.0377C409.354 49.7615 410.141 52.2515 410.141 55.5076V57.174H404.172V55.1054C404.172 53.7263 403.895 52.7304 403.363 52.1175C402.831 51.4662 402.044 51.1406 401.012 51.1406C398.905 51.1406 397.852 52.4239 397.852 54.9905C397.852 56.4461 398.235 57.8061 399.001 59.0702C399.799 60.3344 401.235 61.8666 403.31 63.6671C405.949 65.9655 407.768 68.0533 408.769 69.9304C409.758 71.8074 410.258 74.0101 410.258 76.5384C410.258 79.8328 409.439 82.3611 407.79 84.1233C406.183 85.8854 403.821 86.7664 400.724 86.7664Z" fill="white"/>
<path d="M45.6789 62.0952H63.5332V115.521H33.602L0 56.7109L34.134 0L45.1574 18.378L22.5787 57.2355L45.6789 95.0427V62.0952Z" fill="white"/>
<path d="M89.2612 62.0952H71.4067V115.521H101.338L134.94 56.7109L100.817 0L89.7826 18.378L112.361 57.2355L89.2612 95.0427V62.0952Z" fill="white"/>
<path d="M147.453 91.5659H153.348C155.401 91.5659 156.891 92.0479 157.838 93.0131C158.774 93.9537 159.243 95.4126 159.243 97.3908V98.9464C159.243 101.575 158.381 103.239 156.636 103.939V104.012C157.604 104.301 158.285 104.892 158.668 105.784C159.072 106.676 159.285 107.87 159.285 109.366V113.816C159.285 114.54 159.306 115.13 159.349 115.589C159.402 116.023 159.519 116.457 159.711 116.891H155.668C155.519 116.481 155.423 116.095 155.37 115.734C155.327 115.372 155.306 114.721 155.306 113.78V109.149C155.306 107.991 155.114 107.183 154.721 106.725C154.359 106.266 153.72 106.038 152.805 106.038H151.433V116.891H147.453V91.5659ZM152.88 102.42C153.678 102.42 154.263 102.214 154.646 101.805C155.061 101.394 155.263 100.706 155.263 99.7424V97.7887C155.263 96.8715 155.093 96.2085 154.763 95.7989C154.444 95.3881 153.944 95.1838 153.242 95.1838H151.433V102.42H152.88ZM167.436 117.253C165.478 117.253 163.988 116.698 162.945 115.589C161.913 114.479 161.392 112.912 161.392 110.886V97.5716C161.392 95.5456 161.913 93.9772 162.945 92.8684C163.988 91.7585 165.478 91.2041 167.436 91.2041C169.383 91.2041 170.883 91.7585 171.915 92.8684C172.958 93.9772 173.479 95.5456 173.479 97.5716V110.886C173.479 112.912 172.958 114.479 171.915 115.589C170.883 116.698 169.383 117.253 167.436 117.253ZM167.436 113.635C168.808 113.635 169.5 112.803 169.5 111.139V97.3184C169.5 95.6541 168.808 94.822 167.436 94.822C166.063 94.822 165.371 95.6541 165.371 97.3184V111.139C165.371 112.803 166.063 113.635 167.436 113.635ZM175.799 91.5659H181.811C183.864 91.5659 185.354 92.0479 186.29 93.0131C187.237 93.9537 187.705 95.4126 187.705 97.3908V98.4038C187.705 99.7062 187.493 100.767 187.056 101.588C186.641 102.407 186.003 102.999 185.141 103.36V103.433C187.12 104.107 188.099 105.868 188.099 108.715V110.886C188.099 112.839 187.588 114.334 186.546 115.372C185.535 116.385 184.045 116.891 182.066 116.891H175.799V91.5659ZM181.343 101.877C182.13 101.877 182.726 101.672 183.109 101.262C183.524 100.851 183.726 100.164 183.726 99.1997V97.7887C183.726 96.8715 183.556 96.2085 183.215 95.7989C182.907 95.3881 182.396 95.1838 181.704 95.1838H179.778V101.877H181.343ZM182.066 113.273C182.758 113.273 183.279 113.092 183.62 112.731C183.96 112.344 184.12 111.693 184.12 110.777V108.57C184.12 107.412 183.917 106.616 183.513 106.182C183.119 105.724 182.47 105.495 181.555 105.495H179.778V113.273H182.066ZM195.824 117.253C193.866 117.253 192.376 116.698 191.334 115.589C190.302 114.479 189.78 112.912 189.78 110.886V97.5716C189.78 95.5456 190.302 93.9772 191.334 92.8684C192.376 91.7585 193.866 91.2041 195.824 91.2041C197.771 91.2041 199.271 91.7585 200.304 92.8684C201.346 93.9772 201.857 95.5456 201.857 97.5716V110.886C201.857 112.912 201.346 114.479 200.304 115.589C199.271 116.698 197.771 117.253 195.824 117.253ZM195.824 113.635C197.197 113.635 197.878 112.803 197.878 111.139V97.3184C197.878 95.6541 197.197 94.822 195.824 94.822C194.441 94.822 193.76 95.6541 193.76 97.3184V111.139C193.76 112.803 194.441 113.635 195.824 113.635ZM207.166 95.1838H203.006V91.5659H215.306V95.1838H211.146V116.891H207.166V95.1838ZM216.87 91.5659H220.85V116.891H216.87V91.5659ZM229.075 117.253C227.17 117.253 225.713 116.71 224.691 115.625C223.702 114.54 223.212 113.007 223.212 111.03V97.4269C223.212 95.4488 223.702 93.9176 224.691 92.8322C225.713 91.7468 227.17 91.2041 229.075 91.2041C230.98 91.2041 232.427 91.7468 233.416 92.8322C234.427 93.9176 234.938 95.4488 234.938 97.4269V100.104H231.171V97.1737C231.171 95.6052 230.511 94.822 229.181 94.822C227.851 94.822 227.192 95.6052 227.192 97.1737V111.32C227.192 112.863 227.851 113.635 229.181 113.635C230.511 113.635 231.171 112.863 231.171 111.32V107.449H234.938V111.03C234.938 113.007 234.427 114.54 233.416 115.625C232.427 116.71 230.98 117.253 229.075 117.253ZM242.194 117.253C240.269 117.253 238.811 116.71 237.821 115.625C236.832 114.515 236.332 112.935 236.332 110.886V109.438H240.098V111.175C240.098 112.815 240.79 113.635 242.162 113.635C242.833 113.635 243.344 113.442 243.684 113.056C244.046 112.646 244.227 111.994 244.227 111.103C244.227 110.041 243.982 109.113 243.503 108.317C243.014 107.496 242.12 106.52 240.822 105.386C239.183 103.939 238.034 102.637 237.385 101.479C236.736 100.297 236.406 98.9699 236.406 97.4993C236.406 95.4967 236.917 93.9537 237.928 92.8684C238.938 91.7585 240.407 91.2041 242.343 91.2041C244.248 91.2041 245.685 91.7585 246.642 92.8684C247.632 93.9537 248.132 95.5211 248.132 97.5716V98.6209H244.365V97.3184C244.365 96.4501 244.195 95.8223 243.865 95.4371C243.524 95.0264 243.024 94.822 242.375 94.822C241.045 94.822 240.386 95.6296 240.386 97.246C240.386 98.1622 240.63 99.0188 241.109 99.8147C241.62 100.611 242.524 101.575 243.822 102.709C245.493 104.156 246.631 105.47 247.259 106.653C247.887 107.834 248.206 109.221 248.206 110.813C248.206 112.887 247.685 114.479 246.642 115.589C245.631 116.698 244.152 117.253 242.194 117.253ZM261.155 117.253C259.251 117.253 257.793 116.71 256.782 115.625C255.793 114.54 255.303 113.007 255.303 111.03V97.4269C255.303 95.4488 255.793 93.9176 256.782 92.8322C257.793 91.7468 259.251 91.2041 261.155 91.2041C263.071 91.2041 264.518 91.7468 265.497 92.8322C266.518 93.9176 267.018 95.4488 267.018 97.4269V100.104H263.262V97.1737C263.262 95.6052 262.592 94.822 261.273 94.822C259.943 94.822 259.283 95.6052 259.283 97.1737V111.32C259.283 112.863 259.943 113.635 261.273 113.635C262.592 113.635 263.262 112.863 263.262 111.32V107.449H267.018V111.03C267.018 113.007 266.518 114.54 265.497 115.625C264.518 116.71 263.071 117.253 261.155 117.253ZM269.04 91.5659H273.019V113.273H279.563V116.891H269.04V91.5659ZM286.905 117.253C284.968 117.253 283.5 116.71 282.489 115.625C281.478 114.515 280.968 112.935 280.968 110.886V91.5659H284.947V111.175C284.947 112.043 285.117 112.67 285.458 113.056C285.82 113.442 286.32 113.635 286.979 113.635C287.628 113.635 288.118 113.442 288.458 113.056C288.82 112.67 289.001 112.043 289.001 111.175V91.5659H292.832V110.886C292.832 112.935 292.332 114.515 291.321 115.625C290.299 116.71 288.831 117.253 286.905 117.253ZM295.311 91.5659H301.312C303.366 91.5659 304.855 92.0479 305.802 93.0131C306.739 93.9537 307.207 95.4126 307.207 97.3908V98.4038C307.207 99.7062 306.994 100.767 306.558 101.588C306.153 102.407 305.515 102.999 304.642 103.36V103.433C306.622 104.107 307.611 105.868 307.611 108.715V110.886C307.611 112.839 307.09 114.334 306.058 115.372C305.036 116.385 303.546 116.891 301.567 116.891H295.311V91.5659ZM300.844 101.877C301.642 101.877 302.227 101.672 302.621 101.262C303.025 100.851 303.227 100.164 303.227 99.1997V97.7887C303.227 96.8715 303.068 96.2085 302.727 95.7989C302.408 95.3881 301.908 95.1838 301.206 95.1838H299.29V101.877H300.844ZM301.567 113.273C302.27 113.273 302.78 113.092 303.121 112.731C303.461 112.344 303.632 111.693 303.632 110.777V108.57C303.632 107.412 303.429 106.616 303.014 106.182C302.631 105.724 301.982 105.495 301.057 105.495H299.29V113.273H301.567Z" fill="white"/>
</g>
<defs>
<clipPath id="clip0_394_207">
<rect width="411" height="118" fill="white"/>
</clipPath>
</defs>
</svg>
