<svg width="90" height="90" viewBox="0 0 90 90" fill="none" xmlns="http://www.w3.org/2000/svg">
<path fill-rule="evenodd" clip-rule="evenodd" d="M53.6625 11.25C54.8745 11.25 56.0685 11.5437 57.1422 12.106C58.2158 12.6683 59.1373 13.4825 59.8275 14.4788L60.1575 15L81.8063 52.5C82.4079 53.5422 82.75 54.714 82.8035 55.9162C82.857 57.1185 82.6204 58.3159 82.1137 59.4075L81.8063 60L73.1437 75C72.5379 76.0491 71.6868 76.9359 70.6635 77.5844C69.6401 78.2329 68.4749 78.6238 67.2675 78.7237L66.6525 78.75H23.3513C22.1386 78.7506 20.9439 78.4572 19.8695 77.8948C18.7951 77.3325 17.8731 76.518 17.1825 75.5212L16.8562 75L8.19375 60C7.59207 58.9578 7.25003 57.786 7.19651 56.5838C7.14299 55.3815 7.37956 54.1841 7.88625 53.0925L8.19375 52.5L29.85 15C30.4562 13.9504 31.3078 13.0633 32.3319 12.4148C33.356 11.7662 34.5219 11.3756 35.73 11.2762L36.3412 11.25H53.6625ZM73.1475 60H34.1737L27.6788 71.25H66.6525L73.1475 60ZM34.1775 22.5L14.6888 56.25L21.1838 67.5L40.6688 33.75L34.1775 22.5ZM53.6625 18.75H40.6725L60.1575 52.5H73.1475L53.6625 18.75ZM45 41.25L38.505 52.5H51.495L45 41.25Z" fill="black"/>
</svg>
